<?xml version="1.0" encoding="utf-8"?>
<!-- Generator: Adobe Illustrator 27.4.1, SVG Export Plug-In . SVG Version: 6.00 Build 0)  -->
<svg version="1.1" id="Layer_1" xmlns="http://www.w3.org/2000/svg" xmlns:xlink="http://www.w3.org/1999/xlink" x="0px" y="0px"
	 viewBox="0 0 8192 4365.4" style="enable-background:new 0 0 8192 4365.4;" xml:space="preserve">
<style type="text/css">
	.st0{fill:url(#SVGID_1_);}
</style>
<g id="Layer_2_00000175282719451946563570000004468474715743313055_">
</g>
<g id="Layer_1_00000017475707817325622420000006073887779467503519_">
	
		<linearGradient id="SVGID_1_" gradientUnits="userSpaceOnUse" x1="2099.3955" y1="-4031.1909" x2="5490.8135" y2="-4031.1909" gradientTransform="matrix(0.9263 0 0 0.9263 580.5817 4461.0322)">
		<stop  offset="5.618000e-03" style="stop-color:#FBC926"/>
		<stop  offset="0.2528" style="stop-color:#FFFBCC"/>
		<stop  offset="0.2986" style="stop-color:#F8EBB8"/>
		<stop  offset="0.3896" style="stop-color:#E7CF8E"/>
		<stop  offset="0.5159" style="stop-color:#D0A953"/>
		<stop  offset="0.5955" style="stop-color:#C3922E"/>
		<stop  offset="0.8143" style="stop-color:#E2C675"/>
		<stop  offset="0.8708" style="stop-color:#EED688"/>
		<stop  offset="1" style="stop-color:#FFFBCC"/>
	</linearGradient>
	<path class="st0" d="M4843.5,1288c11.8,11.8,17.7,26.6,17.7,44.1c0,17.7-5.9,32.8-17.5,44.9c-11.8,12.2-26.7,18.4-44.3,18.4
		c-17.8,0-33-6.1-45.1-18.2c-12.1-12.1-18.2-27.3-18.2-45.1c0-17.6,6.2-32.5,18.4-44.3c12-11.6,27.2-17.5,44.9-17.5
		C4816.9,1270.3,4831.7,1276.2,4843.5,1288z M4915.6,819.1c-6.4-1.5-12.9,1.6-15.8,7.5c-31,63.2-77.6,109.9-138.8,138.8
		c-5.9,2.8-9.1,9.4-7.7,15.8c1.4,6.4,7.1,11,13.7,11c9.7,0,17.4,3.2,24.2,10s10,14.5,10,24.2v82.5h-175.8V832.8
		c0-6.5-4.5-12.2-10.9-13.7c-6.4-1.5-12.9,1.6-15.8,7.5c-31,63.2-77.6,109.9-138.8,138.8c-5.9,2.8-9.1,9.4-7.7,15.8
		c1.4,6.4,7.1,11,13.7,11c9.7,0,17.4,3.2,24.2,10s10,14.5,10,24.2v82.5h-175.8V832.8c0-6.5-4.5-12.2-10.9-13.7
		c-6.4-1.5-12.9,1.6-15.8,7.5c-31,63.2-77.6,109.7-138.7,138.3c-6,2.8-9.2,9.4-7.8,15.8c1.4,6.4,7.1,11,13.7,11
		c9.6,0,17.3,3.2,24.1,10.2c6.8,6.9,10.1,15,10.1,24.6v82.5h-68.9V881.1c0-6.5-4.5-12.2-10.9-13.7c-6.4-1.5-12.9,1.6-15.8,7.5
		c-31,63.2-77.6,109.7-138.7,138.3c-6,2.8-9.2,9.4-7.8,15.8c1.4,6.4,7.1,11,13.7,11c9.6,0,17.3,3.2,24.1,10.2
		c6.8,6.9,10.1,15,10.1,24.6v34.2h-68.4V929.4c0-6.5-4.5-12.2-10.9-13.7c-6.4-1.5-12.9,1.6-15.8,7.5
		c-31,63.2-77.6,109.7-138.7,138.3c-6,2.8-9.2,9.4-7.8,15.8c1.4,6.4,7.1,11,13.7,11c9.6,0,17.3,3.2,24.1,10.2
		c3.2,3.2,5.6,6.7,7.3,10.5h-189.9c-3.1-37.8-18.5-71-46.2-98.8c-31-31.2-68.9-47-112.7-47h-457.5l448-447.5
		c0.1-0.1,0.1-0.1,0.2-0.2c6.7-6.9,14.3-10.2,23.9-10.3c9.6-0.2,17.3,3.1,24.3,10c4.7,4.7,11.9,5.5,17.5,1.9
		c5.6-3.6,7.9-10.5,5.7-16.6c-22.7-62.7-22.9-128.3-0.4-195.1c2.1-6.2-0.4-13-5.9-16.4c-5.6-3.5-12.7-2.6-17.4,2l-770.4,746.9
		c-4,4-5.3,10.1-3.1,15.3c2.2,5.3,7.3,8.7,13,8.7h726.3c9.6,0,17.5,3.4,24.5,10.3c3.2,3.2,3.1,33.5,2.7,37H2733
		c-9.6,0-17.5-3.3-24.2-10c-6.7-6.7-10-14.6-10-24.2c0-6.5-4.5-12.2-10.9-13.7c-6.4-1.5-12.9,1.6-15.8,7.5
		c-31,63.2-77.6,109.9-138.8,138.8c-5.9,2.8-9.1,9.4-7.7,15.8c1.4,6.4,7.1,11,13.7,11h2373c7.8,0,14.1-6.3,14.1-14.1V832.9
		C4926.5,826.3,4921.9,820.6,4915.6,819.1z M5182.8,394.5c1.4-6.4-1.8-13-7.7-15.8c-61.1-28.9-107.8-75.6-138.7-138.8
		c-2.9-5.9-9.5-9-15.8-7.5c-6.4,1.5-10.9,7.1-10.9,13.7v974c0,7.8,6.3,14.1,14.1,14.1h97.1c7.8,0,14.1-6.3,14.1-14.1V439.7
		c0-9.7,3.2-17.4,10-24.2c6.7-6.7,14.7-10,24.2-10C5175.6,405.5,5181.3,400.9,5182.8,394.5z M5407.4,914.7
		c-6.4-1.5-12.9,1.6-15.8,7.5c-31,63.2-77.6,109.9-138.8,138.8c-5.9,2.8-9.1,9.4-7.7,15.8c1.4,6.4,7.1,11,13.7,11
		c9.5,0,17.5,3.4,24.5,10.3c6.9,6.9,10.3,14.9,10.3,24.5v95.5c0,27.5-9.7,47.5-29.6,61c-21.3,14.6-54.7,22.1-99.2,22.5
		c-10.7,0-14.7,6.5-16,9.4c-1.6,3.6-3.2,10.7,4,18.7c0,0,0.1,0.1,0.1,0.1c15.4,16.9,33.7,29.7,54.3,37.8c20.2,8,39.5,12,57.3,12
		c49,0,87-13.8,112.9-41.1c25.6-27,39.4-67.2,40.9-119.4c0-0.1,0-0.2,0-0.4V928.4C5418.3,921.9,5413.8,916.2,5407.4,914.7z
		 M5658.7,378.7c-61.1-28.9-107.8-75.6-138.8-138.8c-2.9-5.9-9.4-9-15.8-7.5c-6.4,1.5-10.9,7.1-10.9,13.7v974
		c0,7.8,6.3,14.1,14.1,14.1h97.1c7.8,0,14.1-6.3,14.1-14.1V439.7c0-9.7,3.2-17.4,10-24.2c6.7-6.7,14.7-10,24.2-10
		c6.6,0,12.3-4.6,13.7-11C5667.8,388.1,5664.6,381.5,5658.7,378.7z M5599.8,123.1c-5.5,14.4-15.8,21.6-30.8,21.6
		c-8.9,0-16.5-3.2-22.9-9.5c-6.3-6.3-9.5-14-9.5-22.9c0-8.9,3.3-16.4,9.8-22.6c6.5-6.1,13.9-9.3,22.1-9.3c13.7,0,24.3,6.3,31.8,19
		c0.3,0.7,0.5,0.7,0.5,0c0-11.6-4.5-21.4-13.4-29.3c-8.9-7.8-19.4-11.8-31.3-11.8c-18.8,0-34,6.4-45.4,19.3s-17.2,28-17.2,45.4
		c0,7.9,1.2,15.1,3.6,21.6c-15.1,0-25.7,5.1-31.8,15.4c-6.1,10.3-9.3,23.4-9.3,39.5c0,7.5,0.8,15.4,2.6,23.6c0.7,2.8,2,4,4.1,3.6
		s2.9-2.6,2.6-6.7c-1-12,1.9-20,8.7-24.2c6.8-4.1,16.8-6.1,29.8-6.1h139.2C5618.6,174.2,5604.2,151.9,5599.8,123.1z M4617.7,1270.3
		c-17.7,0-32.9,5.9-44.9,17.5c-9.1,8.7-14.8,19.3-17.2,31.5c-2.3-12.1-7.8-22.6-16.5-31.3c-11.8-11.8-26.8-17.7-44.6-17.7
		c-17.4,0-32.3,5.9-44.4,17.5c-12.2,11.8-18.4,26.8-18.4,44.8c0,17.5,6.1,32.5,18.2,44.6c12.1,12.1,27.1,18.2,44.6,18.2
		c17.9,0,33-6.2,44.8-18.4c8.6-9,14.1-19.5,16.3-31.4c2.3,12,8.1,22.5,17,31.5c12.1,12.1,27.3,18.2,45.1,18.2
		c17.6,0,32.5-6.2,44.3-18.4c11.6-12.1,17.5-27,17.5-44.4c0-17.8-6-32.8-17.7-44.6C4650,1276.2,4635.2,1270.3,4617.7,1270.3z"/>
</g>
</svg>
