<?xml version="1.0" encoding="utf-8"?>
<!-- Generator: Adobe Illustrator 27.4.1, SVG Export Plug-In . SVG Version: 6.00 Build 0)  -->
<svg version="1.1" id="Layer_1" xmlns="http://www.w3.org/2000/svg" xmlns:xlink="http://www.w3.org/1999/xlink" x="0px" y="0px"
	 viewBox="0 0 850.39 850.39" style="enable-background:new 0 0 850.39 850.39;" xml:space="preserve">
<style type="text/css">
	.st0{fill:url(#SVGID_1_);}
	.st1{fill:none;}
</style>
<linearGradient id="SVGID_1_" gradientUnits="userSpaceOnUse" x1="186.0945" y1="421.195" x2="731.7045" y2="421.195">
	<stop  offset="5.618000e-03" style="stop-color:#FBC926"/>
	<stop  offset="0.2528" style="stop-color:#FFFBCC"/>
	<stop  offset="0.2986" style="stop-color:#F8EBB8"/>
	<stop  offset="0.3896" style="stop-color:#E7CF8E"/>
	<stop  offset="0.5159" style="stop-color:#D0A953"/>
	<stop  offset="0.5955" style="stop-color:#C3922E"/>
	<stop  offset="0.8143" style="stop-color:#E2C675"/>
	<stop  offset="0.8708" style="stop-color:#EED688"/>
	<stop  offset="1" style="stop-color:#FFFBCC"/>
</linearGradient>
<path class="st0" d="M724.64,491.29c-9.62-17.93-27.96-27.67-50.86-27.67c-2.32,0-4.69,0.1-7.1,0.3c0.54-5.26,0.97-10.51,1.29-15.72
	c0.59-9.37-2.56-18.46-8.64-24.93c-5.2-5.54-12.01-8.59-19.18-8.59H214c-7.15,0-13.95,3.05-19.15,8.57
	c-6.09,6.47-9.26,15.59-8.69,24.99c2.62,43.21,12.14,84.71,27.71,122.19c1.05,2.54,2.13,5.06,3.25,7.56
	c0.04,0.12,0.09,0.23,0.15,0.35c4.75,10.68,10,21.01,15.74,30.93c4.43,7.7,9.16,15.14,14.17,22.32c1.58,2.27,3.19,4.51,4.83,6.72
	c0.53,0.72,1.07,1.44,1.62,2.16c2.06,2.73,4.16,5.43,6.3,8.07c0.47,0.57,0.93,1.14,1.4,1.7c0.18,0.23,0.37,0.45,0.55,0.67
	c1.75,2.11,3.52,4.18,5.32,6.22c0.86,0.99,1.74,1.98,2.62,2.95c1.84,2.03,3.7,4.02,5.58,5.97c2.63,2.75,5.31,5.41,8.03,8
	c4.57,4.36,9.25,8.5,14.03,12.41c8.42,6.91,17.15,13.12,26.14,18.59c2.72,1.66,5.47,3.26,8.24,4.78c6.69,3.69,13.51,6.98,20.44,9.88
	c3.61,1.51,7.25,2.9,10.91,4.19c5.03,1.77,10.11,3.32,15.23,4.66c5.62,1.48,11.3,2.7,17.01,3.67c8.49,1.42,17.07,2.28,25.71,2.54
	c1.98,0.07,3.96,0.1,5.94,0.1c2.15,0,4.3-0.04,6.45-0.11c8.66-0.29,17.26-1.18,25.76-2.65c5.79-0.99,11.53-2.25,17.22-3.78
	c4.96-1.33,9.88-2.85,14.75-4.57c3.7-1.31,7.38-2.74,11.02-4.27c6.93-2.91,13.74-6.22,20.43-9.93c2.81-1.56,5.6-3.19,8.37-4.89
	c8.82-5.41,17.4-11.52,25.68-18.31c4.68-3.83,9.26-7.88,13.74-12.14c2.88-2.73,5.71-5.55,8.5-8.46c1.88-1.95,3.73-3.94,5.57-5.98
	c0.68-0.75,1.36-1.51,2.03-2.27c0.89,0.04,1.77,0.07,2.65,0.08c2.42,0.04,4.84-0.04,7.33-0.22c9.66-0.71,19.76-3.01,29.97-6.77
	c0.17-0.05,0.33-0.11,0.5-0.18c7.27-2.71,14.59-6.15,21.83-10.28c1.41-0.81,2.82-1.64,4.23-2.5c3.45-2.1,6.89-4.36,10.28-6.77
	c1.94-1.37,3.87-2.8,5.78-4.27c7.52-5.79,14.45-11.97,20.74-18.42c3-3.07,5.85-6.2,8.54-9.37
	C729.05,562.79,740.37,520.62,724.64,491.29z M259.74,617.68c-6.66-9.82-12.83-20.24-18.45-31.17l12.32,0.01l12.54,7.23
	L259.74,617.68z M280.85,645.01c-5.21-5.91-10.21-12.13-14.98-18.64l0.7-2.62l14.35-14.35l4.52-4.52l12.53,7.24l7.25,12.55
	l-5.76,5.77c-0.01,0-0.01,0-0.01,0l-13.09,13.1L280.85,645.01z M275.57,589.98c0-0.03-0.01-0.06-0.02-0.1
	c-0.01-0.01-0.02-0.03-0.03-0.05c-0.01-0.03-0.03-0.05-0.05-0.08c-0.01-0.02-0.02-0.03-0.04-0.05c0,0-0.01-0.02-0.02-0.03
	c-0.01-0.01-0.03-0.01-0.04-0.02c-0.02-0.01-0.03-0.02-0.04-0.03l-5.37-3.1l11.38,0.01h1.84l6.61,11.43l-5.36-3.09
	c-0.04-0.02-0.08-0.04-0.12-0.05c-0.04-0.01-0.09-0.02-0.13-0.02c-0.07,0-0.13,0.01-0.2,0.04c-0.06,0.02-0.11,0.06-0.16,0.11
	l-13.02,13.01l4.77-17.77c0.01-0.05,0.01-0.1,0.01-0.16C275.58,590.02,275.57,590,275.57,589.98z M323.92,562.24l11.58,3.1l6.2,1.66
	l-17.77,4.76c-0.05,0.02-0.1,0.04-0.15,0.07l-0.03,0.03c-0.03,0.02-0.06,0.04-0.08,0.07c-0.01,0.02-0.02,0.03-0.03,0.05
	c-0.02,0.02-0.04,0.05-0.05,0.08c-0.01,0.02-0.01,0.04-0.02,0.06c0,0.01-0.01,0.02-0.01,0.04c-0.01,0.02,0,0.04-0.01,0.06v6.23
	l-5.68-9.85l-0.92-1.6l6.59-11.44v6.19C323.54,561.98,323.7,562.18,323.92,562.24z M340.03,510.92c0,0.03,0.01,0.06,0.03,0.09
	c0,0.02,0.01,0.03,0.02,0.05c0.01,0.01,0.01,0.03,0.02,0.04c0.01,0.02,0.03,0.04,0.05,0.05c0,0.01,0.01,0.02,0.01,0.03l13.02,13.01
	l-8.39-2.25l-9.4-2.52c-0.04-0.01-0.08-0.01-0.13-0.01c-0.18,0-0.35,0.09-0.44,0.25l-3.1,5.38V511.8l11.47-6.62l-3.11,5.38
	c-0.03,0.05-0.04,0.1-0.05,0.15c-0.01,0.01-0.01,0.03-0.01,0.05c0,0.03-0.01,0.06,0,0.1C340.02,510.88,340.02,510.9,340.03,510.92z
	 M379.76,475.06l4.76,17.77l-13.01-13.01c-0.05-0.05-0.1-0.08-0.16-0.11c-0.06-0.02-0.12-0.03-0.18-0.03
	c-0.01,0-0.01-0.01-0.02-0.01c-0.05,0-0.1,0.01-0.15,0.03h-0.01c-0.02,0.01-0.03,0.02-0.04,0.02c-0.02,0.01-0.04,0.01-0.05,0.02
	l-5.36,3.1l6.61-11.44l13.2-0.01l-5.35,3.09c-0.05,0.03-0.1,0.07-0.13,0.11C379.76,474.72,379.71,474.89,379.76,475.06z
	 M369.89,489.76l18.86,18.86l4.14,15.45l3.11,11.59l-27.04-7.24l-18.86-18.86l7.25-12.56L369.89,489.76z M474.91,474.76
	c0-0.02-0.01-0.04-0.02-0.05c-0.02-0.03-0.03-0.06-0.05-0.09l-0.04-0.04c-0.01-0.01-0.02-0.02-0.03-0.03s-0.02-0.02-0.04-0.03
	c-0.01-0.01-0.02-0.02-0.04-0.03l-5.36-3.1l11.37,0.01h1.84l6.61,11.43l-5.35-3.09c-0.04-0.02-0.09-0.04-0.13-0.05
	c-0.04-0.01-0.09-0.02-0.13-0.02c-0.13,0-0.26,0.05-0.36,0.15l-8.47,8.47v0.01l-4.54,4.53l4.76-17.77c0.01-0.05,0.02-0.1,0.01-0.15
	v-0.05C474.93,474.82,474.92,474.79,474.91,474.76z M480.28,494.27C480.29,494.27,480.29,494.27,480.28,494.27l4.52-4.51l6.3,3.64
	l6.24,3.6l7.25,12.55l-5.77,5.76c0,0,0,0,0,0.01l-13.1,13.09l-27.03,7.24l1.15-4.27l6.1-22.76L480.28,494.27z M514.6,510.55
	l-3.1-5.37l11.46,6.62v13.24l-3.1-5.38c-0.03-0.04-0.06-0.08-0.09-0.11c-0.01-0.02-0.03-0.03-0.05-0.04
	c-0.02-0.02-0.03-0.03-0.05-0.04c-0.03-0.02-0.06-0.03-0.09-0.04c-0.01,0-0.02-0.01-0.03-0.01c-0.05-0.01-0.09-0.02-0.14-0.02h-0.03
	c-0.01,0-0.03,0.01-0.04,0.01c-0.02,0-0.04,0-0.06,0.01l-17.77,4.76l13.01-13.01C514.69,511,514.72,510.75,514.6,510.55z
	 M539.39,626.02c0,0.03,0.01,0.06,0.02,0.09c0.01,0.02,0.02,0.04,0.03,0.06c0.01,0.01,0.01,0.02,0.02,0.03
	c0.01,0.03,0.03,0.04,0.05,0.06c0,0.01,0.01,0.02,0.01,0.02l13.01,13.01l-17.78-4.76c-0.04-0.01-0.08-0.02-0.13-0.02
	c-0.18,0-0.35,0.1-0.44,0.26l-3.1,5.37v-13.23l11.47-6.62l-3.11,5.38c-0.03,0.04-0.04,0.09-0.05,0.14
	c-0.01,0.02-0.01,0.04-0.01,0.05c0,0.04-0.01,0.07,0,0.11C539.38,625.99,539.38,626,539.39,626.02z M531.13,617.44l0.01-22.64
	l3.99-6.91c0-0.01,0-0.01,0-0.01l7.33-12.7l6.38,11.07c0.03,0.04,0.05,0.07,0.08,0.1c0,0.01,0,0.01,0.01,0.01
	c0.02,0.03,0.05,0.05,0.09,0.07l0.01,0.01c0.02,0.01,0.04,0.02,0.06,0.03c0.06,0.02,0.13,0.04,0.2,0.04h12.78l-11.34,19.61
	l-2.1,1.22L531.13,617.44z M531.14,578.45v-6.19c0-0.05-0.01-0.11-0.03-0.16c-0.05-0.16-0.18-0.29-0.35-0.33l-11.57-3.1l-6.2-1.66
	l17.77-4.77c0.05-0.01,0.1-0.03,0.14-0.06c0.02-0.01,0.03-0.02,0.04-0.03c0.03-0.02,0.05-0.05,0.08-0.07
	c0.01-0.02,0.02-0.03,0.03-0.05c0.02-0.03,0.03-0.05,0.04-0.08c0.01-0.02,0.02-0.04,0.02-0.06c0.01-0.01,0.01-0.03,0.02-0.04v-0.06
	c0-0.01,0.01-0.03,0.01-0.04v-6.19l5.68,9.85l0.92,1.6L531.14,578.45z M471.43,682.44l6.39,11.06h-22.66l-2.09-1.22
	c-0.01,0-0.01,0-0.01,0l-17.56-10.13l19.67-11.36h22.65l-6.4,11.06c-0.05,0.1-0.07,0.21-0.06,0.31
	C471.36,682.26,471.38,682.35,471.43,682.44z M383.26,681.85l-6.4-11.07l22.66,0.01l2.1,1.21l17.57,10.14l-19.67,11.35l-22.65,0.01
	l6.39-11.07c0.06-0.09,0.08-0.2,0.06-0.31C383.33,682.03,383.31,681.93,383.26,681.85z M400.31,520.17l13.11,13.12l-1.76,6.57
	l-4.75-1.27l-1.8-0.48l-4.2-15.68v-0.01L400.31,520.17z M409.71,557.24c0.13-0.04,0.24-0.12,0.31-0.24
	c0.03-0.06,0.05-0.12,0.06-0.19s0.01-0.13-0.01-0.2l-2.52-9.39l9.4,2.52c0.04,0.01,0.09,0.01,0.13,0.01c0.09,0,0.18-0.02,0.26-0.07
	c0.06-0.03,0.11-0.07,0.15-0.13c0.04-0.05,0.07-0.11,0.08-0.18l2.53-9.41l6.89,6.89c0.09,0.1,0.23,0.15,0.36,0.15
	s0.26-0.05,0.36-0.15l6.87-6.88l2.52,9.4c0.02,0.06,0.05,0.12,0.09,0.18c0.04,0.05,0.09,0.1,0.15,0.13
	c0.04,0.02,0.08,0.04,0.12,0.05c0.05,0.01,0.09,0.02,0.13,0.02c0.05,0,0.09-0.01,0.14-0.02l9.41-2.52l-2.52,9.41
	c-0.04,0.13-0.02,0.27,0.05,0.38c0.06,0.12,0.17,0.21,0.31,0.24l9.39,2.52l-0.21,0.21l-6.66,6.67c-0.13,0.13-0.17,0.31-0.13,0.48
	c0.01,0.06,0.04,0.11,0.08,0.17c0.01,0.02,0.02,0.05,0.05,0.07l6.89,6.89l-9.41,2.52c-0.07,0.02-0.13,0.05-0.18,0.09
	c-0.11,0.08-0.18,0.2-0.2,0.34c-0.01,0.06,0,0.13,0.01,0.2l2.52,9.39l-9.39-2.52c-0.05-0.01-0.09-0.01-0.14-0.01
	c-0.08,0-0.17,0.02-0.25,0.06c-0.12,0.07-0.2,0.18-0.24,0.31l-2.52,9.42l-6.89-6.89c-0.05-0.05-0.11-0.09-0.17-0.11
	c-0.06-0.03-0.13-0.04-0.19-0.04c-0.13,0-0.26,0.05-0.36,0.15l-6.88,6.88l-0.08-0.29l-2.44-9.11c-0.06-0.23-0.26-0.38-0.49-0.38
	c-0.04,0-0.09,0.01-0.13,0.02l-9.41,2.52l2.52-9.41c0.02-0.07,0.02-0.14,0.01-0.2c-0.03-0.2-0.17-0.37-0.37-0.42l-9.4-2.52
	l6.88-6.88c0.1-0.09,0.15-0.22,0.15-0.36c0-0.07-0.01-0.13-0.04-0.2c-0.02-0.06-0.06-0.11-0.11-0.16l-6.89-6.89L409.71,557.24z
	 M422.54,530.85l4.8-17.92l2.71,10.12l2.09,7.81l-4.79,4.8L422.54,530.85z M441.25,533.3l11.48-11.47v-0.01l1.65-1.65l-4.8,17.92
	l-6.57,1.76l-1.27-4.75c0,0,0,0-0.01,0L441.25,533.3z M461.04,553.09l-6.55-1.76l1.76-6.56l17.92-4.8l-7.41,7.4L461.04,553.09z
	 M479.16,566.4h0.01l2.25,0.61l-10.85,2.9l-7.07,1.9l-4.81-4.81l3.48-3.48v-0.01l1.32-1.31L479.16,566.4z M461.06,580.92l1.71,1.71
	l11.4,11.41l-10.11-2.71c0-0.01-0.01,0-0.01-0.01l-7.81-2.09l-1.75-6.55L461.06,580.92z M458.61,629.62l6.07,22.68l0.83,3.09
	l-12.53,7.23l-14.5,0.01l-2.11-7.88c0,0,0,0,0-0.01l-4.79-17.88l3.55-13.26c0,0,0,0,0-0.01l3.69-13.76l3.13,3.13L458.61,629.62z
	 M427.35,621.07l-2.71-10.11l-2.1-7.81l4.8-4.8l4.09,4.09l0.72,0.72L427.35,621.07z M441.26,600.72l1.76-6.57l4.76,1.27l1.79,0.48
	l4.2,15.68l0.61,2.26l-7.94-7.95h-0.01L441.26,600.72z M403.21,602.98l1.89-7.07l6.57-1.76l1.28,4.76c0,0,0,0,0,0.01l0.48,1.79
	l-13.13,13.12L403.21,602.98z M415.87,609.82l1.34,4.98l5.91,22.06l-6.91,25.76h-14.5l-12.54-7.24l6.9-25.76L415.87,609.82z
	 M394.48,590.3l-13.96,3.74l13.12-13.12l0.17,0.05l6.38,1.71l-1.49,5.58l-0.27,0.98L394.48,590.3z M394.61,552.82l-0.98,0.27
	l-13.12-13.12l10.12,2.71l7.81,2.1l1.63,6.09l0.13,0.46L394.61,552.82z M396,567.01l-3.48,3.48c-0.01,0-0.01,0-0.01,0.01l-1.31,1.31
	l-15.68-4.2l-2.25-0.61l10.85-2.91l7.07-1.89L396,567.01z M384.53,578.48l-3.65,3.64c0,0.01,0,0.01,0,0.01l-16.14,16.14l-25.77,6.91
	l-7.25-12.57v-14.48l25.76-6.9l15.45,4.14L384.53,578.48z M331.73,608.97l3.1,5.38c0.02,0.04,0.05,0.08,0.08,0.11
	c0.02,0.01,0.03,0.02,0.05,0.04c0.02,0.01,0.04,0.03,0.06,0.04c0.02,0.01,0.04,0.02,0.06,0.03c0.02,0,0.04,0.01,0.06,0.02
	c0.04,0.01,0.08,0.02,0.12,0.02c0.01,0,0.01,0,0.01,0h0.03c0.02,0,0.03-0.01,0.05-0.01c0.02-0.01,0.04-0.01,0.05-0.01l17.78-4.76
	l-13.02,13.01c-0.16,0.17-0.19,0.42-0.08,0.62l3.11,5.37l-11.46-6.62V608.97z M331.77,631.67l19.6,11.32l3.99,6.92c0,0,0,0,0.01,0
	l7.33,12.7l-12.78-0.01c-0.18,0-0.35,0.1-0.44,0.26c-0.02,0.03-0.04,0.07-0.05,0.11l-6.34,10.99l-11.32-19.63V631.67z
	 M357.35,637.01l-7.25-12.55l18.86-18.86l27.03-7.24l-1.14,4.27l-6.1,22.76l-18.86,18.86L357.35,637.01z M370.89,654.27
	c0.02,0.01,0.04,0.01,0.06,0.02c0.06,0.03,0.13,0.05,0.19,0.05c0.07,0,0.14-0.02,0.2-0.04c0.06-0.03,0.12-0.06,0.17-0.11l0.22-0.23
	l12.79-12.79l-4.76,17.77c-0.02,0.06-0.02,0.11-0.02,0.16c0,0.02,0.01,0.03,0.01,0.05c0,0.03,0.01,0.07,0.02,0.1
	c0.01,0.02,0.02,0.04,0.03,0.05c0.01,0.03,0.03,0.06,0.05,0.08c0.01,0.02,0.02,0.04,0.04,0.05c0.01,0.01,0.01,0.02,0.02,0.03
	c0.02,0.01,0.03,0.01,0.04,0.02c0.02,0.01,0.03,0.03,0.04,0.04l5.37,3.09h-13.22l-6.61-11.44L370.89,654.27z M415.88,670.8h6.21
	c0.05,0,0.1-0.01,0.15-0.03c0.02,0,0.04-0.01,0.05-0.02c0.03-0.01,0.06-0.03,0.09-0.05c0.02-0.01,0.03-0.02,0.05-0.03
	c0.02-0.03,0.04-0.05,0.06-0.07c0.01-0.02,0.03-0.04,0.04-0.06c0-0.01,0.01-0.02,0.02-0.03c0.01-0.02,0.01-0.04,0.02-0.06
	c0-0.01,0.01-0.02,0.01-0.03l4.77-17.78l4.76,17.78c0.06,0.23,0.26,0.38,0.49,0.38h6.21l-11.46,6.61L415.88,670.8z M469.33,662.62
	l5.36-3.09c0.05-0.03,0.09-0.07,0.13-0.11c0.03-0.04,0.06-0.09,0.08-0.14c0.05-0.1,0.06-0.22,0.03-0.33l-3.11-11.57l-1.66-6.21
	l13.01,13.02c0.05,0.04,0.11,0.08,0.17,0.11c0.06,0.02,0.12,0.03,0.18,0.03h0.01c0.05,0,0.1,0,0.15-0.02c0.01,0,0.01,0,0.02,0
	c0.01-0.01,0.02-0.02,0.04-0.02c0.02-0.01,0.03-0.01,0.05-0.02l5.36-3.1l-6.61,11.44L469.33,662.62z M484.79,644.25l-18.86-18.86
	l-4.14-15.45l-3.1-11.6l4.97,1.34c0.01,0,0.01,0,0.01,0l22.05,5.91l18.87,18.86l-7.26,12.56L484.79,644.25z M503.31,642.99l2.1-1.21
	l17.5-10.11v22.64l-11.32,19.62l-6.39-11.07c-0.01-0.03-0.03-0.05-0.05-0.07c-0.01-0.01-0.02-0.03-0.03-0.04
	c-0.03-0.03-0.06-0.05-0.1-0.07c0,0,0-0.01-0.01-0.01c-0.02-0.01-0.05-0.02-0.07-0.03c-0.06-0.02-0.12-0.03-0.18-0.03h-12.78
	L503.31,642.99z M511.5,628.83l3.1-5.38c0.03-0.05,0.05-0.1,0.06-0.15v-0.05c0.01-0.03,0.01-0.07,0.01-0.1
	c0-0.02-0.01-0.04-0.01-0.06c-0.01-0.03-0.02-0.06-0.03-0.09c-0.01-0.02-0.02-0.04-0.03-0.05c0-0.02-0.01-0.03-0.01-0.04
	c-0.02-0.02-0.03-0.04-0.05-0.06c-0.01,0-0.01-0.01-0.02-0.02l-13.01-13.01l17.78,4.76c0.04,0.02,0.09,0.02,0.13,0.02
	c0.18,0,0.35-0.09,0.44-0.25l3.11-5.38l-0.01,13.24L511.5,628.83z M515.72,605.17l-7.87-2.11h-0.01l-15.38-4.12l-2.5-0.68
	l-19.79-19.78l27.03-7.24l19.6,5.25l6.17,1.65v14.47L515.72,605.17z M497.2,562.78l-15.44-4.14h-0.01l-11.59-3.11l3.64-3.65
	l16.15-16.14l25.77-6.91l7.24,12.57l0.01,14.47L497.2,562.78z M458.61,504.39l-19.8,19.8l-7.24-27.04l6.9-25.77l14.5,0.01
	l12.54,7.24L458.61,504.39z M432.59,463.21c-0.05,0-0.1,0.01-0.15,0.03c-0.02,0-0.03,0.01-0.05,0.02c-0.03,0.01-0.06,0.03-0.09,0.05
	c-0.01,0.01-0.03,0.02-0.04,0.03c-0.03,0.02-0.05,0.05-0.07,0.07c-0.01,0.02-0.02,0.04-0.03,0.05c-0.01,0.02-0.02,0.02-0.02,0.04
	c-0.01,0.02-0.02,0.04-0.02,0.06c-0.01,0.01-0.02,0.02-0.02,0.03l-4.76,17.78l-2.25-8.39l-2.52-9.39c-0.06-0.23-0.26-0.38-0.49-0.38
	h-6.2l11.46-6.62l0.3,0.17l11.17,6.45H432.59z M416.2,471.38l6.91,25.77l-3.56,13.26l-3.68,13.77l-19.79-19.79l-5.25-19.6
	c-0.01,0-0.01,0-0.01,0l-1.65-6.17l12.54-7.23L416.2,471.38z M338.96,528.84l7.88,2.11l10.85,2.91l7.04,1.88l19.78,19.79
	l-27.03,7.24l-25.76-6.9v-14.48L338.96,528.84z M315.24,625.68l-3.1-5.38l11.46,6.62v13.24l-3.11-5.38
	c-0.02-0.04-0.05-0.07-0.08-0.1c-0.01-0.02-0.03-0.02-0.04-0.04c-0.02-0.01-0.04-0.03-0.07-0.04c-0.01-0.01-0.03-0.02-0.05-0.03
	c-0.02-0.01-0.04-0.02-0.07-0.02c-0.04-0.01-0.08-0.02-0.12-0.02h-0.04c-0.02,0-0.03,0.01-0.05,0.01c-0.01,0-0.03,0-0.05,0.01
	l-17.78,4.76l13.02-13.02C315.32,626.13,315.36,625.88,315.24,625.68z M323.26,594.3l0.29,0.5v2.43l0.01,20.23l-19.61-11.32
	l-3.99-6.91l-7.34-12.7h12.78c0.18,0,0.35-0.09,0.44-0.25c0.02-0.04,0.04-0.08,0.05-0.12l6.34-10.98L323.26,594.3z M288.32,653.13
	l2.27-2.27l25.76-6.9l1.36,2.35l5.89,10.21V671l-12.19,3.26C303.37,667.85,295.66,660.78,288.32,653.13z M333.86,689.97
	c-0.7-0.41-1.39-0.84-2.08-1.27v-1.31c0-0.23-0.16-0.43-0.38-0.49l-4.15-1.11c-2.57-1.69-5.1-3.45-7.61-5.27l11.76-3.15
	c0.05-0.01,0.09-0.04,0.14-0.06l0.04-0.04c0.02-0.02,0.05-0.04,0.07-0.07c0.01-0.01,0.02-0.03,0.04-0.04
	c0.01-0.03,0.03-0.06,0.04-0.09c0.01-0.02,0.02-0.03,0.02-0.05c0-0.02,0.01-0.03,0.01-0.04c0.01-0.02,0.01-0.04,0.01-0.06v-6.23
	l0.61,1.06l5.07,8.79h0.01l0.92,1.59L333.86,689.97z M340.92,694.07l2.17-3.76l4.09,7.08C345.08,696.33,342.99,695.23,340.92,694.07
	z M361.42,703.9c-1.74-0.71-3.48-1.45-5.2-2.22h6.49L361.42,703.9z M354.37,693.51l-6.56-11.38l6.56-11.36l13.05,0.01l6.57,11.37
	l-6.56,11.35L354.37,693.51z M379.76,705.33l1.43,5.33c-4.05-1.12-8.06-2.39-12.03-3.81l2.99-5.18h13.2l-5.35,3.09
	C379.8,704.87,379.7,705.11,379.76,705.33z M390.25,712.92l-0.01-0.03l-1.07-3.99l12.54-7.24h14.49l4.06,15.16
	C410.09,716.41,400.07,715.09,390.25,712.92z M432.59,693.49c-0.05,0-0.1,0.01-0.15,0.02c-0.02,0.01-0.03,0.02-0.05,0.02
	c-0.03,0.02-0.06,0.03-0.09,0.05c-0.01,0.01-0.03,0.03-0.04,0.04c-0.03,0.02-0.05,0.04-0.07,0.07c-0.01,0.02-0.02,0.03-0.03,0.05
	c-0.01,0.01-0.02,0.02-0.02,0.03c-0.01,0.02-0.02,0.04-0.02,0.06c-0.01,0.01-0.02,0.02-0.02,0.04l-4.76,17.77l-2.25-8.38v-0.01
	l-2.52-9.39c-0.06-0.22-0.26-0.38-0.49-0.38l-6.2,0.01l11.46-6.62l3.92,2.26l7.55,4.36H432.59z M464.46,712.84
	c-9.89,2.2-19.92,3.53-30.04,3.96l4.05-15.14l14.5,0.01l12.54,7.23L464.46,712.84z M473.53,710.56l1.4-5.22
	c0.01-0.05,0.02-0.1,0.01-0.16v-0.05c-0.01-0.03-0.02-0.06-0.03-0.1c0-0.01-0.01-0.03-0.02-0.05c-0.02-0.03-0.03-0.05-0.05-0.08
	c-0.01-0.02-0.03-0.03-0.04-0.05c-0.01-0.01-0.02-0.02-0.03-0.03c-0.01-0.01-0.02-0.01-0.04-0.02c-0.01-0.01-0.02-0.02-0.04-0.03
	l-5.36-3.1h11.37l1.84,0.01l2.95,5.1C481.53,708.19,477.55,709.45,473.53,710.56z M493.23,703.83l-1.25-2.15h6.32
	C496.62,702.43,494.93,703.14,493.23,703.83z M500.29,693.51h-13.03l-6.57-11.37l6.57-11.36h13.08l6.53,11.33L500.29,693.51z
	 M507.54,697.31l4.05-7.03l2.16,3.75C511.69,695.16,509.62,696.26,507.54,697.31z M527.4,685.77l-4.11,1.1
	c-0.06,0.01-0.1,0.04-0.15,0.06c-0.01,0.01-0.02,0.03-0.04,0.04c-0.02,0.02-0.05,0.04-0.07,0.07c-0.01,0.01-0.02,0.03-0.03,0.04
	c-0.02,0.03-0.04,0.06-0.05,0.09c-0.01,0.02-0.01,0.04-0.02,0.06c0,0.01-0.01,0.02-0.01,0.03c-0.01,0.02,0,0.04-0.01,0.07v1.32
	c-0.69,0.43-1.39,0.86-2.09,1.28l-3.59-6.22c0-0.01,0-0.01,0-0.01l-0.93-1.59l6.6-11.44v6.18c0,0.12,0.04,0.23,0.11,0.31
	c0.07,0.09,0.16,0.16,0.27,0.19l2.41,0.64l9.34,2.5C532.51,682.32,529.97,684.08,527.4,685.77z M543.25,674.23l-12.17-3.26V656.5
	l7.24-12.56l25.77,6.91l2.24,2.24C558.95,660.8,551.24,667.86,543.25,674.23z M691.51,578.34c-2.56,3.54-5.33,7.03-8.29,10.46
	c-3.68,4.26-7.65,8.42-11.89,12.42c-3.49,3.31-7.18,6.5-11.03,9.55c-0.68,0.55-1.37,1.09-2.07,1.63
	c-7.61,5.87-15.44,10.87-23.26,14.93c-2.5,1.3-5,2.5-7.5,3.6c-0.58,0.26-1.16,0.52-1.75,0.75c-3.15,1.35-6.29,2.53-9.4,3.54
	c-1.33,0.43-2.65,0.83-3.96,1.19c-3.18,0.9-6.32,1.62-9.42,2.14c-0.77,0.14-1.53,0.26-2.3,0.36c-1.8,0.27-3.59,0.46-5.36,0.59
	c-0.98,0.07-1.95,0.12-2.9,0.15c-2.88,0.1-5.67-0.01-8.58-0.33l-4.72-0.53L576,642.4c-0.74,0.87-1.49,1.73-2.23,2.58l-5.45-1.46
	l-18.86-18.86l7.25-12.55l12.54-7.25l18.86,18.86l0.92,3.44l-0.57,0.91l0.76-0.19l11.64-2.97l9.23-2.35
	c3.46-0.88,6.98-2.02,10.53-3.38c3.59-1.38,7.22-3,10.86-4.85c7.74-3.93,15.55-8.89,23.19-14.77c2.88-2.21,5.67-4.51,8.36-6.89
	c2.15-1.89,4.24-3.83,6.26-5.82c0.12-0.11,0.24-0.23,0.35-0.35c4.81-4.74,9.22-9.71,13.15-14.8c4.67-6.03,8.67-12.25,11.85-18.47
	c8.6-16.84,10.24-31.89,4.6-42.4c-7.56-14.09-27.25-18.42-51.87-10.04l-4.74,1.62l-1.11,4.88c-4.71,20.72-11.08,40.5-19.05,59.17
	h-2.9c-0.01,0-0.02,0-0.03,0.01c-0.08,0-0.16,0.02-0.23,0.06l-20.43,11.79l-22.65,0.01h-9.44l-13.08,0.01l-6.54-11.33l-4.71-8.18
	l-11.33-19.62v-23.58c0-0.01,0-0.03-0.01-0.04c0-0.03,0-0.05-0.01-0.08c0-0.03-0.02-0.06-0.03-0.09c-0.01-0.01-0.01-0.03-0.02-0.04
	L523.93,503c-0.04-0.08-0.11-0.14-0.19-0.19l-20.42-11.8l-4-6.91l-7.34-12.7l-14.16-8.17l-22.66-0.01l-2.1-1.21l-18.31-10.57
	c-0.01-0.01-0.03-0.01-0.04-0.02c-0.02-0.01-0.05-0.02-0.08-0.03c-0.02-0.01-0.04-0.01-0.07-0.01c-0.02-0.01-0.04-0.01-0.07-0.01
	l-14.28-0.01c-0.09,0-0.18,0.02-0.26,0.06l-20.43,11.8h-22.65l-14.16,8.18l-11.34,19.62l-2.09,1.21c-0.01,0-0.01,0-0.01,0
	l-18.29,10.57c-0.05,0.02-0.09,0.05-0.13,0.09c-0.03,0.03-0.06,0.06-0.08,0.1l-7.15,12.37c-0.05,0.08-0.07,0.17-0.07,0.26v23.58
	l-3.99,6.92l-7.33,12.71l-4.72,8.17l-6.55,11.36H287.9v-0.01h-32.1l-2.1-1.21v-0.01l-18.32-10.57c-0.01,0-0.02-0.01-0.03-0.01
	c-0.03-0.01-0.05-0.03-0.08-0.03c-0.02-0.01-0.05-0.01-0.07-0.02c-0.02,0-0.05-0.01-0.07-0.01h-3.27
	c-15.39-35.79-25.21-76.23-27.82-119.33c-0.27-4.43,1.17-8.78,3.86-11.63c1.25-1.34,3.33-2.93,6.1-2.93h426.15
	c2.78,0,4.86,1.6,6.12,2.94c2.67,2.84,4.1,7.16,3.82,11.55c-0.54,8.67-1.39,17.49-2.53,26.23l-1.64,12.54l12.37-2.62
	c23.81-5.03,42.24,0.99,50.56,16.51c3.28,6.11,4.83,13.21,4.83,20.92C713.68,538.21,705.63,558.9,691.51,578.34z M579.12,590.16
	l3.1,11.58l1.66,6.2l-13.01-13.01c-0.05-0.05-0.1-0.09-0.17-0.11c-0.05-0.03-0.11-0.04-0.17-0.04c-0.01,0-0.01,0-0.02,0
	c-0.05,0-0.1,0.01-0.15,0.02c0,0.01-0.01,0.01-0.01,0.01c-0.02,0-0.03,0.01-0.04,0.02c-0.02,0-0.04,0.01-0.05,0.02l-5.37,3.09
	l5.69-9.84l0.93-1.6h13.2l-5.35,3.09C579.16,589.7,579.06,589.94,579.12,590.16z M613.09,586.49c-3.97,7.77-8.24,15.32-12.81,22.64
	l-5.33,8.54l-6.42-23.94l12.54-7.24H613.09z M628.59,595.55c2.9-5.63,5.66-11.38,8.25-17.23c0.1-0.2,0.19-0.4,0.28-0.61
	c1.11-2.5,2.19-5.03,3.23-7.57c7.11-17.13,12.93-35.11,17.45-53.82c12.8-3.47,22.99-1.97,25.65,2.98c1.99,3.7,1.93,12.67-4.77,25.78
	c-5.72,11.18-14.62,22.42-25.58,32.43c-2.97,2.72-6.1,5.35-9.36,7.86c-0.5,0.38-1,0.76-1.49,1.12c-1.87,1.41-3.69,2.71-5.47,3.91
	C633.93,592.34,631.2,594.04,628.59,595.55z M453.73,197.38c-3.78,4.69-7.66,8.93-12.45,13.15c-4.83,4.43-10.07,8.94-15.56,13.64
	c-10.76,9.55-22.76,20.41-31.77,35.42c-9.14,14.88-13.13,33.95-10.63,50.65c2.18,16.93,9.31,31.89,18.58,44.27
	c9.48,12.28,20.93,22.55,34.15,29.35c-15.75-24.58-26.01-51.25-24.59-75.01c0.77-11.82,4.42-21.86,11.05-30.86
	c6.6-9.11,16.14-17.65,26.83-26.89c20.6-17.41,49.59-45.42,45.92-84.57c-1.15-9.49-5.13-18.94-11.17-25.91
	c-5.99-7.04-13.18-11.8-20.07-15.23c-14-6.81-27.08-10.14-39.75-17.88c6.98,13.42,20.34,22.63,29.67,32.19
	c9.94,9.51,14.4,18.92,13.28,28.41C466.47,177.63,461.13,188.1,453.73,197.38z M357.69,364.04c-11.8-15.86-20.37-33.22-22.53-50.85
	c-2.15-17.6,3.31-34.4,14.82-47.25c11.9-13.3,28.12-26.24,39.56-43.63c5.69-8.6,10.73-18.92,10.47-30.36
	c-0.51-11.62-7.84-20.89-16.13-26.03c5.74,8.17,9.18,17.25,7.39,25.52c-1.59,8.28-6.96,15.59-12.83,22.46
	c-12.26,13.84-27.47,24.86-41.96,40.28c-7.02,8.32-12.66,18.25-15.37,29.09c-2.51,10.83-2.6,22.22,0.32,32.58
	C326.91,336.71,340.84,353.64,357.69,364.04z M471.07,278.75c-5.34,8.1-8.9,17.64-9.76,27.37c-0.76,9.71,0.47,19.4,3.83,28.08
	c6.43,17.42,18.83,31.49,33.77,40.21c-9.83-14.14-17.3-28.96-20.34-44.08c-3.08-15.13-0.54-29.79,7.43-41.71
	c8-11.95,21.55-22.47,33.2-35.7c5.86-6.59,11.28-14.26,14.4-23.06c3.04-8.83,3.08-18.52-0.11-26.59
	c-1.09,17.81-11.63,29.56-24.06,39.73C497.15,253.47,482.25,262.56,471.07,278.75z"/>
<polyline class="st1" points="1718.89,749.33 1718.89,755.07 1718.89,771.42 "/>
<line class="st1" x1="1707.56" y1="813.68" x2="1699.34" y2="827.91"/>
<line class="st1" x1="1668.41" y1="858.85" x2="1654.25" y2="867.03"/>
<line class="st1" x1="1611.93" y1="878.39" x2="1595.62" y2="878.38"/>
<line class="st1" x1="1553.29" y1="867.02" x2="1539.13" y2="858.85"/>
<line class="st1" x1="1508.2" y1="827.91" x2="1499.99" y2="813.7"/>
<polyline class="st1" points="1488.66,740.08 1488.66,755.07 1488.66,771.42 "/>
</svg>
