<?xml version="1.0" encoding="utf-8"?>
<!-- Generator: Adobe Illustrator 27.4.1, SVG Export Plug-In . SVG Version: 6.00 Build 0)  -->
<svg version="1.1" id="Layer_1" xmlns="http://www.w3.org/2000/svg" xmlns:xlink="http://www.w3.org/1999/xlink" x="0px" y="0px"
	 viewBox="0 0 1565.98 872.84" style="enable-background:new 0 0 1565.98 872.84;" xml:space="preserve">
<g>
	<g>
		<path d="M1031.81,334.49c-9.01-16.79-26.18-25.91-47.62-25.91c-2.17,0-4.39,0.09-6.65,0.28c0.51-4.93,0.91-9.84,1.21-14.72
			c0.55-8.77-2.4-17.28-8.09-23.34c-4.87-5.19-11.25-8.04-17.96-8.04H553.69c-6.69,0-13.06,2.86-17.93,8.02
			c-5.7,6.06-8.67,14.6-8.14,23.4c2.45,40.46,11.37,79.32,25.95,114.41c0.98,2.38,1.99,4.74,3.04,7.08
			c0.04,0.11,0.08,0.22,0.14,0.33c4.45,10,9.36,19.67,14.74,28.96c4.15,7.21,8.58,14.18,13.27,20.9c1.48,2.13,2.99,4.22,4.52,6.29
			c0.5,0.67,1,1.35,1.52,2.02c1.93,2.56,3.9,5.08,5.9,7.56c0.44,0.53,0.87,1.07,1.31,1.59c0.17,0.22,0.35,0.42,0.51,0.63
			c1.64,1.98,3.3,3.91,4.98,5.82c0.81,0.93,1.63,1.85,2.45,2.76c1.72,1.9,3.46,3.76,5.22,5.59c2.46,2.57,4.97,5.07,7.52,7.49
			c4.28,4.08,8.66,7.96,13.14,11.62c7.88,6.47,16.06,12.28,24.48,17.41c2.55,1.55,5.12,3.05,7.72,4.48
			c6.26,3.46,12.65,6.54,19.14,9.25c3.38,1.41,6.79,2.72,10.22,3.92c4.71,1.66,9.47,3.11,14.26,4.36
			c5.26,1.39,10.58,2.53,15.93,3.44c7.95,1.33,15.98,2.13,24.07,2.38c1.85,0.07,3.71,0.09,5.56,0.09c2.01,0,4.03-0.04,6.04-0.1
			c8.11-0.27,16.16-1.1,24.12-2.48c5.42-0.93,10.8-2.11,16.12-3.54c4.64-1.25,9.25-2.67,13.81-4.28c3.46-1.23,6.91-2.57,10.32-4
			c6.49-2.72,12.87-5.82,19.13-9.3c2.63-1.46,5.24-2.99,7.84-4.58c8.26-5.07,16.29-10.79,24.04-17.14
			c4.38-3.59,8.67-7.38,12.87-11.37c2.7-2.56,5.35-5.2,7.96-7.92c1.76-1.83,3.49-3.69,5.22-5.6c0.64-0.7,1.27-1.41,1.9-2.13
			c0.83,0.04,1.66,0.07,2.48,0.07c2.27,0.04,4.53-0.04,6.86-0.21c9.04-0.66,18.5-2.82,28.06-6.34c0.16-0.05,0.31-0.1,0.47-0.17
			c6.81-2.54,13.66-5.76,20.44-9.63c1.32-0.76,2.64-1.54,3.96-2.34c3.23-1.97,6.45-4.08,9.63-6.34c1.82-1.28,3.62-2.62,5.41-4
			c7.04-5.42,13.53-11.21,19.42-17.25c2.81-2.87,5.48-5.81,8-8.77C1035.94,401.43,1046.54,361.95,1031.81,334.49z M596.51,452.83
			c-6.24-9.19-12.01-18.95-17.28-29.19l11.54,0.01l11.74,6.77L596.51,452.83z M616.28,478.42c-4.88-5.53-9.56-11.36-14.03-17.45
			l0.66-2.45l13.44-13.44l4.23-4.23l11.73,6.78l6.79,11.75l-5.39,5.4c-0.01,0-0.01,0-0.01,0l-12.26,12.27L616.28,478.42z
			 M611.34,426.89c0-0.03-0.01-0.06-0.02-0.09c-0.01-0.01-0.02-0.03-0.03-0.05c-0.01-0.03-0.03-0.05-0.05-0.07
			c-0.01-0.02-0.02-0.03-0.04-0.05c0,0-0.01-0.02-0.02-0.03c-0.01-0.01-0.03-0.01-0.04-0.02c-0.02-0.01-0.03-0.02-0.04-0.03
			l-5.03-2.9l10.66,0.01h1.72l6.19,10.7l-5.02-2.89c-0.04-0.02-0.07-0.04-0.11-0.05c-0.04-0.01-0.08-0.02-0.12-0.02
			c-0.07,0-0.12,0.01-0.19,0.04c-0.06,0.02-0.1,0.06-0.15,0.1l-12.19,12.18l4.47-16.64c0.01-0.05,0.01-0.09,0.01-0.15
			C611.35,426.93,611.34,426.91,611.34,426.89z M656.61,400.92l10.84,2.9l5.81,1.55l-16.64,4.46c-0.05,0.02-0.09,0.04-0.14,0.07
			l-0.03,0.03c-0.03,0.02-0.06,0.04-0.07,0.07c-0.01,0.02-0.02,0.03-0.03,0.05c-0.02,0.02-0.04,0.05-0.05,0.07
			c-0.01,0.02-0.01,0.04-0.02,0.06c0,0.01-0.01,0.02-0.01,0.04c-0.01,0.02,0,0.04-0.01,0.06v5.83l-5.32-9.22l-0.86-1.5l6.17-10.71
			v5.8C656.25,400.68,656.4,400.86,656.61,400.92z M671.69,352.87c0,0.03,0.01,0.06,0.03,0.08c0,0.02,0.01,0.03,0.02,0.05
			c0.01,0.01,0.01,0.03,0.02,0.04c0.01,0.02,0.03,0.04,0.05,0.05c0,0.01,0.01,0.02,0.01,0.03L684,365.29l-7.86-2.11l-8.8-2.36
			c-0.04-0.01-0.07-0.01-0.12-0.01c-0.17,0-0.33,0.08-0.41,0.23l-2.9,5.04v-12.4l10.74-6.2l-2.91,5.04
			c-0.03,0.05-0.04,0.09-0.05,0.14c-0.01,0.01-0.01,0.03-0.01,0.05c0,0.03-0.01,0.06,0,0.09
			C671.68,352.83,671.68,352.85,671.69,352.87z M708.89,319.29l4.46,16.64l-12.18-12.18c-0.05-0.05-0.09-0.07-0.15-0.1
			c-0.06-0.02-0.11-0.03-0.17-0.03c-0.01,0-0.01-0.01-0.02-0.01c-0.05,0-0.09,0.01-0.14,0.03h-0.01c-0.02,0.01-0.03,0.02-0.04,0.02
			c-0.02,0.01-0.04,0.01-0.05,0.02l-5.02,2.9l6.19-10.71l12.36-0.01l-5.01,2.89c-0.05,0.03-0.09,0.07-0.12,0.1
			C708.89,318.97,708.84,319.13,708.89,319.29z M699.65,333.05l17.66,17.66l3.88,14.47l2.91,10.85l-25.32-6.78l-17.66-17.66
			l6.79-11.76L699.65,333.05z M797.98,319.01c0-0.02-0.01-0.04-0.02-0.05c-0.02-0.03-0.03-0.06-0.05-0.08l-0.04-0.04
			c-0.01-0.01-0.02-0.02-0.03-0.03c-0.01-0.01-0.02-0.02-0.04-0.03c-0.01-0.01-0.02-0.02-0.04-0.03l-5.02-2.9l10.65,0.01h1.72
			l6.19,10.7l-5.01-2.89c-0.04-0.02-0.08-0.04-0.12-0.05c-0.04-0.01-0.08-0.02-0.12-0.02c-0.12,0-0.24,0.05-0.34,0.14l-7.93,7.93
			v0.01l-4.25,4.24l4.46-16.64c0.01-0.05,0.02-0.09,0.01-0.14v-0.05C798,319.07,797.99,319.04,797.98,319.01z M803.01,337.28
			C803.02,337.28,803.02,337.28,803.01,337.28l4.23-4.22l5.9,3.41l5.84,3.37l6.79,11.75l-5.4,5.39c0,0,0,0,0,0.01l-12.27,12.26
			l-25.31,6.78l1.08-4l5.71-21.31L803.01,337.28z M835.15,352.52l-2.9-5.03l10.73,6.2v12.4l-2.9-5.04c-0.03-0.04-0.06-0.07-0.08-0.1
			c-0.01-0.02-0.03-0.03-0.05-0.04c-0.02-0.02-0.03-0.03-0.05-0.04c-0.03-0.02-0.06-0.03-0.08-0.04c-0.01,0-0.02-0.01-0.03-0.01
			c-0.05-0.01-0.08-0.02-0.13-0.02h-0.03c-0.01,0-0.03,0.01-0.04,0.01c-0.02,0-0.04,0-0.06,0.01l-16.64,4.46l12.18-12.18
			C835.23,352.94,835.26,352.71,835.15,352.52z M858.36,460.64c0,0.03,0.01,0.06,0.02,0.08c0.01,0.02,0.02,0.04,0.03,0.06
			c0.01,0.01,0.01,0.02,0.02,0.03c0.01,0.03,0.03,0.04,0.05,0.06c0,0.01,0.01,0.02,0.01,0.02l12.18,12.18l-16.65-4.46
			c-0.04-0.01-0.07-0.02-0.12-0.02c-0.17,0-0.33,0.09-0.41,0.24l-2.9,5.03v-12.39l10.74-6.2l-2.91,5.04
			c-0.03,0.04-0.04,0.08-0.05,0.13c-0.01,0.02-0.01,0.04-0.01,0.05c0,0.04-0.01,0.07,0,0.1
			C858.35,460.61,858.35,460.62,858.36,460.64z M850.62,452.6l0.01-21.2l3.74-6.47c0-0.01,0-0.01,0-0.01l6.86-11.89l5.97,10.37
			c0.03,0.04,0.05,0.07,0.07,0.09c0,0.01,0,0.01,0.01,0.01c0.02,0.03,0.05,0.05,0.08,0.07l0.01,0.01c0.02,0.01,0.04,0.02,0.06,0.03
			c0.06,0.02,0.12,0.04,0.19,0.04h11.97L868.98,442l-1.97,1.14L850.62,452.6z M850.63,416.1v-5.8c0-0.05-0.01-0.1-0.03-0.15
			c-0.05-0.15-0.17-0.27-0.33-0.31l-10.83-2.9l-5.81-1.55l16.64-4.47c0.05-0.01,0.09-0.03,0.13-0.06c0.02-0.01,0.03-0.02,0.04-0.03
			c0.03-0.02,0.05-0.05,0.07-0.07c0.01-0.02,0.02-0.03,0.03-0.05c0.02-0.03,0.03-0.05,0.04-0.07c0.01-0.02,0.02-0.04,0.02-0.06
			c0.01-0.01,0.01-0.03,0.02-0.04v-0.06c0-0.01,0.01-0.03,0.01-0.04v-5.8l5.32,9.22l0.86,1.5L850.63,416.1z M794.72,513.47
			l5.98,10.36h-21.22l-1.96-1.14c-0.01,0-0.01,0-0.01,0l-16.44-9.48l18.42-10.64h21.21l-5.99,10.36c-0.05,0.09-0.07,0.2-0.06,0.29
			C794.66,513.3,794.68,513.38,794.72,513.47z M712.17,512.91l-5.99-10.37l21.22,0.01l1.97,1.13l16.45,9.49l-18.42,10.63
			l-21.21,0.01l5.98-10.37c0.06-0.08,0.07-0.19,0.06-0.29C712.23,513.08,712.22,512.99,712.17,512.91z M728.13,361.53l12.28,12.28
			l-1.65,6.15l-4.45-1.19l-1.69-0.45l-3.93-14.68v-0.01L728.13,361.53z M736.93,396.24c0.12-0.04,0.22-0.11,0.29-0.22
			c0.03-0.06,0.05-0.11,0.06-0.18s0.01-0.12-0.01-0.19l-2.36-8.79l8.8,2.36c0.04,0.01,0.08,0.01,0.12,0.01
			c0.08,0,0.17-0.02,0.24-0.07c0.06-0.03,0.1-0.07,0.14-0.12c0.04-0.05,0.07-0.1,0.07-0.17l2.37-8.81l6.45,6.45
			c0.08,0.09,0.22,0.14,0.34,0.14c0.12,0,0.24-0.05,0.34-0.14l6.43-6.44l2.36,8.8c0.02,0.06,0.05,0.11,0.08,0.17
			c0.04,0.05,0.08,0.09,0.14,0.12c0.04,0.02,0.07,0.04,0.11,0.05c0.05,0.01,0.08,0.02,0.12,0.02c0.05,0,0.08-0.01,0.13-0.02
			l8.81-2.36l-2.36,8.81c-0.04,0.12-0.02,0.25,0.05,0.36c0.06,0.11,0.16,0.2,0.29,0.22l8.79,2.36l-0.2,0.2l-6.24,6.25
			c-0.12,0.12-0.16,0.29-0.12,0.45c0.01,0.06,0.04,0.1,0.07,0.16c0.01,0.02,0.02,0.05,0.05,0.07l6.45,6.45l-8.81,2.36
			c-0.07,0.02-0.12,0.05-0.17,0.08c-0.1,0.07-0.17,0.19-0.19,0.32c-0.01,0.06,0,0.12,0.01,0.19l2.36,8.79l-8.79-2.36
			c-0.05-0.01-0.08-0.01-0.13-0.01c-0.07,0-0.16,0.02-0.23,0.06c-0.11,0.07-0.19,0.17-0.22,0.29l-2.36,8.82l-6.45-6.45
			c-0.05-0.05-0.1-0.08-0.16-0.1c-0.06-0.03-0.12-0.04-0.18-0.04c-0.12,0-0.24,0.05-0.34,0.14l-6.44,6.44l-0.07-0.27l-2.28-8.53
			c-0.06-0.22-0.24-0.36-0.46-0.36c-0.04,0-0.08,0.01-0.12,0.02l-8.81,2.36l2.36-8.81c0.02-0.07,0.02-0.13,0.01-0.19
			c-0.03-0.19-0.16-0.35-0.35-0.39l-8.8-2.36l6.44-6.44c0.09-0.08,0.14-0.21,0.14-0.34c0-0.07-0.01-0.12-0.04-0.19
			c-0.02-0.06-0.06-0.1-0.1-0.15l-6.45-6.45L736.93,396.24z M748.95,371.53l4.49-16.78l2.54,9.48l1.96,7.31l-4.49,4.49
			L748.95,371.53z M766.47,373.82l10.75-10.74v-0.01l1.54-1.54l-4.49,16.78l-6.15,1.65l-1.19-4.45c0,0,0,0-0.01,0L766.47,373.82z
			 M785,392.35l-6.13-1.65l1.65-6.14l16.78-4.49l-6.94,6.93L785,392.35z M801.96,404.81L801.96,404.81l2.12,0.57l-10.16,2.72
			l-6.62,1.78l-4.5-4.5l3.26-3.26v-0.01l1.24-1.23L801.96,404.81z M785.02,418.41l1.6,1.6l10.67,10.68l-9.47-2.54
			c0-0.01-0.01,0-0.01-0.01l-7.31-1.96l-1.64-6.13L785.02,418.41z M782.72,464.01l5.68,21.24l0.78,2.89l-11.73,6.77l-13.58,0.01
			l-1.98-7.38c0,0,0,0,0-0.01l-4.48-16.74l3.32-12.42c0,0,0,0,0-0.01l3.46-12.88l2.93,2.93L782.72,464.01z M753.45,456l-2.54-9.47
			l-1.97-7.31l4.49-4.49l3.83,3.83l0.67,0.67L753.45,456z M766.48,436.95l1.65-6.15l4.46,1.19l1.68,0.45l3.93,14.68l0.57,2.12
			l-7.43-7.44h-0.01L766.48,436.95z M730.85,439.06l1.77-6.62l6.15-1.65l1.2,4.46c0,0,0,0,0,0.01l0.45,1.68l-12.29,12.28
			L730.85,439.06z M742.7,445.47l1.25,4.66l5.53,20.66l-6.47,24.12h-13.58l-11.74-6.78l6.46-24.12L742.7,445.47z M722.67,427.19
			l-13.07,3.5l12.28-12.28l0.16,0.05l5.97,1.6l-1.4,5.22l-0.25,0.92L722.67,427.19z M722.8,392.1l-0.92,0.25l-12.28-12.28l9.48,2.54
			l7.31,1.97l1.53,5.7l0.12,0.43L722.8,392.1z M724.1,405.39l-3.26,3.26c-0.01,0-0.01,0-0.01,0.01l-1.23,1.23l-14.68-3.93
			l-2.11-0.57l10.16-2.72l6.62-1.77L724.1,405.39z M713.36,416.12l-3.42,3.41c0,0.01,0,0.01,0,0.01l-15.11,15.11l-24.13,6.47
			l-6.79-11.77V415.8l24.12-6.46l14.47,3.88L713.36,416.12z M663.92,444.67l2.9,5.04c0.02,0.04,0.05,0.07,0.07,0.1
			c0.02,0.01,0.03,0.02,0.05,0.04c0.02,0.01,0.04,0.03,0.06,0.04c0.02,0.01,0.04,0.02,0.06,0.03c0.02,0,0.04,0.01,0.06,0.02
			c0.04,0.01,0.07,0.02,0.11,0.02c0.01,0,0.01,0,0.01,0h0.03c0.02,0,0.03-0.01,0.05-0.01c0.02-0.01,0.04-0.01,0.05-0.01l16.65-4.46
			l-12.19,12.18c-0.15,0.16-0.18,0.39-0.07,0.58l2.91,5.03l-10.73-6.2V444.67z M663.96,465.93l18.35,10.6l3.74,6.48c0,0,0,0,0.01,0
			l6.86,11.89l-11.97-0.01c-0.17,0-0.33,0.09-0.41,0.24c-0.02,0.03-0.04,0.07-0.05,0.1l-5.94,10.29l-10.6-18.38V465.93z
			 M687.91,470.93l-6.79-11.75l17.66-17.66l25.31-6.78l-1.07,4l-5.71,21.31l-17.66,17.66L687.91,470.93z M700.59,487.09
			c0.02,0.01,0.04,0.01,0.06,0.02c0.06,0.03,0.12,0.05,0.18,0.05c0.07,0,0.13-0.02,0.19-0.04c0.06-0.03,0.11-0.06,0.16-0.1
			l0.21-0.22l11.98-11.98l-4.46,16.64c-0.02,0.06-0.02,0.1-0.02,0.15c0,0.02,0.01,0.03,0.01,0.05c0,0.03,0.01,0.07,0.02,0.09
			c0.01,0.02,0.02,0.04,0.03,0.05c0.01,0.03,0.03,0.06,0.05,0.07c0.01,0.02,0.02,0.04,0.04,0.05c0.01,0.01,0.01,0.02,0.02,0.03
			c0.02,0.01,0.03,0.01,0.04,0.02c0.02,0.01,0.03,0.03,0.04,0.04l5.03,2.89h-12.38l-6.19-10.71L700.59,487.09z M742.71,502.57h5.81
			c0.05,0,0.09-0.01,0.14-0.03c0.02,0,0.04-0.01,0.05-0.02c0.03-0.01,0.06-0.03,0.08-0.05c0.02-0.01,0.03-0.02,0.05-0.03
			c0.02-0.03,0.04-0.05,0.06-0.07c0.01-0.02,0.03-0.04,0.04-0.06c0-0.01,0.01-0.02,0.02-0.03c0.01-0.02,0.01-0.04,0.02-0.06
			c0-0.01,0.01-0.02,0.01-0.03l4.47-16.65l4.46,16.65c0.06,0.22,0.24,0.36,0.46,0.36h5.81l-10.73,6.19L742.71,502.57z
			 M792.76,494.91l5.02-2.89c0.05-0.03,0.08-0.07,0.12-0.1c0.03-0.04,0.06-0.08,0.07-0.13c0.05-0.09,0.06-0.21,0.03-0.31
			l-2.91-10.83l-1.55-5.81l12.18,12.19c0.05,0.04,0.1,0.07,0.16,0.1c0.06,0.02,0.11,0.03,0.17,0.03h0.01c0.05,0,0.09,0,0.14-0.02
			c0.01,0,0.01,0,0.02,0c0.01-0.01,0.02-0.02,0.04-0.02c0.02-0.01,0.03-0.01,0.05-0.02l5.02-2.9l-6.19,10.71L792.76,494.91z
			 M807.23,477.71l-17.66-17.66l-3.88-14.47l-2.9-10.86l4.65,1.25c0.01,0,0.01,0,0.01,0l20.65,5.53l17.67,17.66l-6.8,11.76
			L807.23,477.71z M824.57,476.53l1.97-1.13l16.39-9.47v21.2l-10.6,18.37l-5.98-10.37c-0.01-0.03-0.03-0.05-0.05-0.07
			c-0.01-0.01-0.02-0.03-0.03-0.04c-0.03-0.03-0.06-0.05-0.09-0.07c0,0,0-0.01-0.01-0.01c-0.02-0.01-0.05-0.02-0.07-0.03
			c-0.06-0.02-0.11-0.03-0.17-0.03h-11.97L824.57,476.53z M832.24,463.27l2.9-5.04c0.03-0.05,0.05-0.09,0.06-0.14v-0.05
			c0.01-0.03,0.01-0.07,0.01-0.09c0-0.02-0.01-0.04-0.01-0.06c-0.01-0.03-0.02-0.06-0.03-0.08c-0.01-0.02-0.02-0.04-0.03-0.05
			c0-0.02-0.01-0.03-0.01-0.04c-0.02-0.02-0.03-0.04-0.05-0.06c-0.01,0-0.01-0.01-0.02-0.02l-12.18-12.18l16.65,4.46
			c0.04,0.02,0.08,0.02,0.12,0.02c0.17,0,0.33-0.08,0.41-0.23l2.91-5.04l-0.01,12.4L832.24,463.27z M836.19,441.12l-7.37-1.98h-0.01
			l-14.4-3.86l-2.34-0.64l-18.53-18.52l25.31-6.78l18.35,4.92l5.78,1.54v13.55L836.19,441.12z M818.85,401.42l-14.46-3.88h-0.01
			l-10.85-2.91l3.41-3.42l15.12-15.11l24.13-6.47l6.78,11.77l0.01,13.55L818.85,401.42z M782.72,346.75l-18.54,18.54l-6.78-25.32
			l6.46-24.13l13.58,0.01l11.74,6.78L782.72,346.75z M758.36,308.19c-0.05,0-0.09,0.01-0.14,0.03c-0.02,0-0.03,0.01-0.05,0.02
			c-0.03,0.01-0.06,0.03-0.08,0.05c-0.01,0.01-0.03,0.02-0.04,0.03c-0.03,0.02-0.05,0.05-0.07,0.07c-0.01,0.02-0.02,0.04-0.03,0.05
			c-0.01,0.02-0.02,0.02-0.02,0.04c-0.01,0.02-0.02,0.04-0.02,0.06c-0.01,0.01-0.02,0.02-0.02,0.03l-4.46,16.65l-2.11-7.86
			l-2.36-8.79c-0.06-0.22-0.24-0.36-0.46-0.36h-5.81l10.73-6.2l0.28,0.16l10.46,6.04H758.36z M743.01,315.84l6.47,24.13l-3.33,12.42
			l-3.45,12.89l-18.53-18.53l-4.92-18.35c-0.01,0-0.01,0-0.01,0l-1.54-5.78l11.74-6.77L743.01,315.84z M670.69,369.65l7.38,1.98
			l10.16,2.72l6.59,1.76l18.52,18.53l-25.31,6.78l-24.12-6.46V381.4L670.69,369.65z M648.48,460.32l-2.9-5.04l10.73,6.2v12.4
			l-2.91-5.04c-0.02-0.04-0.05-0.07-0.07-0.09c-0.01-0.02-0.03-0.02-0.04-0.04c-0.02-0.01-0.04-0.03-0.07-0.04
			c-0.01-0.01-0.03-0.02-0.05-0.03c-0.02-0.01-0.04-0.02-0.07-0.02c-0.04-0.01-0.07-0.02-0.11-0.02h-0.04
			c-0.02,0-0.03,0.01-0.05,0.01c-0.01,0-0.03,0-0.05,0.01l-16.65,4.46l12.19-12.19C648.55,460.74,648.59,460.51,648.48,460.32z
			 M655.99,430.94l0.27,0.47v2.28l0.01,18.94l-18.36-10.6l-3.74-6.47l-6.87-11.89h11.97c0.17,0,0.33-0.08,0.41-0.23
			c0.02-0.04,0.04-0.07,0.05-0.11l5.94-10.28L655.99,430.94z M623.27,486.02l2.13-2.13l24.12-6.46l1.27,2.2l5.51,9.56v13.56
			l-11.41,3.05C637.37,499.8,630.15,493.18,623.27,486.02z M665.91,520.52c-0.66-0.38-1.3-0.79-1.95-1.19v-1.23
			c0-0.22-0.15-0.4-0.36-0.46l-3.89-1.04c-2.41-1.58-4.78-3.23-7.13-4.93l11.01-2.95c0.05-0.01,0.08-0.04,0.13-0.06l0.04-0.04
			c0.02-0.02,0.05-0.04,0.07-0.07c0.01-0.01,0.02-0.03,0.04-0.04c0.01-0.03,0.03-0.06,0.04-0.08c0.01-0.02,0.02-0.03,0.02-0.05
			c0-0.02,0.01-0.03,0.01-0.04c0.01-0.02,0.01-0.04,0.01-0.06v-5.83l0.57,0.99l4.75,8.23h0.01l0.86,1.49L665.91,520.52z
			 M672.52,524.35l2.03-3.52l3.83,6.63C676.42,526.47,674.46,525.44,672.52,524.35z M691.72,533.56c-1.63-0.66-3.26-1.36-4.87-2.08
			h6.08L691.72,533.56z M685.12,523.83l-6.14-10.66l6.14-10.64l12.22,0.01l6.15,10.65l-6.14,10.63L685.12,523.83z M708.89,534.9
			l1.34,4.99c-3.79-1.05-7.55-2.24-11.26-3.57l2.8-4.85h12.36l-5.01,2.89C708.93,534.47,708.84,534.69,708.89,534.9z M718.71,542
			l-0.01-0.03l-1-3.74l11.74-6.78h13.57l3.8,14.19C737.29,545.27,727.91,544.04,718.71,542z M758.36,523.81
			c-0.05,0-0.09,0.01-0.14,0.02c-0.02,0.01-0.03,0.02-0.05,0.02c-0.03,0.02-0.06,0.03-0.08,0.05c-0.01,0.01-0.03,0.03-0.04,0.04
			c-0.03,0.02-0.05,0.04-0.07,0.07c-0.01,0.02-0.02,0.03-0.03,0.05c-0.01,0.01-0.02,0.02-0.02,0.03c-0.01,0.02-0.02,0.04-0.02,0.06
			c-0.01,0.01-0.02,0.02-0.02,0.04l-4.46,16.64l-2.11-7.85v-0.01l-2.36-8.79c-0.06-0.21-0.24-0.36-0.46-0.36l-5.81,0.01l10.73-6.2
			l3.67,2.12l7.07,4.08H758.36z M788.2,541.93c-9.26,2.06-18.65,3.31-28.13,3.71l3.79-14.18l13.58,0.01l11.74,6.77L788.2,541.93z
			 M796.69,539.79l1.31-4.89c0.01-0.05,0.02-0.09,0.01-0.15v-0.05c-0.01-0.03-0.02-0.06-0.03-0.09c0-0.01-0.01-0.03-0.02-0.05
			c-0.02-0.03-0.03-0.05-0.05-0.07c-0.01-0.02-0.03-0.03-0.04-0.05c-0.01-0.01-0.02-0.02-0.03-0.03c-0.01-0.01-0.02-0.01-0.04-0.02
			c-0.01-0.01-0.02-0.02-0.04-0.03l-5.02-2.9h10.65l1.72,0.01l2.76,4.78C804.18,537.58,800.46,538.76,796.69,539.79z M815.14,533.49
			l-1.17-2.01h5.92C818.31,532.18,816.73,532.85,815.14,533.49z M821.75,523.83h-12.2l-6.15-10.65l6.15-10.64h12.25l6.11,10.61
			L821.75,523.83z M828.54,527.39l3.79-6.58l2.02,3.51C832.42,525.38,830.48,526.41,828.54,527.39z M847.13,516.58l-3.85,1.03
			c-0.06,0.01-0.09,0.04-0.14,0.06c-0.01,0.01-0.02,0.03-0.04,0.04c-0.02,0.02-0.05,0.04-0.07,0.07c-0.01,0.01-0.02,0.03-0.03,0.04
			c-0.02,0.03-0.04,0.06-0.05,0.08c-0.01,0.02-0.01,0.04-0.02,0.06c0,0.01-0.01,0.02-0.01,0.03c-0.01,0.02,0,0.04-0.01,0.07v1.24
			c-0.65,0.4-1.3,0.81-1.96,1.2l-3.36-5.82c0-0.01,0-0.01,0-0.01l-0.87-1.49l6.18-10.71v5.79c0,0.11,0.04,0.22,0.1,0.29
			c0.07,0.08,0.15,0.15,0.25,0.18l2.26,0.6l8.75,2.34C851.92,513.35,849.54,515,847.13,516.58z M861.97,505.78l-11.4-3.05v-13.55
			l6.78-11.76l24.13,6.47l2.1,2.1C876.67,493.2,869.45,499.81,861.97,505.78z M1000.79,415.99c-2.4,3.31-4.99,6.58-7.76,9.79
			c-3.45,3.99-7.16,7.88-11.13,11.63c-3.27,3.1-6.72,6.09-10.33,8.94c-0.64,0.52-1.28,1.02-1.94,1.53
			c-7.13,5.5-14.46,10.18-21.78,13.98c-2.34,1.22-4.68,2.34-7.02,3.37c-0.54,0.24-1.09,0.49-1.64,0.7c-2.95,1.26-5.89,2.37-8.8,3.31
			c-1.25,0.4-2.48,0.78-3.71,1.11c-2.98,0.84-5.92,1.52-8.82,2c-0.72,0.13-1.43,0.24-2.15,0.34c-1.69,0.25-3.36,0.43-5.02,0.55
			c-0.92,0.07-1.83,0.11-2.72,0.14c-2.7,0.09-5.31-0.01-8.03-0.31l-4.42-0.5l-2.88,3.38c-0.69,0.81-1.4,1.62-2.09,2.42l-5.1-1.37
			l-17.66-17.66l6.79-11.75l11.74-6.79l17.66,17.66l0.86,3.22l-0.53,0.85l0.71-0.18l10.9-2.78l8.64-2.2
			c3.24-0.82,6.54-1.89,9.86-3.16c3.36-1.29,6.76-2.81,10.17-4.54c7.25-3.68,14.56-8.32,21.71-13.83c2.7-2.07,5.31-4.22,7.83-6.45
			c2.01-1.77,3.97-3.59,5.86-5.45c0.11-0.1,0.22-0.22,0.33-0.33c4.5-4.44,8.63-9.09,12.31-13.86c4.37-5.65,8.12-11.47,11.1-17.29
			c8.05-15.77,9.59-29.86,4.31-39.7c-7.08-13.19-25.51-17.25-48.57-9.4l-4.44,1.52l-1.04,4.57c-4.41,19.4-10.37,37.92-17.84,55.4
			h-2.72c-0.01,0-0.02,0-0.03,0.01c-0.07,0-0.15,0.02-0.22,0.06l-19.13,11.04l-21.21,0.01h-8.84l-12.25,0.01l-6.12-10.61l-4.41-7.66
			l-10.61-18.37v-22.08c0-0.01,0-0.03-0.01-0.04c0-0.03,0-0.05-0.01-0.07c0-0.03-0.02-0.06-0.03-0.08
			c-0.01-0.01-0.01-0.03-0.02-0.04l-6.68-11.59c-0.04-0.07-0.1-0.13-0.18-0.18l-19.12-11.05l-3.75-6.47l-6.87-11.89l-13.26-7.65
			l-21.22-0.01l-1.97-1.13l-17.14-9.9c-0.01-0.01-0.03-0.01-0.04-0.02c-0.02-0.01-0.05-0.02-0.07-0.03
			c-0.02-0.01-0.04-0.01-0.07-0.01c-0.02-0.01-0.04-0.01-0.07-0.01l-13.37-0.01c-0.08,0-0.17,0.02-0.24,0.06l-19.13,11.05h-21.21
			l-13.26,7.66l-10.62,18.37l-1.96,1.13c-0.01,0-0.01,0-0.01,0l-17.13,9.9c-0.05,0.02-0.08,0.05-0.12,0.08
			c-0.03,0.03-0.06,0.06-0.07,0.09l-6.69,11.58c-0.05,0.07-0.07,0.16-0.07,0.24v22.08l-3.74,6.48l-6.86,11.9l-4.42,7.65l-6.13,10.64
			h-12.23V416h-30.06l-1.97-1.13v-0.01l-17.15-9.9c-0.01,0-0.02-0.01-0.03-0.01c-0.03-0.01-0.05-0.03-0.07-0.03
			c-0.02-0.01-0.05-0.01-0.07-0.02c-0.02,0-0.05-0.01-0.07-0.01h-3.06c-14.41-33.51-23.6-71.38-26.05-111.73
			c-0.25-4.15,1.1-8.22,3.61-10.89c1.17-1.25,3.12-2.74,5.71-2.74H952.7c2.6,0,4.55,1.5,5.73,2.75c2.5,2.66,3.84,6.7,3.58,10.81
			c-0.51,8.12-1.3,16.38-2.37,24.56l-1.54,11.74l11.58-2.45c22.29-4.71,39.55,0.93,47.34,15.46c3.07,5.72,4.52,12.37,4.52,19.59
			C1021.55,378.42,1014.01,397.79,1000.79,415.99z M895.56,427.06l2.9,10.84l1.55,5.81l-12.18-12.18c-0.05-0.05-0.09-0.08-0.16-0.1
			c-0.05-0.03-0.1-0.04-0.16-0.04c-0.01,0-0.01,0-0.02,0c-0.05,0-0.09,0.01-0.14,0.02c0,0.01-0.01,0.01-0.01,0.01
			c-0.02,0-0.03,0.01-0.04,0.02c-0.02,0-0.04,0.01-0.05,0.02l-5.03,2.89l5.33-9.21l0.87-1.5h12.36l-5.01,2.89
			C895.6,426.63,895.5,426.86,895.56,427.06z M927.36,423.62c-3.72,7.28-7.72,14.34-11.99,21.2l-4.99,8l-6.01-22.42l11.74-6.78
			H927.36z M941.88,432.11c2.72-5.27,5.3-10.66,7.72-16.13c0.09-0.19,0.18-0.37,0.26-0.57c1.04-2.34,2.05-4.71,3.02-7.09
			c6.66-16.04,12.11-32.87,16.34-50.39c11.98-3.25,21.53-1.84,24.02,2.79c1.86,3.46,1.81,11.86-4.47,24.14
			c-5.36,10.47-13.69,20.99-23.95,30.37c-2.78,2.55-5.71,5.01-8.76,7.36c-0.47,0.36-0.94,0.71-1.4,1.05
			c-1.75,1.32-3.46,2.54-5.12,3.66C946.88,429.1,944.32,430.69,941.88,432.11z"/>
		<path d="M779.65,122.15c-2.45,3.04-4.96,5.78-8.06,8.51c-3.12,2.87-6.51,5.78-10.07,8.83c-6.97,6.18-14.73,13.21-20.56,22.92
			c-5.91,9.63-8.5,21.97-6.88,32.78c1.41,10.95,6.02,20.63,12.02,28.64c6.14,7.95,13.54,14.59,22.1,18.99
			c-10.19-15.91-16.83-33.16-15.91-48.54c0.5-7.65,2.86-14.14,7.15-19.97c4.27-5.9,10.45-11.42,17.36-17.4
			c13.33-11.27,32.09-29.39,29.72-54.72c-0.74-6.14-3.32-12.26-7.23-16.76c-3.88-4.56-8.53-7.63-12.98-9.86
			c-9.06-4.41-17.53-6.56-25.72-11.57c4.52,8.68,13.16,14.64,19.2,20.83c6.43,6.15,9.32,12.24,8.59,18.38
			C787.89,109.37,784.43,116.14,779.65,122.15z"/>
		<path d="M717.5,229.99c-7.63-10.27-13.18-21.5-14.58-32.9c-1.39-11.39,2.14-22.26,9.59-30.57c7.7-8.61,18.2-16.98,25.6-28.23
			c3.68-5.57,6.94-12.24,6.78-19.65c-0.33-7.52-5.07-13.51-10.43-16.85c3.71,5.29,5.94,11.16,4.78,16.51
			c-1.03,5.36-4.5,10.09-8.3,14.53c-7.93,8.96-17.77,16.09-27.15,26.06c-4.54,5.38-8.19,11.81-9.95,18.82
			c-1.63,7.01-1.68,14.38,0.21,21.08C697.59,212.3,706.6,223.26,717.5,229.99z"/>
		<path d="M790.87,174.8c-3.46,5.24-5.76,11.41-6.32,17.71c-0.49,6.28,0.3,12.56,2.48,18.17c4.16,11.27,12.18,20.38,21.85,26.02
			c-6.36-9.15-11.19-18.74-13.16-28.52c-1.99-9.79-0.35-19.28,4.81-26.99c5.18-7.73,13.95-14.54,21.48-23.1
			c3.79-4.26,7.3-9.23,9.32-14.92c1.97-5.71,1.99-11.98-0.07-17.21c-0.71,11.52-7.52,19.13-15.57,25.71
			C807.74,158.44,798.1,164.32,790.87,174.8z"/>
	</g>
	<g>
		<g>
			<path d="M144.99,734.33v-3.95c2.37-1.19,4.81-3.46,7.31-6.82c2.5-3.36,4.94-7.18,7.31-11.46c2.37-4.28,4.54-8.66,6.52-13.14
				c1.98-4.48,3.62-8.43,4.94-11.86l33.99-91.11h29.05l27.66,74.15c2.24,6.07,4.81,12.49,7.71,19.28c2.9,6.79,5.99,13.12,9.29,18.98
				c3.29,5.87,6.72,10.84,10.28,14.93c3.56,4.09,7.11,6.46,10.67,7.12v3.9h-75.68v-3.95c2.11-0.79,3.66-2.4,4.64-4.84
				c0.99-2.44,1.55-5.46,1.68-9.08c0.13-3.62-0.1-7.7-0.69-12.24c-0.59-4.54-1.42-9.31-2.47-14.32h-46.44
				c-0.66,5.27-0.92,10.38-0.79,15.32s0.86,9.26,2.17,12.95c1.32,3.69,3.32,6.66,6.03,8.9c2.7,2.24,6.36,3.36,10.97,3.36v3.9H144.99
				z M226,685.03c-0.92-3.43-1.91-6.83-2.96-10.2c-1.05-3.36-2.11-6.56-3.16-9.6l-17.78-47.51l-12.64,34.25
				c-1.32,3.43-2.73,8.12-4.25,14.05c-1.52,5.94-2.8,12.28-3.85,19.01H226z"/>
			<path d="M316.49,734.33v-3.95c2.24-1.45,4.28-5.04,6.12-10.77c1.85-5.73,2.77-14.4,2.77-25.99V644.6
				c0-11.59-0.92-21.08-2.77-28.46c-1.85-7.38-3.89-12.78-6.12-16.21v-3.95h59.45c9.74,0,18.66,0.86,26.76,2.57
				c8.1,1.71,15.11,4.09,21.03,7.12c5.93,3.03,10.53,6.72,13.82,11.07c3.29,4.35,5,9.16,5.14,14.43c0.13,3.82-0.69,7.25-2.47,10.28
				c-1.78,3.03-4.18,5.73-7.2,8.11c-3.03,2.37-6.58,4.45-10.65,6.23c-4.08,1.78-8.42,3.26-13.02,4.45
				c3.02,5.8,6.18,12.12,9.47,18.97c3.29,6.85,6.8,13.54,10.55,20.06c3.75,6.52,7.83,12.55,12.24,18.09
				c4.41,5.54,9.31,9.88,14.72,13.04v3.95h-67.89v-3.95c2.1-1.97,3.39-4.61,3.85-7.9c0.46-3.29,0.39-6.98-0.2-11.07
				c-0.59-4.08-1.54-8.4-2.86-12.94c-1.32-4.54-2.8-8.92-4.44-13.14c-1.64-4.21-3.32-8.13-5.03-11.76
				c-1.71-3.62-3.16-6.55-4.34-8.79c-2.24,0.13-4.41,0.17-6.51,0.1c-2.1-0.07-4.08-0.16-5.92-0.3v29.04
				c0,11.59,0.92,20.25,2.77,25.98c1.85,5.73,3.89,9.32,6.13,10.77v3.95H316.49z M362.99,659.14c4.46,0.79,9.05,1.05,13.77,0.79
				c4.72-0.26,9.02-1.18,12.89-2.76s7.05-3.89,9.55-6.91c2.49-3.03,3.74-6.98,3.74-11.86c0-5.01-1.02-9.78-3.05-14.32
				s-4.66-8.53-7.87-11.95c-3.22-3.43-6.89-6.16-11.02-8.2c-4.13-2.04-8.36-3.06-12.69-3.06h-5.31V659.14z"/>
			<path d="M473.11,734.33v-3.95c2.37-1.19,4.81-3.46,7.31-6.82c2.5-3.36,4.94-7.18,7.31-11.46c2.37-4.28,4.54-8.66,6.52-13.14
				c1.98-4.48,3.62-8.43,4.94-11.86l33.99-91.11h29.05l27.66,74.15c2.24,6.07,4.81,12.49,7.71,19.28c2.9,6.79,5.99,13.12,9.29,18.98
				c3.29,5.87,6.72,10.84,10.28,14.93c3.56,4.09,7.11,6.46,10.67,7.12v3.9h-75.68v-3.95c2.11-0.79,3.66-2.4,4.64-4.84
				c0.99-2.44,1.55-5.46,1.68-9.08c0.13-3.62-0.1-7.7-0.69-12.24c-0.59-4.54-1.42-9.31-2.47-14.32h-46.44
				c-0.66,5.27-0.92,10.38-0.79,15.32c0.13,4.94,0.86,9.26,2.17,12.95c1.32,3.69,3.32,6.66,6.03,8.9c2.7,2.24,6.36,3.36,10.97,3.36
				v3.9H473.11z M554.12,685.03c-0.92-3.43-1.91-6.83-2.96-10.2c-1.05-3.36-2.11-6.56-3.16-9.6l-17.78-47.51l-12.64,34.25
				c-1.32,3.43-2.73,8.12-4.25,14.05c-1.52,5.94-2.8,12.28-3.85,19.01H554.12z"/>
			<path d="M653.49,693.62V644.6c0-11.59-0.92-21.08-2.77-28.46c-1.85-7.38-3.89-12.78-6.12-16.21v-3.95h59.48
				c9.75,0,18.44,0.93,26.08,2.77c7.64,1.85,14.13,4.32,19.46,7.42c5.33,3.1,9.42,6.63,12.25,10.59c2.83,3.96,4.25,8.11,4.25,12.47
				c0,5.02-1.16,9.3-3.46,12.87c-2.31,3.56-5.25,6.5-8.81,8.81c-3.56,2.31-7.52,4.09-11.88,5.35c-4.36,1.25-8.58,2.01-12.67,2.27
				c5.28,0,10.88,0.72,16.82,2.17c5.94,1.45,11.38,3.65,16.33,6.61c4.95,2.96,9.07,6.71,12.37,11.25c3.3,4.54,4.95,9.97,4.95,16.28
				c-0.13,13.95-5.7,24.02-16.7,30.2c-11,6.19-27.63,9.28-49.9,9.28H644.6v-3.95c2.24-1.45,4.28-5.04,6.12-10.77
				C652.57,713.88,653.49,705.21,653.49,693.62z M691.1,620.48v37.47h15.95c2.76,0,5.45-0.36,8.07-1.09
				c2.62-0.72,4.98-1.88,7.09-3.47c2.1-1.59,3.77-3.67,5.02-6.24c1.25-2.58,1.87-5.71,1.87-9.42c0-5.02-0.62-9.75-1.87-14.18
				c-1.25-4.43-2.99-8.32-5.22-11.69c-2.23-3.37-4.82-6.05-7.78-8.03s-6.14-2.97-9.55-2.97c-2.5,0-4.63,0.6-6.4,1.78
				c-1.77,1.19-3.18,2.74-4.23,4.66c-1.05,1.92-1.81,4.03-2.27,6.35C691.33,615.95,691.1,618.23,691.1,620.48z M691.1,662.82v22.94
				c0,6.46,0.85,12.36,2.56,17.7c1.71,5.34,3.94,9.92,6.7,13.74c2.76,3.82,5.91,6.82,9.46,9c3.55,2.17,7.16,3.26,10.85,3.26
				c3.68,0,6.77-0.72,9.27-2.17c2.5-1.45,4.54-3.39,6.11-5.83c1.58-2.44,2.73-5.24,3.45-8.41c0.72-3.16,1.08-6.39,1.08-9.69
				c0-14.11-3.85-24.39-11.54-30.85c-7.69-6.46-18.37-9.69-32.04-9.69H691.1z"/>
			<path d="M805.44,693.62V644.6c0-11.59-0.92-21.08-2.77-28.46c-1.85-7.38-3.89-12.78-6.12-16.21v-3.95h101.63l4.74,30.36h-3.95
				c-1.98-3.16-4.71-6.29-8.2-9.39c-3.49-3.09-7.48-5.83-11.96-8.2c-4.48-2.37-9.19-4.28-14.13-5.73
				c-4.94-1.45-9.91-2.17-14.92-2.17h-6.72v61.58h4.35c8.3,0,14.72-0.26,19.27-0.79c4.55-0.53,8-1.35,10.38-2.47
				c2.37-1.12,3.99-2.47,4.84-4.05c0.86-1.58,1.61-3.43,2.27-5.53h3.9v30.56h-3.95c-0.66-2.11-1.42-3.95-2.27-5.53
				c-0.86-1.58-2.47-2.93-4.84-4.05c-2.37-1.12-5.82-1.94-10.36-2.47c-4.54-0.53-10.96-0.79-19.25-0.79h-4.34v62.16h10.67
				c5.01,0,9.98-0.72,14.92-2.17c4.94-1.45,9.65-3.36,14.13-5.73c4.48-2.37,8.46-5.1,11.96-8.2c3.49-3.09,6.22-6.22,8.2-9.39h3.95
				l-4.74,30.36H796.55v-3.95c2.24-1.45,4.28-5.04,6.12-10.77C804.52,713.88,805.44,705.21,805.44,693.62z"/>
			<path d="M979.02,599.29c-4.35,0-8.14,1.25-11.36,3.76c-3.23,2.5-4.84,5.6-4.84,9.29c0,5.27,1.98,10.11,5.93,14.53
				s8.9,8.67,14.83,12.75c5.93,4.09,12.36,8.17,19.28,12.26c6.92,4.09,13.35,8.37,19.28,12.85c5.93,4.48,10.88,9.32,14.83,14.53
				c3.96,5.21,5.93,10.97,5.93,17.3c0,8.3-1.75,15.06-5.24,20.26c-3.5,5.21-8.07,9.26-13.74,12.15s-12.16,4.88-19.48,5.93
				c-7.32,1.05-14.87,1.58-22.64,1.58c-5.14,0-11.08-0.72-17.8-2.17c-6.73-1.45-13.06-3.78-18.99-7
				c-5.93-3.22-10.98-7.43-15.13-12.63c-4.15-5.19-6.23-11.54-6.23-19.04c0-3.55,0.66-6.71,1.97-9.47c1.32-2.76,2.99-5.1,5.03-7.01
				c2.04-1.91,4.41-3.32,7.1-4.24c2.7-0.92,5.43-1.38,8.19-1.38c4.87,0,9.34,1.54,13.42,4.63c4.08,3.08,6.52,7.84,7.31,14.27
				c-4.09-0.26-7.15,0.76-9.19,3.07c-2.04,2.31-3.06,5.44-3.06,9.4c0,3.69,0.79,7.16,2.37,10.39c1.58,3.23,3.7,6.07,6.34,8.51
				c2.64,2.44,5.61,4.35,8.91,5.74c3.3,1.39,6.73,2.08,10.3,2.08c3.17,0,6.01-0.56,8.52-1.68c2.51-1.12,4.65-2.57,6.44-4.35
				c1.78-1.78,3.17-3.79,4.16-6.03c0.99-2.24,1.49-4.55,1.49-6.92c0-5.93-1.78-11.1-5.33-15.52c-3.56-4.41-8-8.5-13.33-12.26
				c-5.33-3.75-11.1-7.38-17.28-10.87c-6.19-3.49-11.95-7.28-17.28-11.37c-5.33-4.09-9.78-8.67-13.34-13.74
				c-3.56-5.07-5.33-11.04-5.33-17.89c0-5.14,1.18-9.95,3.55-14.43c2.37-4.48,5.72-8.37,10.06-11.66c4.34-3.29,9.54-5.86,15.59-7.71
				c6.05-1.85,12.77-2.77,20.15-2.77c3.95,0,7.44,0.36,10.47,1.08c3.03,0.72,5.89,1.51,8.6,2.37c2.7,0.86,5.33,1.65,7.9,2.37
				c2.57,0.72,5.3,1.09,8.2,1.09c1.84,0,3.62-0.62,5.33-1.88c1.71-1.25,2.7-2.8,2.97-4.65h2.37l4.35,50.72h-3.95
				c-2.11-5.14-4.71-10.44-7.81-15.91c-3.1-5.47-6.62-10.44-10.57-14.92c-3.95-4.48-8.37-8.17-13.24-11.06
				C990.15,600.74,984.82,599.29,979.02,599.29z"/>
			<path d="M1059.69,666.14c0.13-8.82,1.58-17.55,4.34-26.18c2.76-8.63,7.02-16.33,12.75-23.12c5.73-6.78,12.97-12.28,21.73-16.5
				c8.76-4.21,19.13-6.32,31.12-6.32c11.86,0,22.23,2.11,31.12,6.32c8.89,4.21,16.23,9.71,22.03,16.5
				c5.79,6.78,10.17,14.49,13.14,23.12c2.97,8.63,4.45,17.35,4.45,26.18c0.13,7.25-0.76,14.43-2.67,21.54
				c-1.91,7.11-4.84,13.67-8.79,19.66s-8.99,11.3-15.12,15.91c-6.13,4.61-13.34,8.04-21.64,10.27l-5.14,1.98
				c-5.27,2.11-5.2,4.09,0.2,5.94c5.14,1.85,10.5,3.89,16.1,6.14c5.6,2.24,11.09,4.35,16.5,6.33s10.64,3.66,15.71,5.05
				c5.07,1.38,9.78,2.08,14.13,2.08c3.42,0,6.55-0.53,9.38-1.57c2.83-1.05,5.24-2.82,7.21-5.31l0.99,0.19
				c-0.26,4.21-1.02,8.23-2.27,12.06c-1.25,3.82-3,7.21-5.24,10.18c-2.24,2.96-4.91,5.33-8,7.12c-3.1,1.78-6.62,2.67-10.57,2.67
				c-3.43,0-6.91-0.66-10.47-1.98c-4.87-1.71-9.52-4.38-13.93-8c-4.41-3.62-8.7-7.47-12.85-11.55c-4.15-4.09-8.23-8-12.25-11.76
				c-4.02-3.75-8.14-6.68-12.35-8.79c-0.92-0.53-1.91-0.86-2.97-0.99c-1.05-0.13-2.11-0.2-3.16-0.2c-3.69,0-7.48,0.79-11.36,2.37
				c-3.89,1.58-7.15,2.96-9.78,4.15l-3.16-3.75c0.66-0.53,1.64-1.19,2.96-1.98c1.32-0.79,2.83-1.66,4.55-2.59
				c1.71-0.94,3.49-1.84,5.33-2.71c1.85-0.87,3.62-1.64,5.33-2.31c-11.33-0.4-21.24-2.63-29.74-6.72
				c-8.49-4.08-15.54-9.38-21.14-15.91c-5.6-6.52-9.75-13.89-12.45-22.13C1061.04,683.3,1059.69,674.84,1059.69,666.14z
				 M1137.15,731.02c4.87,0,8.86-1.88,11.95-5.64c3.09-3.76,5.47-8.74,7.11-14.93c1.65-6.2,2.57-13.28,2.77-21.26
				c0.19-7.98-0.2-16.09-1.19-24.33c-0.99-8.24-2.57-16.29-4.74-24.13c-2.17-7.84-4.81-14.86-7.9-21.06
				c-3.1-6.2-6.62-11.17-10.57-14.93s-8.23-5.57-12.84-5.44c-4.61,0.13-8.43,2.08-11.46,5.84c-3.03,3.76-5.3,8.74-6.82,14.93
				c-1.52,6.2-2.37,13.25-2.57,21.16c-0.2,7.91,0.2,15.95,1.19,24.13c0.99,8.18,2.54,16.22,4.64,24.13s4.67,14.93,7.71,21.06
				c3.03,6.13,6.45,11.08,10.28,14.83C1128.52,729.14,1132.67,731.02,1137.15,731.02z"/>
			<path d="M1222.07,599.93v-3.95h55.39v3.96c-2.24,3.43-4.28,8.84-6.13,16.22c-1.85,7.38-2.77,16.87-2.77,28.47v38.17
				c0,7.12,0.3,13.55,0.89,19.28c0.59,5.74,1.84,10.65,3.75,14.73c1.91,4.09,4.6,7.25,8.09,9.49s8.19,3.36,14.11,3.36
				c11.05,0,19.64-4.15,25.76-12.46c6.12-8.31,9.18-21.22,9.18-38.76v-47.66c0-6.72-0.46-12-1.39-15.82
				c-0.92-3.82-2.04-6.72-3.36-8.7c-1.32-1.98-2.7-3.36-4.15-4.15c-1.45-0.79-2.76-1.52-3.95-2.18v-3.96h30.56v3.95
				c-1.19,0.66-2.5,1.39-3.95,2.17c-1.45,0.79-2.83,2.17-4.15,4.15c-1.32,1.98-2.44,4.87-3.36,8.7c-0.92,3.82-1.38,9.09-1.38,15.81
				v47.23c0,10.8-1.09,19.93-3.26,27.37c-2.17,7.44-5.4,13.47-9.68,18.08c-4.28,4.61-9.58,7.9-15.89,9.88
				c-6.32,1.97-13.69,2.96-22.11,2.96c-18.03,0-31.43-4.61-40.18-13.83c-8.75-9.22-13.13-24.11-13.13-44.66v-33.2
				c0-11.59-0.92-21.08-2.77-28.46C1226.35,608.76,1224.31,603.36,1222.07,599.93z"/>
			<path d="M1373.73,693.62V644.6c0-11.59-0.92-21.08-2.77-28.46c-1.85-7.38-3.89-12.78-6.12-16.21v-3.95h101.63l4.74,30.36h-3.95
				c-1.98-3.16-4.71-6.29-8.2-9.39c-3.49-3.09-7.48-5.83-11.96-8.2c-4.48-2.37-9.19-4.28-14.13-5.73
				c-4.94-1.45-9.91-2.17-14.92-2.17h-6.72v61.58h4.35c8.3,0,14.72-0.26,19.27-0.79c4.55-0.53,8-1.35,10.38-2.47
				c2.37-1.12,3.99-2.47,4.84-4.05c0.86-1.58,1.61-3.43,2.27-5.53h3.9v30.56h-3.95c-0.66-2.11-1.42-3.95-2.27-5.53
				c-0.86-1.58-2.47-2.93-4.84-4.05s-5.82-1.94-10.36-2.47c-4.54-0.53-10.96-0.79-19.25-0.79h-4.34v62.16h10.67
				c5.01,0,9.98-0.72,14.92-2.17c4.94-1.45,9.65-3.36,14.13-5.73c4.48-2.37,8.46-5.1,11.96-8.2c3.49-3.09,6.22-6.22,8.2-9.39h3.95
				l-4.74,30.36h-105.58v-3.95c2.24-1.45,4.28-5.04,6.12-10.77C1372.81,713.88,1373.73,705.21,1373.73,693.62z"/>
		</g>
		<path d="M171.94,592.87l-13.89,5.82l-15.54-1.98c-0.01,0-0.02,0-0.03,0c-0.02,0-0.04,0-0.05,0c-0.02,0-0.04,0.01-0.06,0.01
			c-0.01,0-0.02,0-0.03,0.01l-8.76,3.67c-0.06,0.02-0.1,0.06-0.14,0.11l-9.49,12.47l-4.89,2.06l0,0l-8.99,3.77l-6.58,8.65
			l-1.91,14.94l-0.97,1.28c0,0,0,0,0,0l-8.5,11.19c-0.01,0.01-0.01,0.02-0.02,0.02c-0.01,0.01-0.02,0.03-0.03,0.05
			c-0.01,0.01-0.01,0.03-0.01,0.04c0,0.01-0.01,0.03-0.01,0.05l-1.2,9.42c-0.01,0.06,0,0.12,0.02,0.17l6.06,14.46l-0.67,5.26l0,0
			l-1.23,9.67l4.2,10.02l11.98,9.12l0.62,1.48l0,0l5.43,12.95c0.01,0.03,0.03,0.06,0.04,0.09c0.02,0.02,0.04,0.04,0.06,0.06
			l7.55,5.76c0.05,0.03,0.1,0.06,0.16,0.07l6.07,0.77l4-9.78l-0.06-0.04l2.06-5.02c0,0,0,0,0,0l2.83-6.9l1.83-4.48l0.1-0.07
			l4.1-10.04l-0.08,0.06l2.64-6.44c0,0,0,0,0,0l2.03-4.97l0.05-0.01l2.37-5.8l-0.05,0.01l2.45-5.98c0.01-0.03,0.02-0.06,0.02-0.09
			c0.01-0.06,0-0.12-0.03-0.17c-0.02-0.04-0.04-0.08-0.07-0.11c-0.03-0.03-0.07-0.06-0.11-0.07l-5.99-2.45l5.12-3.96
			c0.07-0.06,0.12-0.14,0.13-0.22c0.01-0.08-0.01-0.18-0.07-0.25l-3.95-5.11l6.4-0.87c0.04,0,0.09-0.02,0.13-0.04
			c0.04-0.02,0.07-0.05,0.1-0.09c0.02-0.02,0.03-0.05,0.04-0.07c0.01-0.03,0.02-0.06,0.02-0.09c0-0.03,0-0.06,0-0.09l-0.87-6.42
			l5.99,2.45c0.09,0.04,0.18,0.04,0.26,0c0.08-0.03,0.15-0.1,0.18-0.18l2.45-5.98l0.02,0.02l2.37-5.81l-0.01-0.02l4.08-9.98l0,0
			l0.59-1.44l0,0.03l4.11-10.06l0-0.02l4.55-11.11l2.16-5.3l0.1,0.01l3.99-9.76l-4.4-3.35L171.94,592.87z M100,697.81l1.11-8.71
			l1.59,3.79c0.02,0.04,0.04,0.07,0.06,0.09c0.07,0.08,0.18,0.13,0.3,0.11l12.12-1.65l-9.67,7.49c-0.04,0.03-0.07,0.06-0.09,0.1
			c-0.02,0.04-0.03,0.07-0.04,0.12c0,0,0,0.01,0,0.01c-0.01,0.03,0,0.07,0,0.1c0,0,0,0.01,0,0.01c0,0.01,0.01,0.02,0.01,0.03
			c0,0.01,0,0.03,0.01,0.03l1.59,3.8L100,697.81z M131.03,720.09C131.03,720.09,131.03,720.09,131.03,720.09l-2.45,5.98
			c-0.01,0.03-0.02,0.06-0.02,0.09c-0.02,0.12,0.03,0.24,0.13,0.32l3.28,2.49l-8.72-1.11l-3.4-8.11l3.28,2.5
			c0.03,0.02,0.06,0.04,0.09,0.05c0.01,0.01,0.02,0.01,0.03,0.01c0.02,0.01,0.04,0.01,0.07,0.01c0.01,0,0.03,0,0.04,0
			c0.02,0,0.04,0,0.06-0.01c0.01,0,0.03-0.01,0.04-0.01c0.01,0,0.02,0,0.02-0.01c0.01-0.01,0.03-0.01,0.04-0.02
			c0.01,0,0.01-0.01,0.02-0.01l9.67-7.49L131.03,720.09z M137.33,704.69l-14.02,10.85l-7.67-5.84l-3.72-8.87l14.02-10.85l10.54-1.43
			l7.91-1.08L137.33,704.69z M148.46,677.5l-1.24,3.03c0,0,0,0,0,0l-0.47,1.14l-10.69,1.45c0,0,0,0,0,0l-1.54,0.21l9.75-7.55
			L148.46,677.5z M129.71,669.83l8.76,3.59l-14.71,11.38l-13.36,1.82l-4.21,0.57l-3.72-8.88l1.21-9.55l17.57-2.39L129.71,669.83z
			 M99.68,657.27c-0.01,0.03,0,0.07,0,0.1c0,0.01,0.01,0.02,0.01,0.03c0.01,0.02,0.01,0.05,0.03,0.06c0.01,0.01,0.01,0.02,0.02,0.03
			c0.02,0.02,0.03,0.03,0.04,0.05c0.01,0.01,0.02,0.02,0.03,0.03c0.01,0,0.01,0.01,0.02,0.02c0.01,0.01,0.02,0.01,0.04,0.02
			c0.01,0,0.01,0.01,0.02,0.01l11.32,4.63l-5.72,0.78l-6.4,0.87c-0.15,0.02-0.27,0.14-0.29,0.29l-0.52,4.09l-3.4-8.11l0.14-0.18
			l5.19-6.82L99.68,657.27z M137.77,607.18l-3.8,1.6l5.33-7l8.73,1.11l-3.81,1.59c-0.03,0.01-0.05,0.03-0.08,0.05
			c-0.01,0.01-0.02,0.02-0.04,0.03c-0.01,0.01-0.02,0.02-0.03,0.03c-0.01,0.02-0.02,0.03-0.03,0.05c-0.01,0.01-0.01,0.01-0.02,0.02
			c-0.01,0.03-0.02,0.06-0.02,0.09c0,0.01,0,0.01,0,0.02c0,0.01,0,0.02,0,0.03c0,0.01,0,0.02,0,0.04l1.65,12.12l-7.49-9.67
			C138.08,607.16,137.91,607.12,137.77,607.18z M127.39,617.42l8.88-3.73l3.32,4.29c0,0,0,0,0,0l7.54,9.73l2.51,18.43l-2.72-1.11
			l-14.49-5.93l-8.26-10.66l0,0l-2.6-3.35l2.93-3.85L127.39,617.42z M147,666.81l-3.57,2.77l-11.41-4.67l6.89-0.94c0,0,0,0,0,0
			l5.32-0.72L147,666.81z M150.48,652.35l0.61,4.48l-3.24,0.44c0,0,0,0,0,0l-1.22,0.17l-6.6-8.53l0,0l-0.95-1.23L150.48,652.35z
			 M129.01,643.57l6.51,8.4c0,0,0,0,0,0l4.88,6.31l-18.43,2.51l-16.41-6.71l1.22-9.56l5.82-7.66L129.01,643.57z M109.12,626.24
			l0.15-1.22l8.09-3.4l-2.49,3.27c-0.02,0.02-0.03,0.05-0.04,0.08c-0.01,0.02-0.02,0.06-0.02,0.08c-0.01,0.09,0.01,0.18,0.07,0.25
			l4.87,6.3l2.61,3.37l-11.32-4.63c-0.03-0.01-0.07-0.02-0.1-0.02c-0.01,0-0.02,0-0.03,0c-0.02,0-0.05,0-0.07,0.01
			c-0.01,0-0.03,0.01-0.04,0.01c-0.02,0.01-0.04,0.01-0.06,0.02c-0.01,0.01-0.02,0.01-0.03,0.02c-0.01,0.01-0.02,0.01-0.02,0.02
			c-0.01,0.01-0.01,0.01-0.02,0.02c-0.01,0.01-0.02,0.02-0.03,0.02l-2.49,3.28L109.12,626.24z M161.32,646.06l-1.71,4.17l-4.18-1.71
			l-1.66-12.21L161.32,646.06z M170.75,623.03l-4.03,9.84l0,0l-3.02,7.39l-11.39-14.71l-2.39-17.57l8.89-3.72l9.55,1.21
			L170.75,623.03z M183.92,601.97l-4.08-0.52c-0.04-0.01-0.08,0-0.11,0c-0.11,0.02-0.2,0.1-0.25,0.21l-3.02,7.37c0,0,0,0,0,0
			l-1.62,3.95l-1.65-12.12c0-0.04-0.01-0.06-0.03-0.1c-0.01-0.01-0.01-0.02-0.02-0.03c-0.01-0.02-0.02-0.04-0.04-0.06
			c-0.01-0.01-0.02-0.02-0.03-0.02c-0.01-0.02-0.03-0.03-0.05-0.04c-0.01-0.01-0.02-0.01-0.03-0.02c-0.01-0.01-0.02-0.01-0.02-0.01
			c-0.01,0-0.03-0.01-0.04-0.01l-0.02-0.01l-4.08-0.52l6.97-2.92c0,0,0,0,0,0l1.13-0.47L183.92,601.97z"/>
	</g>
	<g>
		<path d="M226.03,821.34l-1.1,0.09l-0.23,1.08c-0.91,4.27-2.63,7.58-5.13,9.83c-3.08,2.71-6.71,4.02-11.11,4.02
			c-2.87,0-5.56-0.52-8-1.53c-2.43-1.02-4.53-2.4-6.23-4.12c-1.73-1.75-3.23-3.82-4.46-6.15c-1.23-2.35-2.16-4.87-2.75-7.5
			c-0.6-2.64-0.9-5.39-0.9-8.17c0-4.11,0.87-8.13,2.57-11.95c1.69-3.79,4.21-6.99,7.48-9.51c3.2-2.47,6.84-3.72,10.82-3.72
			c9.51,0,14.9,3.98,16.5,12.18l0.12,0.61l0.52,0.34c0.52,0.35,1.17,0.53,1.93,0.53c0.72,0,1.43-0.2,2.11-0.58
			c1.26-0.71,1.43-1.62,1.4-2.16c-0.01-0.39-0.11-1.66-2.13-13.75l-0.17-1l-0.99-0.21c-6-1.3-12.65-1.96-19.75-1.96
			c-4.59,0-8.97,0.9-13.02,2.67c-4.05,1.77-7.53,4.18-10.34,7.17c-2.8,2.98-5.05,6.53-6.67,10.55c-1.62,4.03-2.45,8.31-2.45,12.72
			c0,4.21,0.8,8.29,2.38,12.12c1.58,3.82,3.77,7.2,6.52,10.05c2.76,2.85,6.19,5.16,10.21,6.85c4.01,1.69,8.39,2.55,13,2.55
			c8.47,0,15.35-1.45,20.44-4.32l0.12-0.07l0.11-0.09c0.61-0.51,1.36-1.51,2.54-6.92c0.81-3.71,1.2-6.14,1.2-7.42v-0.81l-0.67-0.44
			C228.74,821.55,227.44,821.22,226.03,821.34z"/>
		<path d="M335.06,833.44c-0.6,0-1,0.35-1.17,0.49c-0.08,0.07-0.15,0.12-0.22,0.17c-0.02,0.01-0.1,0.07-0.3,0.18
			c-0.16,0.08-0.3,0.15-0.44,0.21c-0.04,0.02-0.15,0.06-0.35,0.09c-0.17,0.03-0.36,0.05-0.54,0.05c-0.44,0-1.35,0-1.35-2.82v-18.88
			c0-3.82-1.12-7.13-3.34-9.83c-2.29-2.79-5.03-4.21-8.14-4.21c-3.19,0-6.5,0.87-9.83,2.6c-3.24,1.67-5.89,3.47-7.87,5.32l-0.11,0.1
			l-0.09,0.12c-0.26,0.37-0.47,0.86-0.66,1.55c-0.18,0.65-0.26,1.13-0.26,1.51c0,1.3,0.39,2.49,1.16,3.54
			c0.86,1.18,2.05,1.8,3.45,1.8c1.78,0,4.91-0.73,5.78-5.63c0.29-1.67,0.73-2.88,1.32-3.61c0.17-0.21,0.68-0.84,2.25-0.84
			c1.72,0,3.17,0.73,4.42,2.24c1.32,1.59,1.97,3.25,1.97,5.07v2.47c0,0.45-0.03,0.72-0.05,0.86c-0.03,0.02-0.07,0.03-0.12,0.05
			l-0.07,0.03c-0.75,0.35-2.02,0.84-3.75,1.46c-1.78,0.64-4.02,1.42-6.65,2.33c-2.66,0.92-4.51,1.57-5.52,1.93l-0.02,0.01
			c-1.41,0.53-2.69,1.61-3.83,3.21c-1.14,1.61-1.72,3.46-1.72,5.51c0,3.36,1.19,6.24,3.54,8.55c2.34,2.31,5.26,3.48,8.68,3.48
			c1.7,0,3.93-0.86,6.81-2.63c1.53-0.94,2.78-1.76,3.74-2.47c0.42,0.9,0.97,1.75,1.66,2.55c1.36,1.57,2.93,2.37,4.66,2.37
			c1.12,0,2.52-0.47,4.27-1.45c1.63-0.9,2.81-1.7,3.6-2.42l0.17-0.15l0.11-0.19c0.44-0.75,0.66-1.59,0.66-2.5
			C336.91,833.9,335.75,833.44,335.06,833.44z M310.99,833.18c-0.93-1.01-1.39-2.14-1.39-3.48c0-1.34,0.38-2.44,1.15-3.38
			c0.82-1,2-1.8,3.49-2.38c0.77-0.3,2.95-0.99,6.5-2.05v10.13c-0.21,0.19-0.75,0.6-2.06,1.28c-1.69,0.88-3.17,1.32-4.42,1.32
			C312.96,834.63,311.89,834.15,310.99,833.18z"/>
		<path d="M433.94,776.5l-0.11-0.11l-0.12-0.08c-0.88-0.59-1.55-0.94-2.12-1.11c-0.39-0.11-1.08-0.24-3.01-0.24
			c-1.73,0-3.59,0.7-5.68,2.14c-1.93,1.33-3.78,3.1-5.5,5.25c-1.73,2.16-3.2,4.87-4.38,8.04c-1.07,2.89-1.67,5.87-1.77,8.86h-2.54
			l-0.44,0.44c-0.28,0.28-0.75,0.8-1.45,1.62c-1.09,1.26-1.37,1.75-1.37,2.37c0,1.83,1.22,2.31,1.95,2.31h3.83v23.72
			c0,3.73-0.17,5.34-0.32,6.04c-0.19,0.08-0.56,0.2-1.25,0.34c-1.32,0.26-2.39,0.39-3.18,0.39h-0.75l-0.45,0.6
			c-0.38,0.51-0.57,1.21-0.59,2.18c-0.03,1.04,0.19,1.8,0.67,2.35l0.47,0.53l0.71-0.03c0.88-0.03,1.97-0.09,3.26-0.19
			c1.27-0.09,2.4-0.16,3.38-0.2c0.97-0.04,1.98-0.07,3.02-0.07c0.48,0,3.88,0.15,10.1,0.46l0.72,0.04l0.47-0.54
			c0.47-0.54,0.69-1.31,0.66-2.34c-0.02-0.98-0.21-1.68-0.59-2.18l-0.45-0.6h-0.75c-0.82,0-1.97-0.13-3.4-0.39
			c-0.77-0.14-1.19-0.27-1.4-0.35c-0.14-0.7-0.31-2.32-0.31-6.02v-23.72h9.12l0.44-0.44c1.14-1.14,1.72-2.42,1.72-3.8
			c0-2.38-1.62-2.5-1.95-2.5h-9.33v-8.68l0-0.02c-0.03-2.42,0.36-4.28,1.15-5.54c0.88-1.41,1.79-1.57,2.4-1.57
			c0.35,0,0.97,0.11,1.94,0.64c1.5,0.83,2.54,1.19,3.38,1.19c0.47,0,0.94-0.05,1.39-0.15c0.49-0.11,1-0.3,1.56-0.6
			c0.71-0.38,1.27-0.99,1.67-1.81c0.36-0.74,0.54-1.61,0.54-2.6c0-0.6-0.13-1.26-0.39-1.96C434.62,777.4,434.32,776.87,433.94,776.5
			z"/>
		<path d="M530.32,829.38c-0.21-0.18-0.6-0.53-1.21-0.53h-0.68l-0.45,0.52c-0.84,0.97-2.1,1.97-3.74,2.95
			c-1.57,0.94-3.27,1.39-5.22,1.39c-3.92,0-7.09-1.35-9.71-4.14c-2.35-2.5-3.61-6.03-3.74-10.51c1.8-0.04,5.06-0.11,9.75-0.23
			c6.61-0.17,10.63-0.3,11.94-0.39c1.38-0.06,2.44-0.77,2.99-2c0.41-0.92,0.61-2.16,0.61-3.79c0-0.94-0.14-1.97-0.41-3.07
			c-0.27-1.09-0.77-2.3-1.46-3.6c-0.71-1.32-1.62-2.52-2.71-3.56c-1.12-1.06-2.63-1.96-4.48-2.67c-1.84-0.7-3.92-1.06-6.17-1.06
			c-2.26,0-4.59,0.64-6.94,1.9c-2.28,1.22-4.37,2.86-6.21,4.86c-1.85,2.02-3.4,4.51-4.59,7.41c-1.2,2.92-1.81,5.99-1.81,9.14
			c0,5.84,1.87,10.77,5.57,14.66c3.71,3.91,8.51,5.89,14.26,5.89c1.84,0,3.64-0.31,5.34-0.91c1.69-0.6,3.16-1.39,4.38-2.34
			c1.16-0.9,2.15-1.79,2.93-2.64c0.79-0.86,1.47-1.74,2.01-2.61l0.01-0.01c0.51-0.84,0.76-1.66,0.76-2.42
			c0-0.44-0.11-0.88-0.32-1.31C530.82,829.93,530.6,829.62,530.32,829.38z M514.08,804.98c1.03,0,1.92,0.25,2.72,0.77
			c0.84,0.54,1.46,1.18,1.89,1.95c0.49,0.88,0.87,1.73,1.11,2.54c0.28,0.92,0.32,1.47,0.31,1.78c-0.05,0.7-0.19,0.7-0.62,0.7h-13.13
			c0.16-0.5,0.37-1.08,0.64-1.72c0.4-0.96,0.93-1.95,1.57-2.93c0.56-0.86,1.35-1.61,2.35-2.23
			C511.88,805.26,512.92,804.98,514.08,804.98z"/>
		<path d="M728.46,810.09l-0.42-0.31l-0.52,0.02c-1.06,0.03-2.29,0.09-3.65,0.19c-1.34,0.09-2.52,0.16-3.52,0.2
			c-0.98,0.04-1.95,0.07-2.87,0.07h-7.86l-0.44,0.44c-0.47,0.47-0.71,1.12-0.73,1.99c-0.03,0.76,0.1,1.38,0.39,1.9l0.43,0.76h0.85
			c0.07,0,0.31,0.02,1.2,0.07c0.57,0.03,1.05,0.12,1.43,0.25c-0.08,0.34-0.35,1.21-1.3,3.27c-0.71,1.54-1.58,3.15-2.6,4.82
			c-4.44-5.12-8.24-10.25-11.34-15.28c1.54-0.98,2.89-1.9,4.02-2.76c1.44-1.09,2.92-2.41,4.38-3.9c1.55-1.58,2.73-3.33,3.52-5.21
			c0.79-1.89,1.19-3.95,1.19-6.12c0-3.75-1.4-6.7-4.17-8.78c-2.64-1.98-6.2-2.98-10.61-2.98c-4.19,0-7.77,1.36-10.62,4.05
			c-2.88,2.71-4.34,6.07-4.34,10c0,2.09,0.32,4.24,0.95,6.4c0.63,2.15,1.26,3.81,1.92,5.08c0.47,0.91,1.1,2.05,1.87,3.4
			c-1.69,0.89-3.18,1.76-4.45,2.59c-1.63,1.06-3.29,2.35-4.91,3.84c-1.72,1.57-3.04,3.36-3.93,5.32c-0.89,1.97-1.35,4.15-1.35,6.46
			c0,5.03,1.81,9.06,5.38,11.97c3.48,2.84,8.15,4.28,13.89,4.28c3.09,0,6.24-0.68,9.36-2.02c2.59-1.11,4.98-2.54,7.12-4.24
			c0.36,0.4,0.81,0.84,1.35,1.33c0.73,0.67,1.54,1.34,2.41,2.01c0.94,0.72,2.03,1.34,3.24,1.84c1.28,0.53,2.53,0.8,3.74,0.8
			c1.48,0,2.91-0.25,4.23-0.73c1.32-0.49,2.36-1.04,3.16-1.68c0.76-0.61,1.48-1.34,2.13-2.18c0.65-0.83,1.05-1.41,1.28-1.83
			c0.2-0.37,0.4-0.78,0.57-1.19l0.12-0.28v-0.3c0-0.8-0.41-1.54-1.22-2.22c-0.73-0.61-1.53-0.92-2.37-0.92h-1.01l-0.37,0.94
			c-0.16,0.4-0.57,1.1-1.65,2.19c-0.97,0.98-1.54,1.09-1.73,1.09c-0.3,0-0.64-0.09-1.01-0.27c-0.31-0.15-0.88-0.51-1.87-1.39
			c-0.87-0.78-1.58-1.45-2.1-1.99c-0.43-0.44-1.1-1.13-2-2.08c1.35-1.64,2.67-3.42,3.95-5.3c1.53-2.26,2.72-4.08,3.53-5.44
			c0.6-1,0.9-1.47,1.04-1.69c0.3-0.14,0.95-0.38,2.3-0.72c1.67-0.42,2.57-0.51,3.03-0.51c0.22,0,1.34-0.07,1.64-1.49
			c0.06-0.3,0.1-0.68,0.11-1.19C729.24,811.58,729.19,810.64,728.46,810.09z M690.56,790.56c0-1.66,0.54-2.97,1.64-4
			c1.13-1.06,2.48-1.57,4.12-1.57c1.49,0,2.62,0.59,3.57,1.87c1.04,1.4,1.54,3,1.54,4.89c0,2.03-0.35,3.8-1.03,5.26
			c-0.69,1.46-1.55,2.65-2.58,3.53c-0.86,0.74-2,1.55-3.41,2.42C691.85,798.07,690.56,793.9,690.56,790.56z M685.05,832.48
			c-2.15-1.73-3.2-4.32-3.2-7.91c0-1.11,0.17-2.16,0.49-3.12c0.35-1.01,0.73-1.86,1.13-2.53c0.38-0.63,1.02-1.36,1.92-2.15
			c0.97-0.87,1.76-1.52,2.34-1.95c0.4-0.29,0.96-0.69,1.67-1.18l1.59,2.4c1.63,2.45,3.72,5.4,6.24,8.76
			c2.07,2.76,3.91,5.03,5.51,6.78c-1.1,0.94-2.4,1.72-3.87,2.35c-1.96,0.83-3.81,1.26-5.49,1.26
			C690.03,835.18,687.31,834.3,685.05,832.48z"/>
		<path d="M902.39,817.7c-0.51-0.92-1.21-1.87-2.08-2.82c-0.83-0.91-1.6-1.68-2.31-2.31c-0.71-0.63-1.62-1.34-2.71-2.12
			c-1.07-0.76-1.97-1.37-2.69-1.81c-0.69-0.43-1.59-0.99-2.69-1.66c-1.09-0.66-1.88-1.15-2.36-1.45c-0.53-0.34-1.31-0.82-2.3-1.42
			c-0.98-0.59-1.75-1.06-2.28-1.4c-0.53-0.34-1.22-0.8-2.06-1.39c-0.79-0.55-1.42-1.04-1.85-1.45c-0.46-0.43-0.98-0.96-1.54-1.59
			c-0.5-0.55-0.89-1.1-1.15-1.61c-0.27-0.55-0.51-1.19-0.69-1.91c-0.18-0.7-0.27-1.44-0.27-2.19c0-1.04,0.15-2.06,0.46-3.04
			c0.3-0.97,0.78-1.93,1.42-2.84c0.58-0.82,1.43-1.49,2.55-2c1.16-0.53,2.53-0.8,4.07-0.8c1.28,0,2.5,0.26,3.65,0.78
			c1.18,0.54,2.19,1.23,3.02,2.06c0.88,0.88,1.69,1.89,2.39,2.98c0.7,1.09,1.23,2.16,1.59,3.17c0.36,1.03,0.6,1.98,0.71,2.81
			l0.07,0.5l0.36,0.36c0.37,0.37,1.02,0.8,2.06,0.8c0.6,0,1.23-0.14,1.88-0.42c1.49-0.65,1.58-1.73,1.53-2.2
			c-0.46-6.01-0.89-10.42-1.29-13.11l-0.15-1.02l-1.01-0.22c-1.11-0.24-2.38-0.55-3.78-0.92c-1.44-0.38-2.54-0.67-3.31-0.87
			c-0.83-0.22-1.84-0.4-3.09-0.56c-1.24-0.16-2.57-0.24-3.97-0.24c-3.3,0-6.44,0.71-9.36,2.12c-2.94,1.42-5.38,3.52-7.25,6.22
			c-1.89,2.75-2.85,5.87-2.85,9.28c0,1.13,0.14,2.25,0.41,3.32c0.26,1.02,0.55,1.94,0.85,2.75c0.34,0.9,0.9,1.85,1.66,2.82
			c0.69,0.88,1.24,1.57,1.66,2.1c0.51,0.63,1.3,1.37,2.43,2.24c1.01,0.78,1.75,1.36,2.19,1.71c0.49,0.39,1.35,0.97,2.63,1.77
			c1.25,0.78,2.04,1.27,2.42,1.48c0.24,0.14,0.86,0.5,2.43,1.43l0.01,0.01c0.59,0.34,1.36,0.77,2.35,1.31
			c0.97,0.52,1.71,0.93,2.26,1.24c0.54,0.31,1.19,0.71,1.94,1.19c0.72,0.46,1.28,0.88,1.69,1.23c0.41,0.35,0.87,0.81,1.36,1.36
			c0.44,0.49,0.77,0.98,1,1.45c0.24,0.51,0.44,1.13,0.6,1.84c0.16,0.72,0.24,1.49,0.24,2.29c0,3.05-0.88,5.38-2.7,7.1
			c-1.84,1.74-4.07,2.59-6.81,2.59c-1.86,0-3.59-0.34-5.13-1.02c-1.56-0.68-2.81-1.5-3.73-2.43c-0.96-0.97-1.81-2.11-2.54-3.4
			c-0.75-1.32-1.29-2.45-1.61-3.36c-0.32-0.91-0.57-1.79-0.74-2.6c-0.22-1.26-1.17-2.04-2.47-2.04c-1.26,0-2.42,0.52-3.44,1.54
			l-0.44,0.44v0.62c0,0.51,0.06,1.7,0.61,6.03c0.4,3.18,0.85,6.03,1.35,8.47l0.2,0.98l0.98,0.19c0.61,0.12,1.77,0.38,3.45,0.77
			c1.71,0.4,3.14,0.71,4.25,0.93c1.13,0.22,2.56,0.44,4.24,0.66c1.72,0.22,3.35,0.33,4.84,0.33c2.6,0,5.16-0.44,7.62-1.3
			c2.46-0.86,4.67-2.08,6.58-3.61c1.95-1.56,3.52-3.52,4.68-5.83c1.17-2.32,1.76-4.85,1.76-7.52c0-1.23-0.17-2.46-0.52-3.65
			C903.33,819.67,902.9,818.62,902.39,817.7z"/>
		<path d="M1036.55,799.41l-0.65,0.02c-0.95,0.03-1.95,0.1-2.99,0.19c-1.01,0.09-1.91,0.16-2.7,0.2c-0.78,0.04-1.68,0.07-2.69,0.07
			c-1.38,0-2.83-0.07-4.29-0.2c-1.53-0.14-2.75-0.23-3.63-0.26l-0.71-0.03l-0.47,0.53c-0.48,0.55-0.69,1.31-0.67,2.41
			c0.02,0.85,0.13,1.79,0.83,2.37l0.37,0.31l0.48,0.03c1.01,0.07,1.48,0.13,1.69,0.17c0.22,0.04,0.65,0.13,1.48,0.36
			c0.54,0.15,0.73,0.33,0.78,0.4c0.04,0.05,0.17,0.22,0.17,0.62c0,0.15-0.04,0.6-0.43,1.72c-0.7,2.07-2.91,7.76-6.58,16.94
			c-0.44-1.12-0.88-2.27-1.34-3.44c-0.95-2.41-1.7-4.32-2.25-5.71c-0.56-1.42-1.1-2.79-1.6-4.07c-0.51-1.3-0.9-2.35-1.17-3.13
			c-0.27-0.79-0.48-1.39-0.62-1.83c-0.11-0.39-0.15-0.58-0.16-0.65c0.01-0.46,0.17-1.37,3.09-1.37h0.62l0.44-0.44
			c0.63-0.63,0.71-1.56,0.71-2.29c0-0.85-0.09-1.48-0.29-1.97l-0.39-0.99l-1.06,0.05c-7.82,0.39-9.29,0.45-9.46,0.46
			c-1.39,0-2.92-0.07-4.55-0.2c-1.69-0.14-2.94-0.22-3.73-0.26l-0.65-0.03l-0.46,0.46c-0.54,0.54-0.8,1.35-0.8,2.47
			c0,0.49,0,1.98,1.19,2.57l0.31,0.16h0.35c2.06,0,2.62,0.82,2.81,1.1c0.49,0.71,0.95,1.57,1.36,2.57c0.41,0.98,0.53,1.42,0.56,1.58
			c-0.03,0.1-0.08,0.29-0.2,0.63c-0.2,0.56-0.53,1.46-1,2.69c-0.47,1.23-0.95,2.46-1.43,3.66c-0.52,1.28-1.24,3.09-2.16,5.39
			c-0.41,1.02-0.8,2.02-1.18,2.99c-4.71-11.15-7.4-17.58-8-19.13c-0.14-0.39-0.23-0.65-0.29-0.83c0.04-0.03,0.1-0.06,0.17-0.09
			c0.56-0.27,1.05-0.43,1.45-0.48c0.53-0.06,1-0.08,1.4-0.08h0.35l0.31-0.16c1.08-0.54,1.11-1.91,1.12-2.49
			c0.02-0.91-0.04-1.52-0.19-1.97l-0.35-1.06l-1.11,0.04c-0.88,0.03-1.93,0.09-3.11,0.19c-1.16,0.09-2.21,0.16-3.12,0.2
			c-0.9,0.04-1.87,0.07-2.88,0.07c-1.07,0-2.06-0.02-2.95-0.07c-0.89-0.04-1.89-0.11-2.98-0.2c-1.11-0.09-2.16-0.16-3.1-0.19
			l-1-0.03l-0.41,0.92c-0.21,0.48-0.31,1.09-0.31,1.94s0.1,1.46,0.31,1.94l0.39,0.88h0.97c1.16,0,3.16,0.15,3.58,1.12l0.01,0.01
			c4.76,10.74,9.75,22.63,14.83,35.33l0.05,0.11c0.22,0.44,0.8,1.19,2.16,1.19c0.81,0,1.62-0.37,2.42-1.1
			c0.73-0.66,1.1-1.14,1.27-1.63l8.48-21.51l8.8,22.92l0.03,0.07l0.03,0.06c0.39,0.79,1.21,1.19,2.43,1.19
			c0.62,0,1.25-0.26,1.98-0.81c0.66-0.5,1.11-1.08,1.34-1.71c3.46-8.29,7.93-19.36,13.28-32.89c0.3-0.75,0.93-1.3,1.94-1.67
			c1.56-0.57,2.44-0.69,2.9-0.69h0.5l0.4-0.3c0.85-0.64,0.97-1.76,0.98-2.56c0.02-1.19-0.05-1.85-0.55-2.34L1036.55,799.41z"/>
		<path d="M1136.45,829.38c-0.21-0.18-0.6-0.53-1.21-0.53h-0.68l-0.45,0.52c-0.84,0.97-2.1,1.97-3.74,2.95
			c-1.57,0.94-3.27,1.39-5.22,1.39c-3.92,0-7.09-1.35-9.71-4.14c-2.35-2.5-3.61-6.03-3.74-10.51c1.8-0.04,5.06-0.11,9.75-0.23
			c6.61-0.17,10.63-0.3,11.94-0.39c1.38-0.06,2.44-0.77,2.99-2c0.41-0.92,0.61-2.16,0.61-3.79c0-0.94-0.14-1.97-0.41-3.07
			c-0.27-1.09-0.77-2.31-1.46-3.6c-0.71-1.32-1.62-2.52-2.71-3.56c-1.12-1.06-2.63-1.96-4.48-2.67c-1.84-0.7-3.92-1.06-6.17-1.06
			c-2.26,0-4.59,0.64-6.94,1.9c-2.28,1.22-4.37,2.86-6.21,4.86c-1.85,2.02-3.4,4.51-4.59,7.41c-1.2,2.92-1.81,5.99-1.81,9.14
			c0,5.84,1.87,10.77,5.57,14.66c3.71,3.91,8.51,5.89,14.26,5.89c1.84,0,3.64-0.31,5.34-0.91c1.69-0.6,3.16-1.39,4.38-2.34
			c1.16-0.9,2.15-1.79,2.93-2.64c0.79-0.86,1.47-1.74,2.01-2.61l0.01-0.01c0.51-0.84,0.76-1.66,0.76-2.42
			c0-0.44-0.11-0.88-0.32-1.31C1136.95,829.93,1136.73,829.62,1136.45,829.38z M1120.21,804.98c1.03,0,1.92,0.25,2.72,0.77
			c0.84,0.54,1.46,1.18,1.89,1.95c0.49,0.88,0.87,1.73,1.11,2.54c0.28,0.92,0.32,1.47,0.31,1.78c-0.05,0.7-0.19,0.7-0.62,0.7h-13.13
			c0.16-0.5,0.37-1.08,0.64-1.72c0.41-0.96,0.93-1.95,1.57-2.93c0.56-0.86,1.35-1.61,2.35-2.23
			C1118.01,805.26,1119.05,804.98,1120.21,804.98z"/>
		<path d="M1239.53,829.38c-0.21-0.18-0.6-0.53-1.21-0.53h-0.68l-0.45,0.52c-0.84,0.97-2.1,1.97-3.74,2.95
			c-1.57,0.94-3.27,1.39-5.22,1.39c-3.92,0-7.09-1.35-9.71-4.14c-2.35-2.5-3.61-6.03-3.74-10.51c1.8-0.04,5.06-0.11,9.75-0.23
			c6.61-0.17,10.63-0.3,11.94-0.39c1.38-0.06,2.44-0.77,2.99-2c0.41-0.92,0.61-2.16,0.61-3.79c0-0.94-0.14-1.97-0.41-3.07
			c-0.27-1.09-0.77-2.31-1.46-3.6c-0.71-1.32-1.62-2.52-2.71-3.56c-1.12-1.06-2.63-1.96-4.48-2.67c-1.84-0.7-3.92-1.06-6.17-1.06
			c-2.26,0-4.59,0.64-6.94,1.9c-2.28,1.22-4.37,2.86-6.21,4.86c-1.85,2.02-3.4,4.51-4.59,7.41c-1.2,2.92-1.81,5.99-1.81,9.14
			c0,5.84,1.87,10.77,5.57,14.66c3.71,3.91,8.51,5.89,14.26,5.89c1.84,0,3.64-0.31,5.34-0.91c1.69-0.6,3.16-1.39,4.38-2.34
			c1.16-0.9,2.15-1.79,2.93-2.64c0.79-0.86,1.47-1.74,2.01-2.61l0.01-0.01c0.51-0.84,0.76-1.66,0.76-2.42
			c0-0.44-0.11-0.88-0.32-1.31C1240.03,829.93,1239.8,829.62,1239.53,829.38z M1223.29,804.98c1.03,0,1.92,0.25,2.72,0.77
			c0.84,0.54,1.46,1.18,1.89,1.95c0.49,0.88,0.87,1.73,1.11,2.54c0.28,0.92,0.32,1.47,0.31,1.78c-0.05,0.7-0.19,0.7-0.62,0.7h-13.13
			c0.16-0.5,0.37-1.08,0.64-1.72c0.41-0.96,0.93-1.95,1.57-2.93c0.56-0.86,1.35-1.61,2.35-2.23
			C1221.09,805.26,1222.12,804.98,1223.29,804.98z"/>
		<path d="M1333.01,805.98l0.44-0.44c1.14-1.14,1.72-2.42,1.72-3.8c0-2.38-1.62-2.5-1.95-2.5h-10.33v-10.52
			c0-0.82-0.55-1.48-1.4-1.7c-0.43-0.11-0.89-0.1-1.37,0.03c-0.48,0.13-0.9,0.37-1.24,0.71c-0.04,0.04-0.13,0.13-1.14,1.24
			c-0.67,0.73-1.46,1.59-2.38,2.59c-0.94,1.02-1.65,1.81-2.15,2.41l-0.35,0.42v4.83h-2.52l-0.44,0.44c-0.28,0.28-0.75,0.8-1.45,1.62
			c-1.09,1.26-1.37,1.75-1.37,2.37c0,1.83,1.22,2.31,1.95,2.31h3.83v25.09c0,2.08,0.31,3.9,0.91,5.41c0.64,1.6,1.55,2.85,2.72,3.72
			c1.09,0.81,2.27,1.4,3.5,1.75c1.2,0.34,2.51,0.52,3.89,0.52c1.6,0,3.22-0.4,4.83-1.18c1.54-0.75,2.7-1.48,3.56-2.23
			c0.78-0.68,1.5-1.39,2.14-2.09c0.52-0.54,0.77-1.32,0.77-2.4c0-1.29-0.77-1.81-1.1-1.97l-0.8-0.4l-0.73,0.53
			c-1.71,1.23-3.38,1.83-5.09,1.83c-2.12,0-4.56-0.69-4.56-6.03v-22.53H1333.01z"/>
		<path d="M1431.81,826c-0.27-0.89-0.71-1.74-1.32-2.54c-0.52-0.68-1.02-1.28-1.47-1.79c-0.51-0.57-1.23-1.15-2.18-1.8
			c-0.83-0.56-1.48-0.99-1.94-1.29c-0.47-0.31-1.17-0.73-2.15-1.3c-0.91-0.53-1.54-0.89-1.84-1.06c-0.37-0.22-1.02-0.59-1.98-1.13
			c-1.13-0.64-1.64-0.96-1.88-1.11c-0.33-0.22-0.82-0.58-1.44-1.08c-0.69-0.54-0.96-0.89-1.07-1.06c-0.21-0.33-0.41-0.77-0.6-1.31
			c-0.17-0.5-0.26-1.05-0.26-1.64c0-1.3,0.4-2.31,1.21-3.1c0.82-0.79,2.1-1.19,3.8-1.19c1.3,0,2.48,0.69,3.6,2.11
			c1.27,1.62,2.17,3.38,2.67,5.22l0.12,0.46l0.36,0.3c0.64,0.53,1.48,0.8,2.51,0.8c2.34,0,2.41-1.75,2.41-1.95l0-0.05
			c-0.12-4.05-0.51-7.53-1.13-10.36l-0.23-1.04l-1.06-0.12c-0.79-0.09-2.2-0.31-4.17-0.65c-2.09-0.36-3.89-0.55-5.34-0.55
			c-3.87,0-7.31,1.16-10.22,3.46c-3.02,2.38-4.56,5.48-4.56,9.21c0,2.57,0.74,4.79,2.21,6.6c1.36,1.67,3.2,3.18,5.48,4.49
			c0.68,0.42,1.73,1,3.19,1.76c1.39,0.73,2.44,1.31,3.1,1.73c0.65,0.41,1.4,0.96,2.23,1.65c0.7,0.58,1.21,1.2,1.49,1.84
			c0.29,0.66,0.44,1.43,0.44,2.28c0,1.64-0.46,2.86-1.39,3.76c-0.96,0.91-2.17,1.35-3.72,1.35c-1.87,0-3.56-0.75-5.15-2.3
			c-1.67-1.62-2.78-3.41-3.32-5.32l-0.15-0.53l-0.46-0.31c-0.44-0.29-0.98-0.43-1.65-0.43c-0.94,0-1.79,0.29-2.54,0.85l-0.6,0.45
			v0.74c0,1.32,0.17,3.02,0.52,5.21c0.36,2.22,0.73,3.81,1.14,4.86l0.3,0.77l0.82,0.15c0.81,0.15,1.93,0.39,3.35,0.72
			c1.48,0.34,2.79,0.6,3.91,0.78c1.16,0.18,2.41,0.27,3.73,0.27c4.17,0,7.83-1.33,10.89-3.96c3.13-2.68,4.71-6.11,4.71-10.18
			C1432.19,827.76,1432.06,826.85,1431.81,826z"/>
	</g>
</g>
</svg>
