<?xml version="1.0" encoding="utf-8"?>
<!-- Generator: Adobe Illustrator 27.4.1, SVG Export Plug-In . SVG Version: 6.00 Build 0)  -->
<svg version="1.1" id="Layer_1" xmlns="http://www.w3.org/2000/svg" xmlns:xlink="http://www.w3.org/1999/xlink" x="0px" y="0px"
	 viewBox="0 0 1920 1080" style="enable-background:new 0 0 1920 1080;" xml:space="preserve">
<style type="text/css">
	.st0{fill:url(#SVGID_1_);}
	.st1{fill:url(#SVGID_00000149379996923310244600000017102588963071083910_);}
	.st2{fill:url(#SVGID_00000009558797813724266940000003234914678559174321_);}
	.st3{fill:url(#SVGID_00000158010983121283029860000013211128340378364306_);}
	.st4{fill:url(#SVGID_00000160887048239460247910000015571739434258899132_);}
	.st5{fill:url(#SVGID_00000150092310081007382330000003675020808052914356_);}
	.st6{fill:url(#SVGID_00000023979938238162759940000016464514511279100048_);}
	.st7{fill:url(#SVGID_00000098194755825695273800000014788623844416463013_);}
	.st8{fill:url(#SVGID_00000178924200450690488440000015771404345593989309_);}
	.st9{fill:url(#SVGID_00000123433756990786485160000013282037662938051211_);}
	.st10{fill:url(#SVGID_00000094589081554426569150000004101378996670457745_);}
</style>
<g>
	<linearGradient id="SVGID_1_" gradientUnits="userSpaceOnUse" x1="337.4493" y1="611.4929" x2="404.2169" y2="611.4929">
		<stop  offset="5.618000e-03" style="stop-color:#FAC826"/>
		<stop  offset="0.2528" style="stop-color:#FFFACB"/>
		<stop  offset="0.3048" style="stop-color:#F8EEBA"/>
		<stop  offset="0.408" style="stop-color:#E7D08D"/>
		<stop  offset="0.5516" style="stop-color:#CBA145"/>
		<stop  offset="0.5955" style="stop-color:#C2912E"/>
		<stop  offset="0.8708" style="stop-color:#EDD688"/>
		<stop  offset="1" style="stop-color:#FFFACB"/>
	</linearGradient>
	<path class="st0" d="M398.84,624.85l-1.3,0.11l-0.27,1.28c-1.07,5.05-3.11,8.96-6.06,11.61c-3.63,3.2-7.93,4.75-13.13,4.75
		c-3.39,0-6.57-0.61-9.45-1.81c-2.88-1.2-5.35-2.84-7.36-4.87c-2.05-2.07-3.82-4.51-5.27-7.27c-1.46-2.78-2.55-5.76-3.25-8.86
		c-0.71-3.12-1.07-6.37-1.07-9.66c0-4.85,1.02-9.6,3.04-14.12c2-4.47,4.97-8.26,8.84-11.24c3.78-2.92,8.08-4.4,12.79-4.4
		c11.23,0,17.61,4.71,19.5,14.39l0.14,0.72l0.61,0.41c0.62,0.41,1.38,0.62,2.28,0.62c0.85,0,1.69-0.23,2.49-0.69
		c1.48-0.84,1.69-1.91,1.65-2.55c-0.01-0.46-0.13-1.96-2.51-16.25l-0.2-1.18l-1.17-0.25c-7.09-1.54-14.94-2.31-23.33-2.31
		c-5.42,0-10.59,1.06-15.38,3.15c-4.78,2.09-8.89,4.94-12.22,8.47c-3.31,3.52-5.96,7.71-7.88,12.46c-1.92,4.76-2.89,9.81-2.89,15.04
		c0,4.97,0.95,9.79,2.81,14.32c1.86,4.52,4.45,8.51,7.7,11.87c3.26,3.37,7.31,6.09,12.06,8.09c4.74,2,9.91,3.01,15.36,3.01
		c10.01,0,18.13-1.72,24.15-5.1l0.14-0.08l0.13-0.11c0.72-0.61,1.6-1.79,3-8.17c0.96-4.39,1.42-7.26,1.42-8.77v-0.95l-0.8-0.52
		C402.04,625.09,400.5,624.71,398.84,624.85z"/>
	
		<linearGradient id="SVGID_00000167359952972086587670000015295145232383213203_" gradientUnits="userSpaceOnUse" x1="485.0711" y1="624.11" x2="529.8535" y2="624.11">
		<stop  offset="5.618000e-03" style="stop-color:#FAC826"/>
		<stop  offset="0.2528" style="stop-color:#FFFACB"/>
		<stop  offset="0.3048" style="stop-color:#F8EEBA"/>
		<stop  offset="0.408" style="stop-color:#E7D08D"/>
		<stop  offset="0.5516" style="stop-color:#CBA145"/>
		<stop  offset="0.5955" style="stop-color:#C2912E"/>
		<stop  offset="0.8708" style="stop-color:#EDD688"/>
		<stop  offset="1" style="stop-color:#FFFACB"/>
	</linearGradient>
	<path style="fill:url(#SVGID_00000167359952972086587670000015295145232383213203_);" d="M527.66,639.14
		c-0.71,0-1.19,0.41-1.39,0.58c-0.09,0.08-0.18,0.15-0.26,0.2c-0.02,0.02-0.12,0.08-0.35,0.21c-0.18,0.1-0.36,0.18-0.52,0.25
		c-0.05,0.02-0.18,0.07-0.41,0.11c-0.2,0.04-0.42,0.05-0.64,0.05c-0.52,0-1.6,0-1.6-3.33V614.9c0-4.51-1.33-8.42-3.95-11.62
		c-2.7-3.3-5.94-4.98-9.62-4.98c-3.77,0-7.68,1.03-11.61,3.07c-3.83,1.98-6.96,4.09-9.3,6.29l-0.13,0.12l-0.1,0.14
		c-0.31,0.43-0.56,1.02-0.78,1.83c-0.21,0.76-0.31,1.33-0.31,1.79c0,1.53,0.46,2.94,1.37,4.18c1.02,1.39,2.43,2.13,4.07,2.13
		c2.11,0,5.8-0.86,6.82-6.66c0.34-1.97,0.87-3.4,1.56-4.26c0.2-0.25,0.8-0.99,2.66-0.99c2.03,0,3.74,0.86,5.23,2.64
		c1.57,1.88,2.33,3.84,2.33,5.99v2.92c0,0.53-0.03,0.85-0.05,1.01c-0.04,0.02-0.08,0.04-0.14,0.06l-0.08,0.04
		c-0.89,0.41-2.38,0.99-4.43,1.73c-2.1,0.75-4.75,1.68-7.86,2.75c-3.14,1.08-5.33,1.85-6.53,2.28l-0.02,0.01
		c-1.66,0.63-3.18,1.91-4.52,3.8c-1.35,1.9-2.03,4.09-2.03,6.51c0,3.97,1.41,7.38,4.18,10.11c2.77,2.73,6.21,4.11,10.25,4.11
		c2.01,0,4.64-1.02,8.04-3.1c1.81-1.11,3.28-2.08,4.42-2.92c0.49,1.06,1.15,2.07,1.96,3.01c1.61,1.86,3.46,2.8,5.5,2.8
		c1.33,0,2.98-0.56,5.05-1.71c1.92-1.07,3.32-2,4.26-2.86l0.2-0.18l0.13-0.23c0.52-0.89,0.78-1.88,0.78-2.95
		C529.85,639.69,528.48,639.14,527.66,639.14z M499.22,638.83c-1.1-1.19-1.64-2.53-1.64-4.11c0-1.58,0.44-2.89,1.36-4
		c0.97-1.18,2.36-2.13,4.12-2.81c0.91-0.35,3.49-1.17,7.68-2.42v11.97c-0.25,0.22-0.88,0.71-2.44,1.52
		c-1.99,1.04-3.75,1.56-5.23,1.56C501.55,640.54,500.29,639.99,499.22,638.83z"/>
	
		<linearGradient id="SVGID_00000057854820142200842800000015630069596757565312_" gradientUnits="userSpaceOnUse" x1="609.949" y1="609.7255" x2="646.0962" y2="609.7255">
		<stop  offset="5.618000e-03" style="stop-color:#FAC826"/>
		<stop  offset="0.2528" style="stop-color:#FFFACB"/>
		<stop  offset="0.3048" style="stop-color:#F8EEBA"/>
		<stop  offset="0.408" style="stop-color:#E7D08D"/>
		<stop  offset="0.5516" style="stop-color:#CBA145"/>
		<stop  offset="0.5955" style="stop-color:#C2912E"/>
		<stop  offset="0.8708" style="stop-color:#EDD688"/>
		<stop  offset="1" style="stop-color:#FFFACB"/>
	</linearGradient>
	<path style="fill:url(#SVGID_00000057854820142200842800000015630069596757565312_);" d="M644.5,571.86l-0.12-0.12l-0.15-0.1
		c-1.04-0.69-1.83-1.11-2.51-1.31c-0.46-0.13-1.27-0.29-3.56-0.29c-2.04,0-4.24,0.83-6.71,2.53c-2.28,1.57-4.47,3.66-6.5,6.2
		c-2.04,2.55-3.78,5.75-5.17,9.5c-1.27,3.42-1.97,6.93-2.09,10.47h-3l-0.52,0.52c-0.33,0.33-0.89,0.95-1.71,1.91
		c-1.29,1.49-1.62,2.07-1.62,2.8c0,2.16,1.45,2.73,2.3,2.73h4.52v28.02c0,4.41-0.21,6.31-0.37,7.13c-0.22,0.09-0.67,0.24-1.48,0.4
		c-1.56,0.3-2.82,0.46-3.75,0.46h-0.88l-0.53,0.71c-0.45,0.6-0.68,1.42-0.7,2.58c-0.03,1.23,0.23,2.13,0.79,2.77l0.55,0.63
		l0.84-0.03c1.04-0.04,2.33-0.11,3.85-0.22c1.5-0.11,2.84-0.19,3.99-0.24c1.14-0.05,2.34-0.08,3.57-0.08
		c0.57,0,4.59,0.18,11.94,0.54l0.85,0.04l0.56-0.64c0.56-0.64,0.81-1.54,0.78-2.77c-0.03-1.16-0.25-1.98-0.7-2.58l-0.53-0.71h-0.88
		c-0.97,0-2.33-0.15-4.02-0.46c-0.91-0.16-1.4-0.32-1.65-0.42c-0.17-0.83-0.37-2.74-0.37-7.11V606.7h10.77l0.52-0.52
		c1.35-1.35,2.03-2.86,2.03-4.49c0-2.81-1.92-2.95-2.3-2.95h-11.02v-10.26l0-0.02c-0.03-2.86,0.42-5.06,1.36-6.55
		c1.04-1.66,2.12-1.85,2.84-1.85c0.41,0,1.15,0.13,2.29,0.76c1.77,0.97,3,1.41,3.99,1.41c0.56,0,1.11-0.06,1.64-0.18
		c0.58-0.13,1.18-0.36,1.84-0.71c0.84-0.45,1.5-1.17,1.97-2.14c0.42-0.87,0.64-1.9,0.64-3.07c0-0.71-0.16-1.49-0.46-2.32
		C645.3,572.92,644.94,572.3,644.5,571.86z"/>
	
		<linearGradient id="SVGID_00000134935902464287373160000013515655297148264109_" gradientUnits="userSpaceOnUse" x1="717.9367" y1="624.0016" x2="759.5784" y2="624.0016">
		<stop  offset="5.618000e-03" style="stop-color:#FAC826"/>
		<stop  offset="0.2528" style="stop-color:#FFFACB"/>
		<stop  offset="0.3048" style="stop-color:#F8EEBA"/>
		<stop  offset="0.408" style="stop-color:#E7D08D"/>
		<stop  offset="0.5516" style="stop-color:#CBA145"/>
		<stop  offset="0.5955" style="stop-color:#C2912E"/>
		<stop  offset="0.8708" style="stop-color:#EDD688"/>
		<stop  offset="1" style="stop-color:#FFFACB"/>
	</linearGradient>
	<path style="fill:url(#SVGID_00000134935902464287373160000013515655297148264109_);" d="M758.38,634.34
		c-0.25-0.22-0.71-0.62-1.43-0.62h-0.81l-0.53,0.61c-0.99,1.15-2.48,2.32-4.42,3.48c-1.85,1.11-3.87,1.65-6.16,1.65
		c-4.63,0-8.38-1.6-11.47-4.89c-2.78-2.95-4.26-7.13-4.42-12.41c2.13-0.04,5.98-0.13,11.52-0.27c7.81-0.2,12.56-0.35,14.11-0.46
		c1.63-0.07,2.89-0.91,3.54-2.37c0.49-1.09,0.72-2.55,0.72-4.48c0-1.11-0.16-2.33-0.49-3.62c-0.32-1.29-0.91-2.72-1.73-4.25
		c-0.84-1.56-1.92-2.98-3.21-4.2c-1.32-1.26-3.1-2.32-5.3-3.16c-2.18-0.83-4.63-1.25-7.29-1.25c-2.67,0-5.42,0.75-8.2,2.24
		c-2.69,1.44-5.16,3.37-7.34,5.75c-2.19,2.38-4.02,5.33-5.42,8.75c-1.42,3.45-2.14,7.08-2.14,10.8c0,6.9,2.21,12.73,6.58,17.32
		c4.39,4.62,10.05,6.97,16.84,6.97c2.18,0,4.3-0.36,6.3-1.08c1.99-0.71,3.73-1.64,5.17-2.76c1.37-1.06,2.53-2.11,3.46-3.12
		c0.94-1.02,1.74-2.06,2.37-3.09l0.01-0.02c0.6-1,0.9-1.96,0.9-2.86c0-0.53-0.13-1.04-0.38-1.55
		C758.97,634.99,758.7,634.63,758.38,634.34z M739.19,605.51c1.22,0,2.27,0.3,3.21,0.91c0.99,0.64,1.73,1.4,2.24,2.31
		c0.58,1.04,1.02,2.05,1.31,3c0.33,1.09,0.38,1.74,0.36,2.1c-0.06,0.83-0.23,0.83-0.73,0.83h-15.51c0.19-0.59,0.44-1.27,0.76-2.03
		c0.48-1.14,1.1-2.3,1.85-3.46c0.67-1.02,1.6-1.91,2.78-2.63C736.59,605.85,737.81,605.51,739.19,605.51z"/>
	
		<linearGradient id="SVGID_00000054980319752897178510000003761123776901952921_" gradientUnits="userSpaceOnUse" x1="924.5899" y1="611.926" x2="993.3921" y2="611.926">
		<stop  offset="5.618000e-03" style="stop-color:#FAC826"/>
		<stop  offset="0.2528" style="stop-color:#FFFACB"/>
		<stop  offset="0.3048" style="stop-color:#F8EEBA"/>
		<stop  offset="0.408" style="stop-color:#E7D08D"/>
		<stop  offset="0.5516" style="stop-color:#CBA145"/>
		<stop  offset="0.5955" style="stop-color:#C2912E"/>
		<stop  offset="0.8708" style="stop-color:#EDD688"/>
		<stop  offset="1" style="stop-color:#FFFACB"/>
	</linearGradient>
	<path style="fill:url(#SVGID_00000054980319752897178510000003761123776901952921_);" d="M992.5,611.55l-0.49-0.37l-0.62,0.02
		c-1.25,0.04-2.71,0.11-4.32,0.22c-1.58,0.11-2.98,0.19-4.16,0.24c-1.16,0.05-2.3,0.08-3.39,0.08h-9.28l-0.52,0.52
		c-0.55,0.55-0.83,1.32-0.87,2.35c-0.03,0.89,0.12,1.63,0.47,2.24l0.5,0.9h1c0.08,0,0.37,0.02,1.42,0.08
		c0.68,0.04,1.24,0.14,1.69,0.3c-0.09,0.4-0.42,1.44-1.54,3.87c-0.84,1.82-1.87,3.73-3.07,5.69c-5.25-6.05-9.74-12.11-13.4-18.05
		c1.82-1.16,3.42-2.25,4.75-3.26c1.71-1.29,3.45-2.85,5.18-4.61c1.83-1.87,3.22-3.94,4.16-6.16c0.94-2.23,1.41-4.66,1.41-7.23
		c0-4.43-1.66-7.92-4.93-10.37c-3.11-2.34-7.33-3.52-12.54-3.52c-4.95,0-9.18,1.61-12.55,4.78c-3.4,3.2-5.13,7.18-5.13,11.81
		c0,2.47,0.38,5.01,1.13,7.56c0.74,2.54,1.49,4.5,2.27,6c0.56,1.07,1.3,2.42,2.21,4.02c-1.99,1.06-3.76,2.08-5.26,3.06
		c-1.93,1.26-3.88,2.78-5.8,4.53c-2.03,1.85-3.59,3.97-4.64,6.29c-1.06,2.33-1.59,4.9-1.59,7.63c0,5.95,2.14,10.7,6.36,14.14
		c4.11,3.35,9.63,5.05,16.41,5.05c3.65,0,7.38-0.8,11.06-2.39c3.06-1.32,5.88-3,8.41-5c0.43,0.47,0.95,0.99,1.59,1.57
		c0.86,0.79,1.82,1.59,2.85,2.37c1.11,0.85,2.4,1.58,3.83,2.18c1.51,0.63,2.99,0.95,4.41,0.95c1.75,0,3.44-0.29,4.99-0.87
		c1.56-0.58,2.79-1.22,3.74-1.98c0.9-0.72,1.75-1.58,2.52-2.57c0.76-0.98,1.24-1.67,1.51-2.16c0.24-0.44,0.47-0.92,0.67-1.41
		l0.14-0.33v-0.35c0-0.94-0.49-1.82-1.45-2.62c-0.86-0.72-1.81-1.08-2.8-1.08h-1.19l-0.44,1.11c-0.19,0.47-0.68,1.3-1.95,2.59
		c-1.15,1.16-1.81,1.29-2.05,1.29c-0.35,0-0.75-0.11-1.2-0.32c-0.36-0.17-1.04-0.6-2.2-1.64c-1.03-0.92-1.87-1.72-2.49-2.35
		c-0.5-0.52-1.3-1.34-2.37-2.45c1.59-1.94,3.16-4.05,4.67-6.27c1.81-2.67,3.22-4.83,4.17-6.42c0.71-1.19,1.06-1.74,1.23-2
		c0.35-0.16,1.13-0.45,2.72-0.85c1.97-0.49,3.04-0.6,3.58-0.6c0.26,0,1.58-0.08,1.93-1.76c0.07-0.35,0.11-0.8,0.12-1.4
		C993.41,613.31,993.36,612.2,992.5,611.55z M947.71,588.48c0-1.96,0.63-3.51,1.93-4.73c1.33-1.25,2.93-1.85,4.86-1.85
		c1.76,0,3.1,0.7,4.22,2.21c1.23,1.65,1.82,3.54,1.82,5.78c0,2.4-0.41,4.49-1.22,6.21c-0.81,1.73-1.83,3.14-3.05,4.18
		c-1.02,0.87-2.37,1.83-4.02,2.86C949.24,597.34,947.71,592.42,947.71,588.48z M941.21,638.01c-2.55-2.05-3.78-5.11-3.78-9.35
		c0-1.32,0.2-2.55,0.58-3.68c0.41-1.19,0.86-2.2,1.33-2.99c0.45-0.75,1.21-1.6,2.26-2.54c1.15-1.03,2.08-1.8,2.76-2.3
		c0.47-0.35,1.13-0.81,1.97-1.39l1.88,2.84c1.92,2.9,4.4,6.38,7.37,10.34c2.44,3.26,4.62,5.95,6.51,8.01
		c-1.3,1.11-2.83,2.04-4.57,2.78c-2.31,0.98-4.5,1.48-6.49,1.48C947.09,641.19,943.87,640.15,941.21,638.01z"/>
	
		<linearGradient id="SVGID_00000018922603439135288230000008926755428263528614_" gradientUnits="userSpaceOnUse" x1="1152.197" y1="611.7635" x2="1200.12" y2="611.7635">
		<stop  offset="5.618000e-03" style="stop-color:#FAC826"/>
		<stop  offset="0.2528" style="stop-color:#FFFACB"/>
		<stop  offset="0.3048" style="stop-color:#F8EEBA"/>
		<stop  offset="0.408" style="stop-color:#E7D08D"/>
		<stop  offset="0.5516" style="stop-color:#CBA145"/>
		<stop  offset="0.5955" style="stop-color:#C2912E"/>
		<stop  offset="0.8708" style="stop-color:#EDD688"/>
		<stop  offset="1" style="stop-color:#FFFACB"/>
	</linearGradient>
	<path style="fill:url(#SVGID_00000018922603439135288230000008926755428263528614_);" d="M1198,620.55
		c-0.6-1.09-1.43-2.21-2.46-3.34c-0.98-1.07-1.9-1.99-2.73-2.73c-0.84-0.74-1.92-1.58-3.21-2.5c-1.26-0.9-2.33-1.62-3.18-2.14
		c-0.81-0.51-1.88-1.16-3.18-1.96c-1.29-0.79-2.22-1.36-2.79-1.72c-0.63-0.41-1.55-0.97-2.72-1.68c-1.16-0.69-2.06-1.25-2.69-1.65
		c-0.62-0.4-1.44-0.95-2.43-1.64c-0.94-0.65-1.67-1.23-2.18-1.71c-0.54-0.51-1.15-1.14-1.82-1.87c-0.59-0.65-1.05-1.29-1.35-1.91
		c-0.32-0.65-0.6-1.4-0.82-2.25c-0.21-0.82-0.32-1.7-0.32-2.59c0-1.22,0.18-2.43,0.54-3.59c0.36-1.15,0.92-2.28,1.68-3.35
		c0.68-0.97,1.69-1.76,3.01-2.37c1.37-0.63,2.99-0.95,4.81-0.95c1.51,0,2.96,0.31,4.31,0.93c1.39,0.63,2.59,1.45,3.57,2.43
		c1.04,1.04,1.99,2.23,2.82,3.52c0.82,1.29,1.46,2.55,1.88,3.75c0.43,1.22,0.71,2.33,0.84,3.33l0.08,0.59l0.42,0.42
		c0.43,0.43,1.21,0.95,2.44,0.95c0.71,0,1.46-0.17,2.22-0.5c1.76-0.76,1.86-2.05,1.81-2.61c-0.54-7.1-1.06-12.32-1.53-15.49
		l-0.18-1.2l-1.19-0.26c-1.31-0.28-2.81-0.65-4.47-1.09c-1.7-0.45-3-0.8-3.91-1.03c-0.98-0.25-2.17-0.47-3.65-0.66
		c-1.46-0.19-3.04-0.29-4.69-0.29c-3.9,0-7.61,0.84-11.05,2.5c-3.48,1.68-6.36,4.15-8.56,7.35c-2.24,3.25-3.37,6.93-3.37,10.96
		c0,1.33,0.16,2.66,0.49,3.93c0.3,1.2,0.64,2.3,1.01,3.25c0.4,1.07,1.07,2.19,1.97,3.33c0.82,1.04,1.46,1.85,1.96,2.48
		c0.6,0.75,1.54,1.61,2.87,2.65c1.19,0.93,2.06,1.61,2.58,2.02c0.58,0.46,1.6,1.15,3.11,2.09c1.48,0.93,2.41,1.5,2.85,1.74
		c0.28,0.16,1.01,0.59,2.87,1.69l0.02,0.01c0.7,0.4,1.61,0.91,2.78,1.54c1.15,0.62,2.02,1.1,2.67,1.47c0.64,0.36,1.41,0.84,2.3,1.41
		c0.85,0.55,1.52,1.04,2,1.45c0.48,0.42,1.02,0.96,1.6,1.6c0.52,0.58,0.91,1.15,1.18,1.72c0.29,0.6,0.52,1.33,0.71,2.17
		c0.19,0.85,0.28,1.76,0.28,2.7c0,3.61-1.04,6.35-3.19,8.39c-2.17,2.06-4.8,3.06-8.05,3.06c-2.2,0-4.24-0.41-6.06-1.21
		c-1.84-0.81-3.33-1.77-4.41-2.87c-1.13-1.15-2.14-2.5-3-4.02c-0.88-1.56-1.52-2.9-1.9-3.97c-0.38-1.08-0.68-2.11-0.88-3.07
		c-0.26-1.48-1.38-2.41-2.92-2.41c-1.49,0-2.86,0.61-4.06,1.81l-0.52,0.52v0.73c0,0.61,0.07,2.01,0.72,7.12
		c0.47,3.76,1.01,7.13,1.59,10.01l0.23,1.16l1.16,0.22c0.73,0.14,2.1,0.44,4.07,0.91c2.02,0.47,3.71,0.84,5.02,1.1
		c1.34,0.26,3.02,0.52,5.01,0.78c2.04,0.26,3.96,0.39,5.72,0.39c3.07,0,6.1-0.52,9-1.53c2.9-1.02,5.52-2.45,7.78-4.27
		c2.3-1.85,4.16-4.16,5.53-6.89c1.38-2.75,2.08-5.74,2.08-8.89c0-1.46-0.21-2.91-0.61-4.31
		C1199.11,622.88,1198.61,621.63,1198,620.55z"/>
	
		<linearGradient id="SVGID_00000088833917020668311140000015283376433034151828_" gradientUnits="userSpaceOnUse" x1="1276.078" y1="624.567" x2="1357.7142" y2="624.567">
		<stop  offset="5.618000e-03" style="stop-color:#FAC826"/>
		<stop  offset="0.2528" style="stop-color:#FFFACB"/>
		<stop  offset="0.3048" style="stop-color:#F8EEBA"/>
		<stop  offset="0.408" style="stop-color:#E7D08D"/>
		<stop  offset="0.5516" style="stop-color:#CBA145"/>
		<stop  offset="0.5955" style="stop-color:#C2912E"/>
		<stop  offset="0.8708" style="stop-color:#EDD688"/>
		<stop  offset="1" style="stop-color:#FFFACB"/>
	</linearGradient>
	<path style="fill:url(#SVGID_00000088833917020668311140000015283376433034151828_);" d="M1356.52,598.93l-0.76,0.03
		c-1.12,0.04-2.31,0.11-3.54,0.22c-1.19,0.11-2.26,0.19-3.19,0.24c-0.92,0.05-1.99,0.08-3.18,0.08c-1.64,0-3.34-0.08-5.07-0.24
		c-1.8-0.16-3.25-0.27-4.29-0.3l-0.84-0.03l-0.55,0.63c-0.57,0.65-0.82,1.55-0.79,2.85c0.02,1,0.16,2.11,0.99,2.8l0.43,0.36
		l0.56,0.04c1.19,0.09,1.75,0.15,2,0.2c0.26,0.04,0.77,0.15,1.74,0.42c0.64,0.18,0.86,0.39,0.92,0.47c0.05,0.06,0.2,0.25,0.2,0.73
		c0,0.17-0.05,0.71-0.5,2.04c-0.82,2.44-3.44,9.17-7.78,20.02c-0.52-1.33-1.05-2.69-1.59-4.07c-1.12-2.85-2-5.1-2.66-6.75
		c-0.66-1.67-1.3-3.29-1.89-4.81c-0.6-1.53-1.07-2.78-1.38-3.7c-0.32-0.93-0.56-1.64-0.74-2.16c-0.13-0.47-0.18-0.68-0.19-0.77
		c0.01-0.55,0.2-1.62,3.65-1.62h0.73l0.52-0.52c0.74-0.74,0.84-1.84,0.84-2.71c0-1-0.11-1.74-0.34-2.33l-0.47-1.17l-1.26,0.06
		c-9.24,0.46-10.97,0.54-11.18,0.54c-1.64,0-3.45-0.08-5.38-0.24c-1.99-0.16-3.47-0.26-4.4-0.3l-0.77-0.03l-0.55,0.55
		c-0.64,0.64-0.95,1.59-0.95,2.92c0,0.58,0,2.34,1.41,3.04l0.37,0.18h0.41c2.43,0,3.09,0.97,3.32,1.3c0.58,0.83,1.12,1.85,1.61,3.03
		c0.48,1.16,0.62,1.68,0.66,1.87c-0.03,0.12-0.1,0.34-0.24,0.74c-0.23,0.66-0.63,1.73-1.18,3.18c-0.55,1.46-1.12,2.91-1.69,4.32
		c-0.61,1.51-1.47,3.65-2.55,6.37c-0.48,1.21-0.95,2.39-1.4,3.53c-5.57-13.17-8.75-20.77-9.45-22.6c-0.16-0.46-0.27-0.77-0.34-0.98
		c0.05-0.03,0.11-0.07,0.2-0.11c0.66-0.32,1.24-0.51,1.71-0.56c0.62-0.07,1.18-0.1,1.66-0.1h0.42l0.37-0.19
		c1.27-0.64,1.31-2.25,1.32-2.94c0.02-1.07-0.05-1.79-0.23-2.33l-0.42-1.25l-1.32,0.05c-1.04,0.04-2.28,0.11-3.67,0.22
		c-1.37,0.11-2.61,0.19-3.69,0.24c-1.07,0.05-2.21,0.08-3.41,0.08c-1.27,0-2.44-0.03-3.49-0.08c-1.06-0.05-2.24-0.13-3.52-0.24
		c-1.32-0.11-2.55-0.18-3.66-0.22l-1.18-0.04l-0.48,1.08c-0.25,0.57-0.37,1.29-0.37,2.29c0,1,0.12,1.72,0.37,2.29l0.47,1.04h1.14
		c1.37,0,3.74,0.17,4.23,1.32l0.01,0.02c5.63,12.69,11.52,26.74,17.52,41.74l0.06,0.13c0.26,0.53,0.94,1.41,2.55,1.41
		c0.95,0,1.92-0.44,2.86-1.3c0.86-0.78,1.3-1.35,1.5-1.92l10.02-25.42l10.4,27.08l0.03,0.08l0.04,0.08
		c0.47,0.93,1.43,1.41,2.87,1.41c0.74,0,1.48-0.3,2.34-0.95c0.78-0.6,1.31-1.27,1.58-2.02c4.09-9.8,9.37-22.87,15.7-38.86
		c0.35-0.89,1.1-1.53,2.3-1.97c1.84-0.67,2.88-0.81,3.43-0.81h0.59l0.47-0.35c1-0.75,1.14-2.08,1.16-3.02
		c0.03-1.41-0.06-2.18-0.65-2.77L1356.52,598.93z"/>
	
		<linearGradient id="SVGID_00000005245003615839368960000004396808793243487673_" gradientUnits="userSpaceOnUse" x1="1434.1234" y1="624.0016" x2="1475.7651" y2="624.0016">
		<stop  offset="5.618000e-03" style="stop-color:#FAC826"/>
		<stop  offset="0.2528" style="stop-color:#FFFACB"/>
		<stop  offset="0.3048" style="stop-color:#F8EEBA"/>
		<stop  offset="0.408" style="stop-color:#E7D08D"/>
		<stop  offset="0.5516" style="stop-color:#CBA145"/>
		<stop  offset="0.5955" style="stop-color:#C2912E"/>
		<stop  offset="0.8708" style="stop-color:#EDD688"/>
		<stop  offset="1" style="stop-color:#FFFACB"/>
	</linearGradient>
	<path style="fill:url(#SVGID_00000005245003615839368960000004396808793243487673_);" d="M1474.56,634.34
		c-0.25-0.22-0.71-0.62-1.43-0.62h-0.81l-0.53,0.61c-0.99,1.15-2.48,2.32-4.42,3.48c-1.85,1.11-3.87,1.65-6.16,1.65
		c-4.63,0-8.38-1.6-11.47-4.89c-2.78-2.95-4.26-7.13-4.42-12.41c2.13-0.04,5.98-0.13,11.52-0.27c7.81-0.2,12.56-0.35,14.11-0.46
		c1.63-0.07,2.89-0.91,3.54-2.37c0.49-1.09,0.72-2.55,0.72-4.48c0-1.11-0.16-2.33-0.49-3.62c-0.32-1.29-0.91-2.72-1.73-4.25
		c-0.84-1.56-1.92-2.98-3.21-4.2c-1.32-1.26-3.1-2.32-5.3-3.16c-2.18-0.83-4.63-1.25-7.29-1.25c-2.67,0-5.42,0.75-8.2,2.24
		c-2.69,1.44-5.16,3.37-7.34,5.75c-2.19,2.38-4.01,5.33-5.42,8.75c-1.42,3.45-2.14,7.08-2.14,10.8c0,6.9,2.21,12.73,6.58,17.32
		c4.39,4.62,10.06,6.97,16.84,6.97c2.18,0,4.3-0.36,6.3-1.08c1.99-0.71,3.73-1.64,5.17-2.76c1.37-1.06,2.53-2.11,3.46-3.12
		c0.94-1.02,1.74-2.06,2.37-3.09l0.01-0.02c0.6-1,0.9-1.96,0.9-2.85c0-0.53-0.13-1.04-0.38-1.55
		C1475.16,634.99,1474.89,634.63,1474.56,634.34z M1455.38,605.51c1.22,0,2.27,0.3,3.21,0.91c0.99,0.64,1.73,1.4,2.24,2.31
		c0.58,1.04,1.02,2.05,1.31,3c0.33,1.09,0.38,1.74,0.36,2.1c-0.06,0.83-0.23,0.83-0.73,0.83h-15.51c0.19-0.59,0.44-1.27,0.76-2.03
		c0.48-1.14,1.1-2.3,1.86-3.46c0.67-1.02,1.6-1.91,2.78-2.63C1452.78,605.85,1454,605.51,1455.38,605.51z"/>
	
		<linearGradient id="SVGID_00000040572913462328460310000014188180798231726211_" gradientUnits="userSpaceOnUse" x1="1555.9124" y1="624.0016" x2="1597.5541" y2="624.0016">
		<stop  offset="5.618000e-03" style="stop-color:#FAC826"/>
		<stop  offset="0.2528" style="stop-color:#FFFACB"/>
		<stop  offset="0.3048" style="stop-color:#F8EEBA"/>
		<stop  offset="0.408" style="stop-color:#E7D08D"/>
		<stop  offset="0.5516" style="stop-color:#CBA145"/>
		<stop  offset="0.5955" style="stop-color:#C2912E"/>
		<stop  offset="0.8708" style="stop-color:#EDD688"/>
		<stop  offset="1" style="stop-color:#FFFACB"/>
	</linearGradient>
	<path style="fill:url(#SVGID_00000040572913462328460310000014188180798231726211_);" d="M1596.35,634.34
		c-0.25-0.22-0.71-0.62-1.43-0.62h-0.81l-0.53,0.61c-0.99,1.15-2.48,2.32-4.42,3.48c-1.85,1.11-3.87,1.65-6.16,1.65
		c-4.63,0-8.38-1.6-11.47-4.89c-2.78-2.95-4.26-7.13-4.42-12.41c2.13-0.04,5.98-0.13,11.52-0.27c7.81-0.2,12.56-0.35,14.11-0.46
		c1.63-0.07,2.89-0.91,3.54-2.37c0.49-1.09,0.72-2.55,0.72-4.48c0-1.11-0.16-2.33-0.49-3.62c-0.32-1.29-0.91-2.72-1.73-4.25
		c-0.84-1.56-1.92-2.98-3.21-4.2c-1.32-1.26-3.1-2.32-5.3-3.16c-2.18-0.83-4.63-1.25-7.29-1.25c-2.67,0-5.42,0.75-8.2,2.24
		c-2.69,1.44-5.16,3.37-7.34,5.75c-2.19,2.38-4.01,5.33-5.42,8.75c-1.42,3.45-2.14,7.08-2.14,10.8c0,6.9,2.21,12.73,6.58,17.32
		c4.39,4.62,10.06,6.97,16.84,6.97c2.18,0,4.3-0.36,6.3-1.08c1.99-0.71,3.73-1.64,5.17-2.76c1.37-1.06,2.53-2.11,3.46-3.12
		c0.94-1.02,1.74-2.06,2.37-3.09l0.01-0.02c0.6-1,0.9-1.96,0.9-2.85c0-0.53-0.13-1.04-0.38-1.55
		C1596.95,634.99,1596.68,634.63,1596.35,634.34z M1577.17,605.51c1.22,0,2.27,0.3,3.21,0.91c0.99,0.64,1.73,1.4,2.24,2.31
		c0.58,1.04,1.02,2.05,1.31,3c0.33,1.09,0.38,1.74,0.36,2.1c-0.06,0.83-0.23,0.83-0.73,0.83h-15.51c0.19-0.59,0.44-1.27,0.76-2.03
		c0.48-1.14,1.1-2.3,1.86-3.46c0.67-1.02,1.6-1.91,2.78-2.63C1574.57,605.85,1575.79,605.51,1577.17,605.51z"/>
	
		<linearGradient id="SVGID_00000090297004328529245460000004445627755973508528_" gradientUnits="userSpaceOnUse" x1="1676.1665" y1="617.0124" x2="1709.3606" y2="617.0124">
		<stop  offset="5.618000e-03" style="stop-color:#FAC826"/>
		<stop  offset="0.2528" style="stop-color:#FFFACB"/>
		<stop  offset="0.3048" style="stop-color:#F8EEBA"/>
		<stop  offset="0.408" style="stop-color:#E7D08D"/>
		<stop  offset="0.5516" style="stop-color:#CBA145"/>
		<stop  offset="0.5955" style="stop-color:#C2912E"/>
		<stop  offset="0.8708" style="stop-color:#EDD688"/>
		<stop  offset="1" style="stop-color:#FFFACB"/>
	</linearGradient>
	<path style="fill:url(#SVGID_00000090297004328529245460000004445627755973508528_);" d="M1706.81,606.7l0.52-0.52
		c1.35-1.35,2.03-2.86,2.03-4.49c0-2.81-1.92-2.95-2.3-2.95h-12.21v-12.43c0-0.97-0.65-1.75-1.66-2c-0.51-0.13-1.05-0.12-1.62,0.03
		c-0.57,0.15-1.06,0.43-1.46,0.83c-0.04,0.04-0.15,0.15-1.35,1.46c-0.79,0.87-1.73,1.88-2.81,3.06c-1.12,1.21-1.95,2.14-2.54,2.85
		l-0.41,0.49v5.71h-2.98l-0.52,0.52c-0.33,0.33-0.89,0.95-1.71,1.91c-1.29,1.49-1.62,2.07-1.62,2.8c0,2.16,1.45,2.73,2.3,2.73h4.52
		v29.65c0,2.45,0.36,4.6,1.07,6.39c0.75,1.89,1.83,3.37,3.21,4.39c1.28,0.95,2.68,1.65,4.14,2.07c1.42,0.4,2.96,0.61,4.6,0.61
		c1.89,0,3.8-0.47,5.7-1.4c1.82-0.89,3.19-1.75,4.2-2.64c0.92-0.81,1.77-1.64,2.53-2.47c0.61-0.64,0.91-1.56,0.91-2.83
		c0-1.52-0.91-2.14-1.3-2.33l-0.95-0.48l-0.86,0.62c-2.02,1.45-3.99,2.16-6.01,2.16c-2.51,0-5.39-0.81-5.39-7.12V606.7H1706.81z"/>
	
		<linearGradient id="SVGID_00000172406063463406441880000005649338697749363628_" gradientUnits="userSpaceOnUse" x1="1789.2897" y1="624.2182" x2="1824" y2="624.2182">
		<stop  offset="5.618000e-03" style="stop-color:#FAC826"/>
		<stop  offset="0.2528" style="stop-color:#FFFACB"/>
		<stop  offset="0.3048" style="stop-color:#F8EEBA"/>
		<stop  offset="0.408" style="stop-color:#E7D08D"/>
		<stop  offset="0.5516" style="stop-color:#CBA145"/>
		<stop  offset="0.5955" style="stop-color:#C2912E"/>
		<stop  offset="0.8708" style="stop-color:#EDD688"/>
		<stop  offset="1" style="stop-color:#FFFACB"/>
	</linearGradient>
	<path style="fill:url(#SVGID_00000172406063463406441880000005649338697749363628_);" d="M1823.55,630.35
		c-0.31-1.05-0.84-2.06-1.56-3.01c-0.62-0.81-1.2-1.52-1.74-2.11c-0.61-0.67-1.45-1.36-2.57-2.12c-0.98-0.66-1.75-1.17-2.29-1.53
		c-0.56-0.36-1.39-0.87-2.54-1.54c-1.07-0.62-1.82-1.05-2.18-1.25c-0.44-0.26-1.2-0.69-2.34-1.33c-1.34-0.75-1.94-1.13-2.22-1.31
		c-0.39-0.26-0.97-0.69-1.7-1.27c-0.81-0.64-1.14-1.06-1.26-1.25c-0.25-0.39-0.49-0.91-0.71-1.55c-0.2-0.59-0.31-1.24-0.31-1.94
		c0-1.54,0.47-2.73,1.43-3.66c0.97-0.93,2.48-1.41,4.49-1.41c1.54,0,2.93,0.82,4.25,2.5c1.51,1.91,2.56,3.99,3.15,6.17l0.14,0.54
		l0.43,0.36c0.76,0.63,1.75,0.95,2.97,0.95c2.76,0,2.84-2.07,2.84-2.3l0-0.05c-0.15-4.78-0.6-8.9-1.34-12.24l-0.27-1.23l-1.25-0.14
		c-0.94-0.1-2.6-0.36-4.93-0.77c-2.47-0.43-4.6-0.65-6.31-0.65c-4.57,0-8.64,1.37-12.08,4.09c-3.57,2.81-5.38,6.47-5.38,10.89
		c0,3.04,0.88,5.66,2.61,7.8c1.61,1.98,3.78,3.76,6.48,5.3c0.81,0.5,2.04,1.18,3.77,2.08c1.64,0.86,2.88,1.54,3.67,2.04
		c0.76,0.48,1.65,1.14,2.63,1.95c0.83,0.69,1.42,1.42,1.76,2.18c0.35,0.78,0.52,1.69,0.52,2.69c0,1.93-0.54,3.39-1.65,4.44
		c-1.13,1.08-2.57,1.6-4.39,1.6c-2.22,0-4.2-0.89-6.08-2.72c-1.97-1.92-3.29-4.03-3.92-6.28l-0.18-0.63l-0.54-0.36
		c-0.52-0.34-1.15-0.51-1.95-0.51c-1.11,0-2.12,0.34-3.01,1l-0.7,0.53v0.88c0,1.56,0.2,3.57,0.62,6.15c0.42,2.62,0.86,4.5,1.34,5.74
		l0.35,0.92l0.96,0.18c0.95,0.18,2.28,0.46,3.96,0.85c1.75,0.4,3.3,0.71,4.62,0.92c1.37,0.21,2.85,0.32,4.41,0.32
		c4.92,0,9.25-1.57,12.87-4.67c3.7-3.17,5.57-7.22,5.57-12.03C1824,632.43,1823.85,631.36,1823.55,630.35z"/>
</g>
</svg>
