<?xml version="1.0" encoding="utf-8"?>
<!-- Generator: Adobe Illustrator 27.4.1, SVG Export Plug-In . SVG Version: 6.00 Build 0)  -->
<svg version="1.1" id="Layer_1" xmlns="http://www.w3.org/2000/svg" xmlns:xlink="http://www.w3.org/1999/xlink" x="0px" y="0px"
	 viewBox="0 0 3410.66 714.41" style="enable-background:new 0 0 3410.66 714.41;" xml:space="preserve">
<style type="text/css">
	.st0{fill:url(#SVGID_1_);}
</style>
<linearGradient id="SVGID_1_" gradientUnits="userSpaceOnUse" x1="0" y1="487.2984" x2="3141.4888" y2="487.2984">
	<stop  offset="5.618000e-03" style="stop-color:#FBC926"/>
	<stop  offset="0.2528" style="stop-color:#FFFBCC"/>
	<stop  offset="0.2986" style="stop-color:#F8EBB8"/>
	<stop  offset="0.3896" style="stop-color:#E7CF8E"/>
	<stop  offset="0.5159" style="stop-color:#D0A953"/>
	<stop  offset="0.5955" style="stop-color:#C3922E"/>
	<stop  offset="0.8143" style="stop-color:#E2C675"/>
	<stop  offset="0.8708" style="stop-color:#EED688"/>
	<stop  offset="1" style="stop-color:#FFFBCC"/>
</linearGradient>
<path class="st0" d="M0,591.54v-9.33c5.59-2.8,11.35-8.17,17.27-16.11c5.91-7.93,11.66-16.96,17.27-27.07
	c5.59-10.11,10.73-20.46,15.4-31.04c4.67-10.58,8.56-19.91,11.67-28.01l80.26-215.18h68.6l65.33,175.12
	c5.29,14.32,11.35,29.5,18.2,45.53c6.85,16.04,14.15,30.98,21.93,44.83c7.78,13.86,15.87,25.61,24.27,35.26
	c8.4,9.65,16.8,15.26,25.2,16.81v9.2H186.66v-9.33c4.98-1.86,8.64-5.67,10.97-11.43c2.33-5.75,3.65-12.9,3.97-21.45
	c0.31-8.55-0.24-18.19-1.63-28.91c-1.4-10.73-3.34-22-5.83-33.81H84.46c-1.55,12.45-2.18,24.51-1.87,36.19
	c0.31,11.68,2.02,21.87,5.13,30.58c3.11,8.72,7.85,15.72,14.23,21.01s15.01,7.94,25.9,7.94v9.2H0z M191.33,475.1
	c-2.18-8.1-4.51-16.13-7-24.08c-2.49-7.95-4.98-15.5-7.46-22.67l-42-112.21L105,397.03c-3.11,8.1-6.46,19.17-10.04,33.19
	c-3.58,14.03-6.61,28.99-9.1,44.88H191.33z M405.03,591.54v-9.33c5.29-3.42,10.1-11.9,14.46-25.44c4.36-13.53,6.54-34,6.54-61.38
	V379.62c0-27.38-2.18-49.79-6.54-67.22c-4.36-17.42-9.18-30.18-14.46-38.28v-9.33h140.4c23,0,44.07,2.03,63.19,6.07
	c19.12,4.05,35.68,9.65,49.67,16.8c13.99,7.16,24.87,15.87,32.65,26.14c7.77,10.27,11.81,21.63,12.13,34.08
	c0.31,9.02-1.63,17.11-5.82,24.27c-4.2,7.16-9.87,13.54-17.01,19.14c-7.15,5.6-15.53,10.51-25.16,14.71s-19.88,7.7-30.75,10.5
	c7.14,13.69,14.6,28.63,22.36,44.81s16.07,31.98,24.92,47.38c8.85,15.4,18.49,29.64,28.9,42.71s22,23.34,34.75,30.81v9.33H574.95
	v-9.33c4.97-4.66,8-10.88,9.08-18.66c1.09-7.78,0.93-16.49-0.47-26.14c-1.39-9.64-3.65-19.83-6.75-30.57
	c-3.11-10.73-6.6-21.08-10.48-31.03c-3.88-9.95-7.84-19.21-11.88-27.76c-4.04-8.56-7.46-15.47-10.25-20.77
	c-5.29,0.32-10.41,0.4-15.38,0.24c-4.97-0.16-9.63-0.39-13.97-0.7v68.59c0,27.38,2.18,47.83,6.54,61.37
	c4.36,13.53,9.18,22.01,14.47,25.43v9.33H405.03z M514.85,413.96c10.53,1.87,21.37,2.49,32.53,1.86c11.15-0.62,21.3-2.8,30.44-6.53
	s16.65-9.18,22.54-16.33c5.88-7.15,8.83-16.49,8.83-28.01c0-11.82-2.4-23.1-7.21-33.83s-11-20.14-18.59-28.23
	c-7.59-8.09-16.27-14.55-26.02-19.37c-9.77-4.82-19.75-7.23-29.98-7.23h-12.55V413.96z M774.91,591.54v-9.33
	c5.59-2.8,11.35-8.17,17.27-16.11c5.91-7.93,11.66-16.96,17.27-27.07c5.59-10.11,10.73-20.46,15.4-31.04
	c4.67-10.58,8.56-19.91,11.67-28.01l80.26-215.18h68.6l65.33,175.12c5.29,14.32,11.35,29.5,18.2,45.53
	c6.85,16.04,14.15,30.98,21.93,44.83c7.78,13.86,15.87,25.61,24.27,35.26c8.4,9.65,16.8,15.26,25.2,16.81v9.2H961.57v-9.33
	c4.98-1.86,8.64-5.67,10.97-11.43c2.33-5.75,3.65-12.9,3.97-21.45c0.31-8.55-0.24-18.19-1.63-28.91c-1.4-10.73-3.34-22-5.83-33.81
	H859.37c-1.55,12.45-2.18,24.51-1.87,36.19c0.31,11.68,2.02,21.87,5.13,30.58c3.11,8.72,7.85,15.72,14.23,21.01
	s15.01,7.94,25.9,7.94v9.2H774.91z M966.24,475.1c-2.18-8.1-4.51-16.13-7-24.08c-2.49-7.95-4.98-15.5-7.46-22.67l-42-112.21
	l-29.86,80.89c-3.11,8.1-6.46,19.17-10.04,33.19c-3.58,14.03-6.61,28.99-9.1,44.88H966.24z M1200.94,495.38V379.62
	c0-27.38-2.18-49.79-6.54-67.22c-4.36-17.42-9.18-30.18-14.46-38.28v-9.33h140.47c23.02,0,43.55,2.19,61.6,6.54
	c18.05,4.36,33.37,10.21,45.97,17.53c12.6,7.33,22.24,15.67,28.93,25.02c6.69,9.35,10.04,19.16,10.04,29.45
	c0,11.85-2.73,21.98-8.18,30.39c-5.46,8.41-12.4,15.35-20.81,20.8c-8.41,5.46-17.77,9.66-28.05,12.63
	c-10.29,2.96-20.26,4.75-29.93,5.37c12.46,0,25.71,1.71,39.73,5.13c14.02,3.42,26.87,8.63,38.56,15.62
	c11.68,7,21.42,15.86,29.22,26.58c7.79,10.72,11.69,23.54,11.69,38.46c-0.32,32.95-13.46,56.73-39.43,71.33
	c-25.98,14.61-65.26,21.91-117.84,21.91h-161.94v-9.33c5.29-3.42,10.1-11.9,14.46-25.44
	C1198.76,543.23,1200.94,522.76,1200.94,495.38z M1289.76,322.64v88.49h37.67c6.51,0,12.86-0.86,19.06-2.57
	c6.2-1.71,11.77-4.44,16.73-8.19c4.96-3.75,8.91-8.66,11.86-14.75c2.95-6.08,4.42-13.5,4.42-22.24c0-11.86-1.47-23.02-4.42-33.48
	s-7.05-19.66-12.32-27.62c-5.27-7.96-11.39-14.28-18.37-18.96s-14.5-7.03-22.55-7.03c-5.9,0-10.93,1.41-15.11,4.21
	c-4.19,2.81-7.52,6.48-10,11c-2.48,4.53-4.26,9.52-5.35,14.99C1290.3,311.96,1289.76,317.34,1289.76,322.64z M1289.76,422.64v54.18
	c0,15.26,2.01,29.19,6.05,41.81c4.03,12.61,9.31,23.43,15.83,32.46c6.51,9.03,13.96,16.11,22.35,21.25
	c8.38,5.13,16.92,7.7,25.62,7.7c8.69,0,15.99-1.71,21.88-5.13c5.9-3.42,10.71-8.02,14.44-13.78s6.44-12.38,8.15-19.85
	c1.7-7.47,2.56-15.1,2.56-22.88c0-33.31-9.08-57.6-27.25-72.86c-18.16-15.26-43.39-22.89-75.68-22.89H1289.76z M1559.79,495.38
	V379.62c0-27.38-2.18-49.79-6.54-67.22c-4.36-17.42-9.18-30.18-14.46-38.28v-9.33h240.01l11.2,71.71h-9.33
	c-4.67-7.46-11.12-14.86-19.36-22.17c-8.25-7.31-17.66-13.76-28.24-19.36c-10.58-5.59-21.7-10.11-33.37-13.53
	s-23.41-5.13-35.23-5.13h-15.87v145.43h10.27c19.6,0,34.77-0.62,45.52-1.86c10.74-1.24,18.9-3.19,24.51-5.84
	c5.6-2.65,9.41-5.83,11.44-9.56c2.02-3.73,3.81-8.09,5.37-13.07h9.2v72.17h-9.33c-1.55-4.98-3.34-9.33-5.36-13.06
	s-5.82-6.92-11.42-9.57c-5.59-2.65-13.76-4.59-24.48-5.83c-10.73-1.24-25.88-1.87-45.46-1.87h-10.26v146.81h25.2
	c11.82,0,23.56-1.71,35.23-5.13c11.66-3.42,22.79-7.93,33.37-13.53c10.58-5.59,19.99-12.05,28.24-19.36
	c8.24-7.31,14.7-14.7,19.36-22.17h9.33l-11.2,71.71h-249.35v-9.33c5.29-3.42,10.1-11.9,14.46-25.44
	C1557.61,543.23,1559.79,522.76,1559.79,495.38z M1969.75,272.61c-10.27,0-19.21,2.96-26.84,8.87
	c-7.62,5.91-11.43,13.22-11.43,21.94c0,12.45,4.67,23.89,14.01,34.31c9.34,10.43,21.02,20.47,35.03,30.12
	c14.01,9.65,29.19,19.29,45.54,28.94c16.34,9.65,31.52,19.76,45.53,30.35c14.01,10.58,25.69,22.02,35.03,34.31
	c9.34,12.3,14.01,25.91,14.01,40.85c0,19.61-4.13,35.56-12.38,47.85s-19.07,21.86-32.46,28.71c-13.39,6.85-28.73,11.52-46.01,14.01
	c-17.29,2.48-35.11,3.73-53.48,3.73c-12.15,0-26.16-1.71-42.04-5.13c-15.88-3.42-30.83-8.93-44.84-16.54
	c-14.01-7.61-25.92-17.55-35.73-29.82c-9.81-12.27-14.71-27.26-14.71-44.97c0-8.38,1.55-15.84,4.66-22.36
	c3.11-6.52,7.07-12.04,11.89-16.55c4.82-4.5,10.41-7.85,16.78-10.02c6.37-2.17,12.82-3.26,19.35-3.26c11.49,0,22.06,3.65,31.7,10.93
	c9.64,7.28,15.4,18.52,17.27,33.71c-9.65-0.62-16.88,1.79-21.7,7.24c-4.82,5.45-7.23,12.85-7.23,22.19c0,8.72,1.87,16.9,5.61,24.53
	c3.74,7.64,8.73,14.33,14.97,20.09c6.23,5.77,13.25,10.28,21.05,13.55c7.79,3.27,15.9,4.9,24.32,4.9c7.48,0,14.19-1.32,20.11-3.97
	c5.93-2.65,10.99-6.07,15.2-10.27c4.21-4.2,7.48-8.95,9.82-14.24c2.34-5.29,3.51-10.74,3.51-16.34c0-14-4.2-26.22-12.6-36.64
	c-8.4-10.43-18.89-20.07-31.49-28.94c-12.6-8.87-26.21-17.42-40.82-25.67c-14.62-8.25-28.22-17.19-40.82-26.84
	s-23.1-20.46-31.5-32.44c-8.4-11.98-12.59-26.07-12.59-42.25c0-12.14,2.79-23.49,8.38-34.08c5.59-10.58,13.51-19.77,23.77-27.55
	c10.25-7.78,22.52-13.85,36.82-18.21c14.3-4.36,30.16-6.54,47.58-6.54c9.33,0,17.57,0.86,24.73,2.56c7.15,1.71,13.92,3.57,20.3,5.59
	c6.38,2.03,12.6,3.89,18.67,5.6c6.07,1.71,12.53,2.57,19.37,2.57c4.35,0,8.55-1.47,12.59-4.43s6.38-6.62,7-10.97h5.6l10.27,119.78
	h-9.33c-4.98-12.13-11.13-24.65-18.44-37.56c-7.31-12.91-15.63-24.66-24.97-35.23c-9.33-10.58-19.76-19.29-31.27-26.13
	C1996.03,276.03,1983.43,272.61,1969.75,272.61z M2160.26,430.49c0.31-20.84,3.73-41.44,10.26-61.82s16.57-38.57,30.1-54.59
	c13.53-16.02,30.64-29.01,51.33-38.96c20.69-9.95,45.19-14.94,73.5-14.94c28,0,52.5,4.98,73.5,14.94
	c21,9.95,38.34,22.94,52.03,38.96c13.68,16.02,24.02,34.22,31.03,54.6s10.51,40.99,10.51,61.83c0.31,17.11-1.79,34.07-6.3,50.87
	c-4.52,16.8-11.43,32.28-20.77,46.43c-9.33,14.15-21.23,26.68-35.7,37.56c-14.47,10.89-31.5,18.98-51.1,24.26l-12.13,4.67
	c-12.45,4.98-12.29,9.66,0.47,14.02c12.13,4.36,24.81,9.19,38.03,14.49c13.22,5.29,26.2,10.28,38.96,14.95
	c12.76,4.67,25.12,8.64,37.1,11.92c11.98,3.26,23.1,4.9,33.37,4.9c8.08,0,15.47-1.24,22.16-3.72c6.69-2.48,12.37-6.66,17.03-12.54
	l2.34,0.46c-0.63,9.95-2.42,19.44-5.37,28.48c-2.96,9.02-7.08,17.04-12.37,24.05c-5.29,7-11.59,12.6-18.9,16.8
	c-7.31,4.19-15.63,6.3-24.97,6.3c-8.09,0-16.33-1.56-24.73-4.67c-11.51-4.04-22.48-10.34-32.9-18.89
	c-10.43-8.56-20.54-17.65-30.34-27.29c-9.8-9.65-19.44-18.9-28.93-27.76c-9.49-8.87-19.21-15.78-29.17-20.76
	c-2.18-1.24-4.52-2.02-7-2.33c-2.49-0.32-4.98-0.47-7.46-0.47c-8.72,0-17.66,1.86-26.84,5.6c-9.18,3.73-16.88,7-23.1,9.8l-7.46-8.87
	c1.55-1.25,3.88-2.81,7-4.67c3.11-1.88,6.69-3.92,10.74-6.13c4.04-2.21,8.24-4.34,12.6-6.39c4.36-2.06,8.56-3.88,12.6-5.45
	c-26.76-0.93-50.17-6.22-70.23-15.86s-36.71-22.16-49.93-37.56c-13.22-15.4-23.02-32.81-29.4-52.26
	C2163.45,471.01,2160.26,451.03,2160.26,430.49z M2343.19,583.71c11.51,0,20.92-4.44,28.23-13.31c7.31-8.87,12.91-20.63,16.8-35.27
	c3.89-14.63,6.07-31.37,6.54-50.21c0.46-18.84-0.47-37.99-2.8-57.45c-2.33-19.47-6.06-38.46-11.2-56.99
	c-5.13-18.52-11.36-35.11-18.67-49.75c-7.31-14.63-15.63-26.39-24.97-35.26s-19.44-13.16-30.33-12.85
	c-10.89,0.32-19.91,4.91-27.07,13.78s-12.52,20.63-16.1,35.26c-3.58,14.64-5.6,31.3-6.07,49.98c-0.47,18.68,0.47,37.68,2.8,56.99
	c2.33,19.31,5.99,38.31,10.97,56.99c4.98,18.68,11.04,35.26,18.2,49.75c7.15,14.48,15.24,26.16,24.27,35.03
	C2322.81,579.28,2332.61,583.71,2343.19,583.71z M2543.75,274.12v-9.33h130.82v9.34c-5.29,8.1-10.11,20.87-14.47,38.3
	c-4.36,17.44-6.54,39.85-6.54,67.25v90.14c0,16.81,0.7,31.99,2.09,45.53c1.4,13.55,4.35,25.15,8.86,34.8
	c4.5,9.65,10.87,17.12,19.11,22.41c8.23,5.29,19.34,7.94,33.33,7.94c26.1,0,46.37-9.8,60.83-29.42
	c14.45-19.62,21.67-50.13,21.67-91.54V346.98c0-15.88-1.09-28.33-3.27-37.36c-2.18-9.03-4.82-15.88-7.93-20.55
	c-3.11-4.67-6.38-7.93-9.8-9.8c-3.42-1.87-6.53-3.58-9.33-5.14v-9.34h72.17v9.33c-2.8,1.56-5.91,3.27-9.33,5.13
	c-3.42,1.87-6.69,5.13-9.8,9.8c-3.11,4.67-5.76,11.51-7.94,20.54s-3.26,21.47-3.26,37.33v111.54c0,25.51-2.57,47.06-7.69,64.64
	c-5.13,17.58-12.75,31.82-22.85,42.71c-10.1,10.89-22.62,18.67-37.54,23.33c-14.93,4.66-32.34,7-52.23,7
	c-42.59,0-74.22-10.89-94.9-32.67c-20.67-21.77-31.01-56.94-31.01-105.47v-78.4c0-27.38-2.18-49.78-6.54-67.21
	C2553.86,294.97,2549.04,282.21,2543.75,274.12z M2901.93,495.38V379.62c0-27.38-2.18-49.79-6.54-67.22
	c-4.36-17.42-9.18-30.18-14.46-38.28v-9.33h240.01l11.2,71.71h-9.33c-4.67-7.46-11.12-14.86-19.36-22.17
	c-8.25-7.31-17.66-13.76-28.24-19.36c-10.58-5.59-21.7-10.11-33.37-13.53s-23.41-5.13-35.23-5.13h-15.87v145.43h10.27
	c19.6,0,34.77-0.62,45.52-1.86c10.74-1.24,18.9-3.19,24.51-5.84c5.6-2.65,9.41-5.83,11.44-9.56c2.02-3.73,3.81-8.09,5.37-13.07h9.2
	v72.17h-9.33c-1.55-4.98-3.34-9.33-5.36-13.06c-2.02-3.73-5.82-6.92-11.42-9.57c-5.59-2.65-13.76-4.59-24.48-5.83
	c-10.73-1.24-25.88-1.87-45.46-1.87h-10.26v146.81h25.2c11.82,0,23.56-1.71,35.23-5.13c11.66-3.42,22.79-7.93,33.37-13.53
	c10.58-5.59,19.99-12.05,28.24-19.36c8.24-7.31,14.7-14.7,19.36-22.17h9.33l-11.2,71.71h-249.35v-9.33
	c5.29-3.42,10.1-11.9,14.46-25.44C2899.76,543.23,2901.93,522.76,2901.93,495.38z"/>
</svg>
